<svg width="300" height="224" viewBox="0 0 300 224" fill="none" xmlns="http://www.w3.org/2000/svg">
<path d="M300 196.44H0V196.59H300V196.44Z" fill="#EBEBEB"/>
<path d="M269.94 206.094H250.068V206.244H269.94V206.094Z" fill="#EBEBEB"/>
<path d="M198.732 207.726H193.518V207.876H198.732V207.726Z" fill="#EBEBEB"/>
<path d="M249.468 200.526H237.954V200.676H249.468V200.526Z" fill="#EBEBEB"/>
<path d="M57.3901 201.534H31.4761V201.684H57.3901V201.534Z" fill="#EBEBEB"/>
<path d="M66.5343 201.534H62.7363V201.684H66.5343V201.534Z" fill="#EBEBEB"/>
<path d="M135.09 204.066H78.8818V204.216H135.09V204.066Z" fill="#EBEBEB"/>
<path d="M142.2 169.68H26.3458C25.4382 169.678 24.5683 169.317 23.9271 168.674C23.2859 168.032 22.9258 167.162 22.9258 166.254V3.396C22.9337 2.49362 23.2973 1.63079 23.9376 0.994931C24.578 0.359075 25.4434 0.00154583 26.3458 0H142.2C143.108 0 143.98 0.360953 144.622 1.00345C145.265 1.64595 145.626 2.51737 145.626 3.426V166.254C145.626 167.163 145.265 168.034 144.622 168.677C143.98 169.319 143.108 169.68 142.2 169.68ZM26.3458 0.12C25.478 0.12159 24.6463 0.467439 24.0332 1.08164C23.4201 1.69583 23.0758 2.52819 23.0758 3.396V166.254C23.0758 167.122 23.4201 167.954 24.0332 168.568C24.6463 169.183 25.478 169.528 26.3458 169.53H142.2C143.068 169.528 143.9 169.183 144.515 168.569C145.129 167.955 145.474 167.122 145.476 166.254V3.396C145.474 2.52764 145.129 1.6953 144.515 1.08127C143.9 0.467244 143.068 0.121587 142.2 0.12H26.3458Z" fill="#EBEBEB"/>
<path d="M271.986 169.68H156.126C155.218 169.678 154.348 169.317 153.705 168.675C153.063 168.033 152.702 167.162 152.7 166.254V3.396C152.71 2.49307 153.075 1.63025 153.716 0.994556C154.357 0.358865 155.223 0.00152897 156.126 0H271.986C272.888 0.0031227 273.751 0.36135 274.39 0.997037C275.03 1.63272 275.392 2.49465 275.4 3.396V166.254C275.4 167.161 275.041 168.03 274.401 168.672C273.761 169.314 272.893 169.677 271.986 169.68ZM156.126 0.12C155.258 0.121587 154.425 0.467244 153.811 1.08127C153.197 1.6953 152.852 2.52764 152.85 3.396V166.254C152.852 167.122 153.197 167.955 153.811 168.569C154.425 169.183 155.258 169.528 156.126 169.53H271.986C272.855 169.528 273.687 169.183 274.301 168.569C274.915 167.955 275.261 167.122 275.262 166.254V3.396C275.261 2.52764 274.915 1.6953 274.301 1.08127C273.687 0.467244 272.855 0.121587 271.986 0.12H156.126Z" fill="#EBEBEB"/>
<path d="M201.24 80.9039C215.009 80.9039 226.17 69.7424 226.17 55.9739C226.17 42.2055 215.009 31.0439 201.24 31.0439C187.472 31.0439 176.31 42.2055 176.31 55.9739C176.31 69.7424 187.472 80.9039 201.24 80.9039Z" fill="#F5F5F5"/>
<path d="M245.73 51.06C245.73 49.9827 245.302 48.9495 244.54 48.1877C243.779 47.426 242.745 46.998 241.668 46.998C241.274 46.9968 240.881 47.0555 240.504 47.172C240.562 46.7585 240.592 46.3415 240.594 45.924C240.596 44.6584 240.319 43.408 239.781 42.2622C239.244 41.1165 238.46 40.1037 237.485 39.2964C236.51 38.4892 235.369 37.9074 234.143 37.5926C232.917 37.2779 231.637 37.2381 230.394 37.476C229.546 36.0837 228.269 35.0047 226.754 34.4018C225.239 33.7988 223.57 33.7045 221.997 34.1331C220.424 34.5617 219.033 35.49 218.034 36.778C217.034 38.066 216.481 39.644 216.456 41.274H216.33C214.528 41.3271 212.818 42.0801 211.562 43.3734C210.306 44.6667 209.604 46.3984 209.604 48.201C209.604 50.0037 210.306 51.7354 211.562 53.0286C212.818 54.3219 214.528 55.075 216.33 55.128H241.8C242.855 55.0937 243.856 54.6498 244.59 53.8904C245.323 53.1311 245.732 52.1159 245.73 51.06Z" fill="#EBEBEB"/>
<path d="M181.566 73.4039C181.566 72.3277 181.139 71.2954 180.378 70.5338C179.618 69.7722 178.586 69.3435 177.51 69.342C177.103 69.3382 176.699 69.3969 176.31 69.5159C176.494 68.2935 176.412 67.0457 176.069 65.8581C175.725 64.6705 175.129 63.5713 174.321 62.6359C173.512 61.7005 172.511 60.9511 171.386 60.4391C170.261 59.9272 169.038 59.6648 167.802 59.6699C167.27 59.6712 166.74 59.7214 166.218 59.8199C165.367 58.4412 164.092 57.3746 162.585 56.7794C161.078 56.1843 159.419 56.0924 157.855 56.5176C156.291 56.9427 154.907 57.8621 153.909 59.1385C152.911 60.4149 152.352 61.9799 152.316 63.5999H152.19C150.388 63.653 148.678 64.406 147.422 65.6993C146.166 66.9926 145.464 68.7243 145.464 70.5269C145.464 72.3296 146.166 74.0613 147.422 75.3546C148.678 76.6479 150.388 77.4009 152.19 77.4539H177.6C178.659 77.4304 179.667 76.9936 180.408 76.2368C181.149 75.4799 181.565 74.4632 181.566 73.4039Z" fill="#EBEBEB"/>
<path d="M69.6002 81.09C69.6002 80.0137 69.173 78.9814 68.4126 78.2198C67.6521 77.4582 66.6204 77.0296 65.5442 77.028C65.1381 77.0257 64.7339 77.0823 64.3442 77.196C64.4066 76.7849 64.4387 76.3698 64.4402 75.954C64.4369 74.6899 64.1557 73.442 63.6165 72.2987C63.0774 71.1554 62.2934 70.1447 61.3202 69.338C60.3469 68.5314 59.2083 67.9486 57.9847 67.631C56.7612 67.3133 55.4829 67.2686 54.2402 67.5C53.3934 66.1058 52.1158 65.0251 50.6005 64.4212C49.0852 63.8173 47.4145 63.7231 45.8409 64.1527C44.2673 64.5824 42.8763 65.5126 41.8782 66.8027C40.88 68.0929 40.3289 69.6729 40.3082 71.304H40.1822C38.3803 71.357 36.67 72.1101 35.4142 73.4033C34.1585 74.6966 33.4561 76.4283 33.4561 78.231C33.4561 80.0336 34.1585 81.7653 35.4142 83.0586C36.67 84.3519 38.3803 85.1049 40.1822 85.158H65.6162C66.6819 85.1406 67.6979 84.7038 68.4437 83.9423C69.1895 83.1807 69.605 82.1559 69.6002 81.09Z" fill="#EBEBEB"/>
<path d="M243.384 100.464C243.384 99.8131 243.126 99.1889 242.666 98.7287C242.205 98.2685 241.581 98.01 240.93 98.01C240.691 98.0098 240.452 98.0441 240.222 98.112C240.33 97.3737 240.277 96.621 240.068 95.9048C239.86 95.1886 239.499 94.5257 239.011 93.9612C238.523 93.3967 237.92 92.9436 237.242 92.6328C236.564 92.322 235.826 92.1608 235.08 92.16C234.76 92.1593 234.441 92.1894 234.126 92.25C233.61 91.4181 232.839 90.7753 231.927 90.4175C231.016 90.0596 230.013 90.0059 229.069 90.2643C228.124 90.5226 227.289 91.0793 226.686 91.8512C226.084 92.6231 225.747 93.5691 225.726 94.548H225.6C224.486 94.548 223.418 94.9904 222.631 95.7781C221.843 96.5658 221.4 97.634 221.4 98.748C221.4 99.8619 221.843 100.93 222.631 101.718C223.418 102.505 224.486 102.948 225.6 102.948H240.972C241.294 102.943 241.611 102.875 241.906 102.748C242.202 102.621 242.469 102.436 242.693 102.206C242.917 101.975 243.093 101.702 243.212 101.404C243.331 101.105 243.389 100.785 243.384 100.464Z" fill="#EBEBEB"/>
<path d="M95.0579 21.5461C95.0609 21.163 94.9735 20.7846 94.8027 20.4416C94.632 20.0986 94.3827 19.8008 94.0753 19.5722C93.7678 19.3436 93.4107 19.1908 93.0331 19.1262C92.6555 19.0615 92.2679 19.0868 91.9019 19.2001C92.0095 18.4618 91.957 17.7091 91.748 16.9929C91.539 16.2767 91.1785 15.6139 90.6907 15.0493C90.203 14.4848 89.5996 14.0317 88.9213 13.721C88.2431 13.4102 87.506 13.2489 86.7599 13.2481C86.4378 13.2475 86.1163 13.2776 85.7999 13.3381C85.2836 12.5062 84.5122 11.8634 83.6008 11.5056C82.6894 11.1478 81.6868 11.094 80.7424 11.3524C79.7979 11.6108 78.9623 12.1674 78.36 12.9393C77.7577 13.7113 77.4209 14.6572 77.3999 15.6361H77.3279C76.214 15.6361 75.1457 16.0786 74.3581 16.8662C73.5704 17.6539 73.1279 18.7222 73.1279 19.8361C73.1279 20.95 73.5704 22.0183 74.3581 22.8059C75.1457 23.5936 76.214 24.0361 77.3279 24.0361H92.6999C93.3403 24.0111 93.9454 23.7366 94.386 23.2713C94.8267 22.806 95.0678 22.1868 95.0579 21.5461Z" fill="#EBEBEB"/>
<path d="M53.916 113.196L70.164 187.002L73.116 185.616L56.052 112.782L53.916 113.196Z" fill="#EBEBEB"/>
<path d="M240.468 186.648C240.468 186.648 230.4 117.3 253.032 45.6L249.486 42.864C249.486 42.864 222.99 97.104 226.848 188.616L240.468 186.648Z" fill="#E6E6E6"/>
<path d="M259.2 26.7479C267.492 21.3119 279.762 29.9579 281.448 43.4699C280.229 42.7672 278.955 42.1652 277.638 41.6699C276.996 38.2679 276.378 35.2619 276.378 35.2619L276.822 41.3639C276.09 41.0999 275.292 40.8419 274.422 40.6079L273.822 37.3259L273.552 40.3919C272.378 40.1177 271.187 39.9173 269.988 39.7919L268.44 30.1919L267.66 39.5999C266.432 39.5658 265.203 39.6199 263.982 39.7619L263.034 33.2459V39.8939C261.983 40.0636 260.945 40.3022 259.926 40.6079L258.792 30.8879C258.792 30.8879 258.822 36.3539 258.762 40.9919C255.828 42.0552 253.115 43.6498 250.758 45.6959L250.668 44.4959C250.668 44.4959 251.622 31.7039 259.2 26.7479Z" fill="#E0E0E0"/>
<path d="M247.734 22.404C241.134 14.994 227.046 20.13 221.892 32.73C223.251 32.3652 224.638 32.1143 226.038 31.98C227.544 28.866 228.93 26.124 228.93 26.124L226.908 31.896C227.682 31.836 228.516 31.8 229.41 31.8L230.82 28.8L230.28 31.83C231.486 31.8628 232.688 31.971 233.88 32.154L237.882 23.31L236.19 32.61C237.386 32.8941 238.559 33.2672 239.7 33.726L242.322 27.684L240.6 34.08C241.573 34.5146 242.513 35.0179 243.414 35.586L247.056 26.496C247.056 26.496 245.592 31.764 244.44 36.252C246.994 38.0483 249.195 40.2999 250.932 42.894L251.334 41.76C251.334 41.76 253.74 29.172 247.734 22.404Z" fill="#E0E0E0"/>
<path d="M241.392 39.9779C247.992 33.5399 252.948 39.1439 252.948 39.1439C250.47 39.7859 248.256 41.3759 246.348 43.3979L245.454 42.2339L245.598 44.2199C245.142 44.7479 244.698 45.2999 244.272 45.8699L242.76 42.4319L243.408 47.0879C242.808 47.9759 242.208 48.8879 241.71 49.7999L241.044 46.3919L241.098 50.9099C240.546 51.9299 240.054 52.9319 239.616 53.8739L238.896 47.6159L238.8 55.7099C237.744 58.2059 237.192 59.9579 237.192 59.9579C237.192 59.9579 234.792 46.4219 241.392 39.9779Z" fill="#E0E0E0"/>
<path d="M259.2 55.1999L257.838 55.9859C257.64 54.9359 257.406 53.8379 257.148 52.7219L258.072 51.0239L256.908 51.7439C256.818 51.3719 256.716 51.0059 256.62 50.6339L257.82 47.3099L256.02 48.6359C255.06 45.6359 253.836 43.0019 252.306 41.7419C252.306 41.7419 267.438 46.5779 258.906 62.8919C258.906 62.8919 258.63 60.3119 258.024 56.9219L259.2 55.1999Z" fill="#E0E0E0"/>
<path d="M244.32 41.8498L241.92 37.2898L242.916 42.0418C242.676 42.0778 242.43 42.1258 242.184 42.1738L239.046 38.2678L239.82 42.7618C238.748 43.0865 237.696 43.4752 236.67 43.9258C235.552 44.427 234.46 44.9858 233.4 45.5998L231.87 41.6098L232.584 46.0738C231.546 46.6738 230.532 47.3518 229.584 48.0358L228.828 44.5198L228.9 48.5218C227.7 49.3858 226.584 50.2618 225.552 51.1198L225.648 44.7478L224.718 51.8218C223.662 52.7218 222.708 53.5858 221.898 54.3538L221.784 49.9318L220.662 55.5478C219.498 56.7058 218.832 57.4438 218.832 57.4438C219.432 41.9698 225.432 35.8438 235.356 34.1638C245.28 32.4838 252.432 42.8098 252.432 42.8098C252.432 42.8098 249.348 41.3458 244.32 41.8498Z" fill="#E0E0E0"/>
<path d="M273.264 60.762L272.358 65.4C271.92 64.254 271.326 62.784 270.558 61.146L271.374 54.396L269.886 59.718C268.723 57.2979 267.375 54.971 265.854 52.758L267.27 48.078L264.978 51.552C264.516 50.952 264.042 50.352 263.55 49.8L264.354 46.854L263.112 49.32C262.776 48.948 262.428 48.594 262.074 48.252L263.052 44.322L261.498 47.724C260.531 46.8394 259.466 46.0684 258.324 45.426L259.902 40.626L257.43 44.982C255.876 44.2529 254.172 43.8974 252.456 43.944C252.456 43.944 255.456 39.144 260.97 37.494C266.484 35.844 278.37 45.828 273.21 67.854C273.21 67.854 273.054 67.356 272.742 66.498L273.264 60.762Z" fill="#E0E0E0"/>
<path d="M264.168 17.964L265.11 20.76C264.763 20.7797 264.417 20.8299 264.078 20.91L262.944 17.268L263.7 21C262.981 21.215 262.294 21.528 261.66 21.93L260.1 17.016L261 22.374C260.748 22.56 260.496 22.764 260.238 22.974L258.474 18.36L259.8 23.4C258.497 24.7051 257.384 26.1878 256.494 27.804L256.032 21L255.252 30.234C253.959 33.1215 252.915 36.1144 252.132 39.18C252.132 39.18 251.172 14.58 257.094 11.82C263.016 9.06002 266.538 20.874 266.538 20.874C266.275 20.7964 266.003 20.7521 265.728 20.742L264.168 17.964Z" fill="#E0E0E0"/>
<path d="M255.708 45.3301L255.18 49.9921L253.38 45.4981L250.98 49.0141L250.032 45.7381L247.26 48.0661C247.26 48.0661 247.602 42.1201 249.372 39.4021C251.142 36.6841 256.458 38.5921 255.708 45.3301Z" fill="#E0E0E0"/>
<path d="M181.8 120.294V87.7859C181.8 87.7859 175.2 94.7999 170.838 93.8399C166.476 92.8799 160.8 96.1979 160.8 96.1979C160.8 96.1979 166.518 95.3639 168.642 97.6859C170.766 100.008 180.246 100.254 180.246 100.254V121.482L181.8 120.294Z" fill="#EBEBEB"/>
<path d="M210.9 110.328H209.4V112.374H204.456V110.328H199.596V112.374H194.652V110.328H189.798V112.374H184.848V110.328H179.994V112.374H175.05V110.328H170.19V112.374H165.246V110.328H160.386V112.374H155.442V110.328H153.78L148.962 148.848L215.88 148.572L210.9 110.328Z" fill="#E0E0E0"/>
<path d="M221.544 138.288H219.486V141.096H212.694V138.288H206.022V141.096H199.224V138.288H192.552V141.096H185.76V138.288H179.088V141.096H172.29V138.288H165.618V141.096H158.82V138.288H152.148V141.096H145.356V138.288H143.07L136.446 191.214L228.396 190.83L221.544 138.288Z" fill="#EBEBEB"/>
<path d="M255.51 184.98C254.088 183.378 252.75 181.74 251.262 180.18C251.185 180.102 251.115 180.018 251.052 179.928C250.562 179.611 250.051 179.328 249.522 179.082C249.426 179.052 249.114 178.926 248.796 178.806C248.196 178.59 247.596 178.356 246.996 178.116C243.27 176.616 239.922 174.876 237.108 171.918C235.566 170.298 234.336 168.408 232.74 166.836C232.698 166.89 232.386 166.722 232.236 166.602L231.036 166.446C230.394 166.446 229.746 166.446 229.104 166.488C228.186 166.53 227.268 166.602 226.35 166.686C222.75 171.918 218.25 179.064 216.258 180.006C213.168 181.47 184.692 189.006 182.592 188.544C180.492 188.082 169.5 188.988 166.74 188.886C163.98 188.784 158.982 187.56 151.74 184.23C144.498 180.9 140.55 180.882 131.832 178.104C123.114 175.326 117.27 174.27 112.17 178.542C107.07 182.814 93.06 173.796 88.692 172.512C84.324 171.228 75.972 163.83 70.272 167.28C64.572 170.73 59.832 172.374 52.71 178.542C45.588 184.71 31.458 196.632 31.458 196.632H272.058L269.292 191.802C266.656 191.641 264.079 190.955 261.712 189.784C259.345 188.612 257.236 186.979 255.51 184.98Z" fill="#F5F5F5"/>
<path d="M25.9082 126C25.9082 126 32.9102 113.4 51.8822 102.528C51.8822 102.528 67.3262 101.214 84.7622 108.816C84.7622 108.816 88.2962 114.684 84.2762 117C80.2562 119.316 76.9262 114.66 76.9262 114.66C76.9262 114.66 76.1822 121.752 70.9262 121.956C65.6702 122.16 64.1462 117 64.1462 117C64.1462 117 63.6302 123.51 57.3722 125.154C51.9602 126.6 48.6002 121.956 48.6002 121.956C48.6002 121.956 47.5202 127.308 42.6542 128.85C38.7422 130.086 36.0542 126.72 36.0542 126.72C36.0542 126.72 34.9322 132.528 30.7802 132.528C27.2102 132.528 25.9082 126 25.9082 126Z" fill="#E0E0E0"/>
<path d="M150 223.536C214.249 223.536 266.334 220.495 266.334 216.744C266.334 212.993 214.249 209.952 150 209.952C85.7505 209.952 33.666 212.993 33.666 216.744C33.666 220.495 85.7505 223.536 150 223.536Z" fill="#F5F5F5"/>
<path d="M230.4 187.146C230.4 187.146 233.01 183.324 235.386 182.256C237.762 181.188 238.146 177.126 239.436 176.904C240.726 176.682 242.148 180.426 244.404 181.518C246.66 182.61 250.074 187.122 250.074 187.122L230.4 187.146Z" fill="#7AA6FF"/>
<path opacity="0.8" d="M230.4 187.146C230.4 187.146 233.01 183.324 235.386 182.256C237.762 181.188 238.146 177.126 239.436 176.904C240.726 176.682 242.148 180.426 244.404 181.518C246.66 182.61 250.074 187.122 250.074 187.122L230.4 187.146Z" fill="white"/>
<path d="M249.372 214.662H230.388L227.988 187.122H251.772L249.372 214.662Z" fill="#7AA6FF"/>
<path d="M252.918 185.694H226.836V188.592H252.918V185.694Z" fill="#7AA6FF"/>
<path opacity="0.2" d="M252.918 185.694H226.836V188.592H252.918V185.694Z" fill="white"/>
<path d="M238.758 187.734C240.486 190.446 247.884 201.636 252.468 202.452L253.032 201.096C253.032 201.096 248.928 201.588 239.832 187.05C239.746 186.909 239.609 186.806 239.45 186.763C239.29 186.719 239.12 186.738 238.974 186.816C238.897 186.86 238.83 186.919 238.777 186.99C238.724 187.06 238.686 187.142 238.666 187.228C238.645 187.314 238.643 187.403 238.659 187.491C238.675 187.578 238.709 187.661 238.758 187.734Z" fill="#263238"/>
<path d="M211.746 179.046C211.941 178.984 212.146 178.962 212.35 178.982C212.553 179.001 212.751 179.06 212.931 179.157C213.111 179.254 213.27 179.386 213.399 179.545C213.527 179.704 213.622 179.887 213.678 180.084L216.918 191.418L221.118 189.732C221.118 189.732 223.656 199.182 218.862 200.676C214.2 202.134 210.6 193.41 210.6 193.41L214.884 192.21L210.792 181.014C210.723 180.822 210.693 180.619 210.704 180.415C210.715 180.212 210.766 180.013 210.855 179.829C210.944 179.646 211.069 179.482 211.222 179.348C211.375 179.213 211.553 179.111 211.746 179.046Z" fill="#7AA6FF"/>
<path opacity="0.4" d="M218.88 200.676C214.2 202.134 210.6 193.41 210.6 193.41L214.884 192.21C214.884 192.21 215.622 193.47 216.45 193.158C217.278 192.846 216.942 191.4 216.942 191.4L221.142 189.714C221.142 189.714 223.674 199.2 218.88 200.676Z" fill="white"/>
<path d="M254.802 216.99C252.444 215.82 250.032 214.716 249.258 214.662C247.602 214.554 246.648 213.816 245.466 212.406C244.284 210.996 243.804 209.364 241.668 207.096C239.532 204.828 241.902 203.916 237.39 203.334C232.878 202.752 234.624 203.118 231.852 201.12C229.08 199.122 229.644 199.128 226.398 197.7C223.152 196.272 225.048 195.732 221.25 195.414C218.628 195.192 214.482 196.572 212.328 198.108C211.374 198.786 210.888 199.908 209.928 200.508C208.866 201.186 207.216 199.908 207.39 202.194C207.506 202.777 207.532 203.373 207.468 203.964C207.162 205.248 201.876 205.242 200.532 205.644C200.212 205.701 199.925 205.877 199.728 206.136C199.422 206.682 199.884 207.648 199.29 207.846C199.104 207.912 198.894 207.846 198.69 207.876C197.976 208.014 198.162 209.298 197.49 209.592C196.818 209.886 196.044 209.286 195.3 209.592C194.73 209.808 194.538 210.576 194.04 210.882C193.17 211.41 192.27 211.8 191.412 212.364C189.924 213.336 188.634 214.53 187.038 215.364L182.766 216.528L181.488 216.978L254.802 216.99Z" fill="#7AA6FF"/>
<path opacity="0.8" d="M254.802 216.99C252.444 215.82 250.032 214.716 249.258 214.662C247.602 214.554 246.648 213.816 245.466 212.406C244.284 210.996 243.804 209.364 241.668 207.096C239.532 204.828 241.902 203.916 237.39 203.334C232.878 202.752 234.624 203.118 231.852 201.12C229.08 199.122 229.644 199.128 226.398 197.7C223.152 196.272 225.048 195.732 221.25 195.414C218.628 195.192 214.482 196.572 212.328 198.108C211.374 198.786 210.888 199.908 209.928 200.508C208.866 201.186 207.216 199.908 207.39 202.194C207.506 202.777 207.532 203.373 207.468 203.964C207.162 205.248 201.876 205.242 200.532 205.644C200.212 205.701 199.925 205.877 199.728 206.136C199.422 206.682 199.884 207.648 199.29 207.846C199.104 207.912 198.894 207.846 198.69 207.876C197.976 208.014 198.162 209.298 197.49 209.592C196.818 209.886 196.044 209.286 195.3 209.592C194.73 209.808 194.538 210.576 194.04 210.882C193.17 211.41 192.27 211.8 191.412 212.364C189.924 213.336 188.634 214.53 187.038 215.364L182.766 216.528L181.488 216.978L254.802 216.99Z" fill="white"/>
<path d="M204.451 206.07C204.453 206.114 204.453 206.158 204.451 206.202C204.433 208.234 203.842 210.22 202.747 211.932C202.657 212.07 202.567 212.208 202.465 212.346C201.835 213.24 201.074 214.035 200.208 214.704C200.016 214.86 199.816 215.006 199.608 215.142C199.561 215.178 199.511 215.21 199.458 215.238L199.261 215.364C199.158 215.434 199.052 215.498 198.943 215.556C198.775 215.652 198.6 215.748 198.426 215.832C196.337 216.884 193.965 217.234 191.661 216.832C189.357 216.43 187.244 215.297 185.635 213.6C184.9 212.842 184.284 211.978 183.805 211.038C183.014 209.499 182.602 207.794 182.605 206.064V206.028C182.605 205.722 182.605 205.428 182.647 205.116C182.764 203.709 183.157 202.339 183.805 201.084C183.964 200.769 184.14 200.462 184.333 200.166C184.961 199.191 185.739 198.32 186.637 197.586C186.922 197.353 187.22 197.136 187.53 196.938C187.639 196.86 187.751 196.788 187.866 196.722C188.725 196.194 189.654 195.79 190.626 195.522L190.879 195.456C191.746 195.24 192.637 195.132 193.53 195.132C193.81 195.132 194.086 195.144 194.358 195.168H194.569C195.782 195.283 196.967 195.604 198.073 196.116L198.211 196.182C199.853 196.959 201.275 198.135 202.347 199.602C203.419 201.069 204.107 202.781 204.348 204.582C204.419 205.075 204.453 205.572 204.451 206.07Z" fill="#7AA6FF"/>
<path opacity="0.6" d="M204.45 206.07C204.452 208.1 203.887 210.09 202.818 211.816C201.75 213.542 200.22 214.935 198.402 215.838C198.153 215.637 197.948 215.385 197.802 215.1C199.818 209.22 197.802 206.07 197.802 206.07V206.01L197.946 205.068V204.894C198.258 203.148 199.044 199.878 200.748 197.898C201.91 198.92 202.841 200.177 203.479 201.586C204.117 202.994 204.448 204.523 204.45 206.07Z" fill="white"/>
<path opacity="0.6" d="M185.154 204.18C185.154 204.18 183.24 206.094 183.804 211.044C182.663 208.817 182.322 206.265 182.838 203.816C183.353 201.368 184.694 199.17 186.636 197.592C185.577 199.622 185.066 201.892 185.154 204.18Z" fill="white"/>
<path opacity="0.2" d="M200.778 197.898C198.378 200.682 197.778 206.07 197.778 206.07C191.178 207.684 185.136 204.18 185.136 204.18C185.048 201.889 185.559 199.614 186.618 197.58C188.628 195.945 191.155 195.078 193.745 195.134C196.336 195.19 198.822 196.165 200.76 197.886L200.778 197.898Z" fill="white"/>
<path opacity="0.2" d="M198.396 215.838C196.31 216.882 193.944 217.228 191.646 216.825C189.348 216.422 187.241 215.292 185.634 213.6C187.68 214.8 191.862 216.522 197.796 215.094C197.942 215.382 198.146 215.635 198.396 215.838Z" fill="white"/>
<g opacity="0.2">
<path d="M198.217 196.2C197.931 196.601 197.669 197.017 197.431 197.448C196.987 198.275 196.604 199.133 196.285 200.016C195.949 200.898 195.685 201.816 195.445 202.71C195.205 203.604 195.001 204.546 194.845 205.476C194.908 204.53 195.04 203.589 195.241 202.662C195.444 201.731 195.704 200.813 196.021 199.914C196.348 199.022 196.749 198.159 197.221 197.334C197.482 196.918 197.766 196.518 198.073 196.134L198.217 196.2Z" fill="black"/>
<path d="M194.569 195.192C194.419 195.462 194.281 195.738 194.149 196.014C193.708 196.945 193.345 197.91 193.063 198.9C192.745 199.884 192.505 200.892 192.277 201.9C192.049 202.908 191.857 203.928 191.677 204.948C191.738 203.909 191.862 202.875 192.049 201.852C192.228 200.827 192.469 199.813 192.769 198.816C193.068 197.812 193.46 196.838 193.939 195.906C194.071 195.66 194.209 195.414 194.353 195.18L194.569 195.192Z" fill="black"/>
<path d="M190.879 195.468L190.693 195.954C190.362 196.845 190.091 197.757 189.883 198.684C189.649 199.608 189.469 200.544 189.283 201.486C189.097 202.428 188.965 203.37 188.827 204.318C188.848 203.358 188.926 202.401 189.061 201.45C189.192 200.491 189.372 199.54 189.601 198.6C189.82 197.66 190.115 196.739 190.483 195.846C190.531 195.738 190.579 195.624 190.633 195.516L190.879 195.468Z" fill="black"/>
<path d="M187.866 196.728C187.662 197.4 187.47 198.072 187.332 198.756C187.194 199.44 187.032 200.292 186.912 201.066C186.792 201.84 186.708 202.62 186.636 203.406C186.595 202.618 186.611 201.828 186.684 201.042C186.76 200.254 186.878 199.471 187.038 198.696C187.172 198.104 187.336 197.519 187.53 196.944C187.639 196.866 187.751 196.794 187.866 196.728Z" fill="black"/>
<path d="M200.868 209.712C200.9 210.842 200.752 211.97 200.43 213.054C200.27 213.594 200.069 214.122 199.83 214.632C199.752 214.806 199.662 214.98 199.572 215.148C199.525 215.184 199.475 215.216 199.422 215.244C199.751 214.52 200.01 213.767 200.196 212.994C200.477 211.926 200.599 210.822 200.556 209.718C200.539 208.614 200.37 207.518 200.052 206.46C199.741 205.391 199.298 204.365 198.732 203.406C199.403 204.317 199.921 205.33 200.268 206.406C200.634 207.472 200.836 208.586 200.868 209.712Z" fill="black"/>
<path d="M203.023 209.4L202.993 210.306L202.867 211.206C202.84 211.45 202.798 211.693 202.741 211.932C202.651 212.07 202.561 212.208 202.459 212.346C202.548 211.961 202.608 211.57 202.639 211.176L202.729 210.288V209.4C202.75 209.102 202.75 208.803 202.729 208.506C202.699 208.212 202.699 207.906 202.645 207.624C202.508 206.443 202.211 205.287 201.763 204.186C201.329 203.073 200.735 202.03 199.999 201.09C200.829 201.965 201.497 202.981 201.973 204.09C202.463 205.201 202.791 206.377 202.945 207.582C202.993 207.882 202.987 208.182 203.011 208.488C203.036 208.791 203.04 209.096 203.023 209.4Z" fill="black"/>
<path d="M204.451 206.07C204.454 206.114 204.454 206.158 204.451 206.202L204.415 205.998C204.16 204.754 203.757 203.546 203.215 202.398C202.683 201.236 201.984 200.158 201.139 199.2C202.072 200.092 202.844 201.14 203.419 202.296C203.8 203.046 204.117 203.827 204.367 204.63C204.429 205.107 204.457 205.589 204.451 206.07Z" fill="black"/>
<path d="M184.621 202.452C184.139 203 183.726 203.604 183.39 204.252C183.079 204.829 182.816 205.431 182.604 206.052C182.604 205.746 182.604 205.452 182.646 205.14C182.807 204.793 182.989 204.456 183.192 204.132C183.567 203.493 184.05 202.924 184.621 202.452Z" fill="black"/>
<path d="M185.137 199.548C184.681 200.064 184.237 200.574 183.805 201.09C183.964 200.775 184.14 200.468 184.333 200.172C184.589 199.949 184.857 199.741 185.137 199.548Z" fill="black"/>
<path d="M185.137 206.496C186.133 206.88 187.141 207.216 188.137 207.516C189.155 207.818 190.188 208.064 191.233 208.254C193.312 208.702 195.465 208.675 197.533 208.176C196.526 208.553 195.463 208.756 194.389 208.776C193.313 208.797 192.238 208.712 191.179 208.524C190.125 208.325 189.086 208.052 188.071 207.708C187.063 207.379 186.083 206.974 185.137 206.496Z" fill="black"/>
<path d="M185.137 209.106C186.139 209.504 187.165 209.84 188.209 210.114C189.249 210.388 190.308 210.589 191.377 210.714C192.442 210.86 193.518 210.91 194.593 210.864L195.397 210.828L196.201 210.732C196.741 210.696 197.257 210.54 197.797 210.462C196.763 210.803 195.691 211.017 194.605 211.098C193.517 211.175 192.423 211.147 191.341 211.014C190.26 210.871 189.193 210.642 188.149 210.33C187.108 210.02 186.099 209.61 185.137 209.106Z" fill="black"/>
<path d="M185.4 211.362C186.344 211.802 187.321 212.167 188.322 212.454C189.32 212.739 190.339 212.94 191.37 213.054C191.886 213.138 192.402 213.15 192.918 213.186C193.434 213.222 193.956 213.186 194.478 213.156C195.517 213.097 196.549 212.949 197.562 212.712C196.571 213.061 195.542 213.288 194.496 213.39C193.444 213.495 192.384 213.483 191.334 213.354C190.288 213.225 189.257 212.991 188.256 212.658C187.258 212.337 186.3 211.902 185.4 211.362Z" fill="black"/>
<path d="M185.851 213.06C186.741 213.471 187.662 213.814 188.605 214.086C189.542 214.366 190.501 214.567 191.473 214.686C192.442 214.83 193.423 214.868 194.401 214.8L195.133 214.746L195.853 214.626C196.345 214.578 196.807 214.41 197.293 214.314C196.372 214.685 195.405 214.928 194.419 215.034C193.422 215.153 192.415 215.153 191.419 215.034C190.433 214.908 189.462 214.685 188.521 214.368C187.583 214.037 186.687 213.598 185.851 213.06Z" fill="black"/>
</g>
<path d="M68.2739 188.904C68.2739 188.904 70.4099 185.694 74.2079 185.46C78.0059 185.226 81.2099 190.068 81.2099 190.068H80.0099C80.0099 190.068 76.9439 186.762 74.7479 186.762C72.5519 186.762 70.4159 189.492 70.4159 189.492L68.2739 188.904Z" fill="#263238"/>
<path d="M36.0479 214.236C37.3619 212.046 52.0798 213.468 55.4038 212.16L57.2038 215.25C57.2038 215.25 54.6658 216.654 50.4538 216.156C46.2418 215.658 39.8758 215.526 38.2138 216.99L36.0479 214.236Z" fill="#263238"/>
<path opacity="0.3" d="M36.0479 214.236C37.3619 212.046 52.0798 213.468 55.4038 212.16L57.2038 215.25C57.2038 215.25 54.6658 216.654 50.4538 216.156C46.2418 215.658 39.8758 215.526 38.2138 216.99L36.0479 214.236Z" fill="black"/>
<path d="M98.04 207.558C97.92 208.08 97.788 208.59 97.638 209.088C96.438 213.174 94.59 216.48 93.246 216.99H55.092C54.5673 216.99 54.0496 216.87 53.5785 216.639C53.1074 216.408 52.6954 216.073 52.374 215.658L52.344 215.616C52.2031 215.43 52.0843 215.229 51.99 215.016C49.356 209.514 46.698 198.51 50.436 193.494C50.827 192.971 51.2781 192.496 51.78 192.078L51.888 191.994C52.6797 191.348 53.5557 190.813 54.492 190.404H54.522C57.15 189.204 60.378 188.67 63.522 188.436C64.44 188.364 65.322 188.322 66.246 188.304C68.586 188.238 70.77 188.304 72.51 188.346C78.642 188.502 83.466 190.326 86.754 190.008C87.9615 189.882 89.1819 189.979 90.354 190.296C90.6915 190.391 91.024 190.503 91.35 190.632C92.8463 191.264 94.2381 192.12 95.478 193.17C99.234 196.152 99.288 202.266 98.04 207.558Z" fill="#263238"/>
<path opacity="0.1" d="M98.04 207.558C97.92 208.08 97.788 208.59 97.638 209.088C96.438 213.174 94.59 216.48 93.246 216.99H55.092C54.5673 216.99 54.0496 216.87 53.5785 216.639C53.1074 216.408 52.6954 216.073 52.374 215.658L52.344 215.616C52.2031 215.43 52.0843 215.229 51.99 215.016C49.356 209.514 46.698 198.51 50.436 193.494C50.827 192.971 51.2781 192.496 51.78 192.078L51.888 191.994C52.6797 191.348 53.5557 190.813 54.492 190.404H54.522C57.15 189.204 60.378 188.67 63.522 188.436C64.44 188.364 65.322 188.322 66.246 188.304C68.586 188.238 70.77 188.304 72.51 188.346C78.642 188.502 83.466 190.326 86.754 190.008C87.9615 189.882 89.1819 189.979 90.354 190.296C90.6915 190.391 91.024 190.503 91.35 190.632C92.8463 191.264 94.2381 192.12 95.478 193.17C99.234 196.152 99.288 202.266 98.04 207.558Z" fill="white"/>
<path opacity="0.2" d="M92.196 207.18C89.466 207.18 84.006 208.482 75.936 206.706C72.1735 205.812 68.2572 205.783 64.482 206.622C64.392 205.422 64.296 204.084 64.188 202.632C63.474 192.882 57.912 188.79 54.522 190.41H54.492C53.5722 190.85 52.6997 191.383 51.888 192L51.78 192.084C51.2781 192.501 50.827 192.977 50.436 193.5C46.698 198.516 49.356 209.52 51.99 215.022C52.0843 215.235 52.2031 215.436 52.344 215.622L52.374 215.664C52.6983 216.031 53.0972 216.326 53.5441 216.528C53.9909 216.729 54.4757 216.834 54.966 216.834H61.8C64.59 216.834 64.92 214.278 64.608 208.788C65.082 208.518 65.664 208.188 66.312 207.744C68.01 206.64 74.616 207.186 77.466 208.254C80.316 209.322 87.792 209.796 91.41 209.208C93.4684 208.902 95.5577 208.864 97.626 209.094C97.776 208.596 97.908 208.086 98.028 207.564C96.792 207.426 94.2 207.18 92.196 207.18Z" fill="black"/>
<path opacity="0.2" d="M67.392 193.41C69.054 199.464 70.194 201.6 70.632 202.194C71.07 202.788 83.154 204.222 85.422 204.216C88.0397 204.193 90.6501 203.936 93.222 203.448C94.764 203.058 95.262 195.294 91.374 190.638C91.048 190.509 90.7155 190.397 90.378 190.302C92.496 195.054 92.544 200.874 92.292 201.702C91.932 202.854 88.374 202.686 86.712 202.65C85.05 202.614 74.712 201.972 73.656 201.552C72.6363 201.129 71.7684 200.407 71.166 199.482C70.332 198.414 70.218 194.736 68.712 191.562C68.0727 190.356 67.2396 189.264 66.246 188.328C65.352 188.328 64.446 188.388 63.522 188.46C64.4708 188.977 65.3037 189.683 65.9693 190.534C66.6348 191.386 67.119 192.364 67.392 193.41Z" fill="black"/>
<path d="M55.4038 198.984L52.0799 199.8C52.0799 199.8 49.7219 206.568 51.1319 209.4C52.5419 212.232 41.5319 216.174 36.0479 214.2L38.1959 216.954C38.1959 216.954 51.2519 216.132 53.7419 211.164C56.2319 206.196 52.6739 205.428 52.4399 204.03C52.2059 202.632 55.4038 198.984 55.4038 198.984Z" fill="#263238"/>
<path opacity="0.1" d="M55.4038 198.984L52.0799 199.8C52.0799 199.8 49.7219 206.568 51.1319 209.4C52.5419 212.232 41.5319 216.174 36.0479 214.2L38.1959 216.954C38.1959 216.954 51.2519 216.132 53.7419 211.164C56.2319 206.196 52.6739 205.428 52.4399 204.03C52.2059 202.632 55.4038 198.984 55.4038 198.984Z" fill="white"/>
<path d="M84.762 59.3998C84.762 59.3998 71.922 52.1998 69.264 50.3518C66.606 48.5038 52.386 34.5418 51.594 34.1518C51.594 34.1518 52.122 32.5558 50.928 31.6258C49.734 30.6958 45.078 27.6418 44.418 27.6418C43.758 27.6418 42.018 34.1518 42.288 35.7478C42.558 37.3438 49.068 37.7398 49.068 37.7398C49.068 37.7398 62.622 53.5198 64.746 55.7398C66.87 57.9598 81.354 67.3858 81.354 67.3858L84.762 59.3998Z" fill="#E4897B"/>
<path d="M90.0299 60.7256C90.0299 60.7256 92.8439 66.4076 86.0099 75.4316L70.9438 64.3556L76.9439 53.4656L90.0299 60.7256Z" fill="#7AA6FF"/>
<path opacity="0.6" d="M86.0102 75.4316L78.8942 70.1996L77.9642 69.5156L73.9502 66.5996L70.9502 64.3856L73.1642 60.3836L74.4002 58.0796L76.9502 53.4656L79.4102 54.8336L81.5342 56.0336L90.0182 60.7496C90.2968 61.4082 90.4689 62.1069 90.5282 62.8196C90.8102 65.2136 90.4022 69.6296 86.0102 75.4316Z" fill="white"/>
<path opacity="0.2" d="M86.01 75.4319L78.894 70.1999C81.336 65.1479 87.654 63.3659 90.54 62.7959C90.81 65.2139 90.402 69.6299 86.01 75.4319Z" fill="black"/>
<g opacity="0.2">
<path d="M81.5459 56.0097L79.4219 57.2457V54.8337L81.5459 56.0097Z" fill="white"/>
<path d="M76.9262 58.8236L74.2622 62.5616L73.1582 60.3536L74.4122 58.0796L76.9262 58.8236Z" fill="white"/>
<path d="M78.8942 64.4458L77.9642 69.5158L73.9502 66.5698L78.8942 64.4458Z" fill="white"/>
<path d="M80.7363 61.5538L82.2183 65.3518L85.2963 61.1638L80.7363 61.5538Z" fill="white"/>
</g>
<path d="M118.032 58.0378C118.032 58.0378 130.872 50.8378 133.53 48.9898C136.188 47.1418 150.408 33.1798 151.206 32.7898C151.206 32.7898 150.672 31.1938 151.866 30.2638C153.06 29.3338 157.716 26.2798 158.376 26.2798C159.036 26.2798 160.776 32.7898 160.506 34.3858C160.236 35.9818 153.726 36.3778 153.726 36.3778C153.726 36.3778 140.172 52.1638 138.048 54.3778C135.924 56.5918 121.44 65.9998 121.44 65.9998L118.032 58.0378Z" fill="#E4897B"/>
<path d="M102.69 134.07C102.69 134.07 102.414 138.6 102 144.66C101.724 148.428 101.4 152.778 101.01 156.984C100.506 162.636 99.936 168.024 99.366 171.384C98.844 174.462 91.914 212.688 91.914 212.688H87.27C88.734 177.042 91.002 163.218 91.086 161.142C91.086 160.464 91.14 159.522 91.17 158.4C91.26 154.332 91.338 147.906 91.386 143.232C91.422 139.86 91.44 137.406 91.44 137.406L102.69 134.07Z" fill="#E4897B"/>
<path d="M120.6 162.912C120.438 166.026 118.584 212.52 118.584 212.52H113.478C110.868 175.488 111.858 162.63 111.39 160.062C110.592 155.694 109.842 149.952 109.326 145.662C108.912 142.236 108.654 139.77 108.654 139.77L119.064 135.27C119.064 135.27 119.694 140.67 120.168 147.138C120.402 150.378 120.606 153.9 120.666 157.176C120.714 159.228 120.702 161.184 120.6 162.912Z" fill="#E4897B"/>
<path opacity="0.2" d="M91.362 143.22L102 144.66C101.724 148.428 101.4 152.778 101.01 156.984L91.146 158.4C91.236 154.32 91.314 147.894 91.362 143.22Z" fill="black"/>
<path opacity="0.2" d="M120.672 157.2L111.396 160.056C110.598 155.688 109.848 149.946 109.332 145.656L120.174 147.132C120.408 150.378 120.6 153.9 120.672 157.2Z" fill="black"/>
<path d="M93.0001 211.248H86.8621C86.7616 211.249 86.6644 211.284 86.5861 211.347C86.5078 211.41 86.4529 211.498 86.4301 211.596L85.4401 216.084C85.3992 216.276 85.4361 216.477 85.543 216.643C85.6498 216.808 85.8178 216.924 86.0101 216.966C86.066 216.972 86.1223 216.972 86.1781 216.966C88.1581 216.936 89.6041 216.81 92.0881 216.81C93.6241 216.81 98.2501 216.972 100.362 216.972C102.474 216.972 102.762 214.884 101.892 214.686C98.0041 213.84 95.0761 212.67 93.8341 211.554C93.6055 211.349 93.307 211.239 93.0001 211.248Z" fill="#7AA6FF"/>
<path d="M118.968 211.092H112.842C112.742 211.091 112.644 211.124 112.565 211.186C112.487 211.249 112.432 211.336 112.41 211.434L111.414 215.928C111.395 216.025 111.395 216.125 111.415 216.222C111.435 216.32 111.474 216.412 111.53 216.494C111.586 216.576 111.657 216.646 111.74 216.7C111.823 216.755 111.916 216.792 112.014 216.81H112.176C114.162 216.78 115.602 216.66 118.092 216.66C119.622 216.66 124.248 216.816 126.366 216.816C128.484 216.816 128.766 214.728 127.89 214.536C124.002 213.69 121.08 212.514 119.838 211.398C119.72 211.292 119.583 211.21 119.434 211.158C119.284 211.105 119.126 211.083 118.968 211.092Z" fill="#7AA6FF"/>
<path d="M103.11 154.362C103.158 153.954 103.206 153.528 103.254 153.048C103.854 146.904 104.508 139.53 105.054 132.426C107.124 137.994 108.018 145.824 109.098 154.362H121.698C120.654 132.264 117.918 114.288 116.466 106.62H89.742C89.706 109.368 89.4 136.02 88.71 154.362H103.11Z" fill="#263238"/>
<path opacity="0.2" d="M103.11 154.362C103.158 153.954 103.206 153.528 103.254 153.048C103.854 146.904 104.508 139.53 105.054 132.426C107.124 137.994 108.018 145.824 109.098 154.362H121.698C120.654 132.264 117.918 114.288 116.466 106.62H89.742C89.706 109.368 89.4 136.02 88.71 154.362H103.11Z" fill="white"/>
<path d="M106.8 51.8938C106.741 52.1357 106.669 52.3741 106.584 52.6078C106.106 53.942 105.236 55.1007 104.088 55.9318C103.799 56.1436 103.494 56.3322 103.176 56.4958C101.959 57.1467 100.563 57.3817 99.1999 57.1651C97.8371 56.9484 96.5826 56.2919 95.6277 55.2958C93.1017 52.7458 93.1677 49.7998 92.8797 44.8138C92.8036 43.7424 92.9782 42.668 93.3897 41.6758C93.7339 40.8476 94.2378 40.0953 94.8728 39.4619C95.5078 38.8285 96.2614 38.3264 97.0905 37.9842C97.9196 37.6421 98.8079 37.4667 99.7048 37.468C100.602 37.4693 101.49 37.6473 102.318 37.9918C107.19 39.9838 107.862 47.3998 106.8 51.8938Z" fill="#E4897B"/>
<path opacity="0.2" d="M104.07 55.9317C103.781 56.1435 103.476 56.3321 103.158 56.4958C102.322 56.9412 101.398 57.194 100.452 57.2355C99.5063 57.277 98.5631 57.1063 97.6919 56.7357C97.9176 56.1364 98.218 55.5679 98.5859 55.0438C100.461 54.8086 102.365 55.1168 104.07 55.9317Z" fill="black"/>
<path d="M94.0322 62.3999C96.4922 64.6319 102.51 63.8099 102.51 63.8099C102.51 63.8099 106.266 62.7779 105.474 61.6079C103.266 61.2419 102.192 60.2099 101.748 58.8839C101.509 58.0648 101.433 57.2063 101.526 56.3579C101.562 55.8848 101.624 55.4141 101.712 54.9479L94.2722 49.4399C95.2442 53.0759 96.4382 59.7659 94.0322 62.3999Z" fill="#E4897B"/>
<path d="M104.07 47.3579L105.144 47.7599L104.61 45.5639C104.61 45.5639 106.182 43.1639 104.61 41.0819C104.61 41.0819 108.954 39.7619 106.5 37.4819C105.588 36.6299 104.454 37.4819 101.454 36.1799C99.8278 35.4659 94.7398 35.4119 94.4878 37.4819C94.4878 37.4819 90.8219 37.4819 90.4259 43.7219C90.3101 45.5501 90.5978 47.3814 91.2687 49.0861C91.9395 50.7907 92.9771 52.3269 94.3078 53.5859C94.3078 53.5859 98.7358 54.6299 100.908 52.8539C103.08 51.0779 104.07 47.3579 104.07 47.3579Z" fill="#263238"/>
<path d="M101.238 47.7116C101.332 48.1807 101.529 48.623 101.816 49.006C102.102 49.3891 102.471 49.7033 102.894 49.9256C103.908 50.3576 104.58 48.9296 104.43 47.4296C104.292 46.0976 103.602 44.2256 102.516 44.4776C101.43 44.7296 100.884 46.3676 101.238 47.7116Z" fill="#E4897B"/>
<path opacity="0.2" d="M105.078 132.396C104.508 139.5 103.878 146.892 103.278 153.036C102.366 144.162 101.25 137.838 101.25 137.838C101.25 137.838 100.206 136.98 97.332 132.396C94.458 127.812 97.332 119.244 97.332 119.244C97.2 127.2 105.078 132.396 105.078 132.396Z" fill="black"/>
<path d="M122.628 153.324L122.076 155.406H108.66V153.48L122.628 153.324Z" fill="#7AA6FF"/>
<path d="M103.758 153.612L103.356 155.538H88.1641L87.2461 153.612H103.758Z" fill="#7AA6FF"/>
<path d="M105.63 60.9538C105.63 60.9538 103.446 57.5038 97.944 57.2578C92.442 57.0118 92.022 60.7978 92.022 60.7978L105.63 60.9538Z" fill="#7AA6FF"/>
<path opacity="0.5" d="M105.63 60.9538C105.63 60.9538 103.446 57.5038 97.944 57.2578C92.442 57.0118 92.022 60.7978 92.022 60.7978L105.63 60.9538Z" fill="white"/>
<path d="M85.872 58.7998C87.5316 77.4795 87.3306 96.2779 85.272 114.918L117.51 112.95C117.15 80.0518 112.74 59.3278 112.74 59.3278C112.74 59.3278 104.43 61.0738 97.668 60.8218C93.6677 60.6361 89.7057 59.9569 85.872 58.7998Z" fill="#7AA6FF"/>
<path d="M112.764 59.3519C112.764 59.3519 117.072 69.4199 117.534 79.6079C117.996 89.7959 100.038 103.8 100.038 103.8C100.038 103.8 86.1957 94.2719 75.5157 95.1359C64.8357 95.9999 61.5117 99.7979 61.5117 99.7979C61.5117 99.7979 69.8157 82.0319 84.2757 75.8399C84.2757 75.8399 81.2757 65.6099 85.8717 58.8479C85.8717 58.7999 95.8677 62.0759 112.764 59.3519Z" fill="#7AA6FF"/>
<path opacity="0.6" d="M117.534 79.6078C117.549 79.8956 117.549 80.184 117.534 80.4718C117.509 80.9169 117.455 81.3599 117.372 81.7978C117.176 82.8283 116.869 83.8343 116.454 84.7978C115.172 87.6178 113.499 90.2435 111.486 92.5978C110.466 93.8458 109.386 95.0458 108.318 96.1618C105.731 98.8895 102.965 101.441 100.038 103.8C96.4027 101.393 92.5378 99.3535 88.4999 97.7098C87.2699 97.2178 85.9919 96.7558 84.6899 96.3658C81.733 95.4086 78.6256 95.0019 75.5219 95.1658C72.5595 95.363 69.6341 95.9356 66.8159 96.8698C66.3299 97.0378 65.8799 97.2178 65.4659 97.3918L65.0939 97.5538C64.1922 97.9448 63.3319 98.4252 62.5259 98.9878C62.4359 99.0478 62.3519 99.1138 62.2739 99.1738C62.1959 99.2338 61.9919 99.3898 61.8839 99.4858L61.7399 99.6118C61.7032 99.6408 61.669 99.6729 61.6379 99.7078L61.5659 99.7798L61.5239 99.8218C61.5239 99.7918 61.5959 99.6658 61.7039 99.4498L61.8719 99.1198C62.0399 98.7838 62.2739 98.3338 62.5799 97.7878L62.7119 97.5478L62.9459 97.1338C63.0239 96.9898 63.1079 96.8398 63.1979 96.6898C63.5459 96.0898 63.9539 95.3938 64.3979 94.6558C66.8643 90.6649 69.7837 86.9724 73.0979 83.6518C74.2796 82.4769 75.5298 81.3729 76.8419 80.3458C79.1098 78.5408 81.6027 77.0382 84.2579 75.8758C83.5696 73.241 83.2565 70.5221 83.3279 67.7998C83.3454 66.9423 83.4156 66.0867 83.5379 65.2378C83.8131 62.9415 84.6116 60.739 85.8719 58.7998C87.3463 59.2284 88.8504 59.5473 90.3719 59.7538C92.3603 60.0571 94.3629 60.2573 96.3719 60.3538C100.413 60.5347 104.462 60.3922 108.48 59.9278C109.848 59.7798 111.27 59.5798 112.746 59.3278L112.884 59.6638C113.839 62.0591 114.662 64.5047 115.35 66.9898C115.614 67.9438 115.878 68.9638 116.13 70.0318C116.382 71.0998 116.574 72.0538 116.766 73.1158C117.163 75.2608 117.419 77.4294 117.534 79.6078Z" fill="white"/>
<g opacity="0.2">
<path d="M113.4 87.7859L111.504 92.6339C110.484 93.8819 109.404 95.0819 108.336 96.1979L104.478 88.9979L113.4 87.7859Z" fill="white"/>
<path d="M80.7357 83.1539L73.1157 83.5919C74.2974 82.417 75.5476 81.313 76.8597 80.2859L80.7357 83.1539Z" fill="white"/>
<path d="M89.5256 63.9597L88.7096 71.8797L83.3096 67.7937C83.3271 66.9362 83.3972 66.0806 83.5196 65.2317L89.5256 63.9597Z" fill="white"/>
<path d="M92.0219 84.8279L89.5259 77.2199L97.1159 75.8159L92.0219 84.8279Z" fill="white"/>
<path d="M105.078 77.5798V83.2738L110.526 81.3178L105.078 77.5798Z" fill="white"/>
<path d="M91.0618 94.0738L88.4998 97.6738C87.2698 97.1818 85.9918 96.7198 84.6898 96.3298L82.7578 91.9258L91.0618 94.0738Z" fill="white"/>
<path d="M71.5977 88.6138L75.5157 90.2758L71.5977 92.9458V88.6138Z" fill="white"/>
<path d="M66.8097 96.8158C62.9097 98.1778 61.5117 99.7738 61.5117 99.7738C62.3824 97.9981 63.3499 96.2715 64.4097 94.6018L66.8097 96.8158Z" fill="white"/>
<path d="M98.8256 89.4478L95.4536 92.9458L100.554 93.8397L98.8256 89.4478Z" fill="white"/>
<path d="M98.8257 67.4878L102.792 72.8278L105.63 66.7798L98.8257 67.4878Z" fill="white"/>
<path d="M116.784 73.1399L111.714 69.8039L115.368 67.0139C115.884 68.8619 116.4 70.9439 116.784 73.1399Z" fill="white"/>
<path d="M117.528 80.4719C117.418 81.9729 117.053 83.4441 116.448 84.8219L114.324 79.5959L117.528 80.4719Z" fill="white"/>
<path d="M112.902 59.6878L109.692 62.9998L108.492 59.9518C109.86 59.8038 111.282 59.6038 112.758 59.3518L112.902 59.6878Z" fill="white"/>
<path d="M96.3896 60.3598L94.0316 65.3518L90.3716 59.7778C92.3662 60.0757 94.3749 60.27 96.3896 60.3598Z" fill="white"/>
</g>
<path opacity="0.2" d="M117.534 79.6078C117.549 79.8956 117.549 80.184 117.534 80.4718C117.509 80.9168 117.455 81.3598 117.372 81.7978C113.172 75.1378 114.168 69.1138 114.168 69.1138L116.154 70.0558C116.382 71.0458 116.598 72.0778 116.79 73.1398C117.178 75.2774 117.426 77.4379 117.534 79.6078Z" fill="black"/>
<path d="M100.518 32.8378C107.64 30.3838 109.428 39.8698 102.354 46.2838C95.2802 52.6978 87.1562 53.4838 86.2322 50.2318C85.3082 46.9798 89.6462 36.5998 100.518 32.8378Z" fill="#7AA6FF"/>
<path d="M93.3843 32.3579C97.0383 32.3579 102.228 36.0779 102.228 36.0779C102.228 36.0779 102.972 40.0379 99.3303 43.5179C95.6883 46.9979 92.4003 47.5499 90.3723 46.1999C88.3443 44.8499 87.7803 39.5999 87.7803 39.5999C87.9652 38.9789 88.2974 38.4118 88.7487 37.9469C89.2 37.482 89.757 37.1331 90.3723 36.9299C90.3723 36.9299 90.9723 32.3999 93.3843 32.3579Z" fill="#7AA6FF"/>
<path opacity="0.2" d="M99.3303 43.5178C95.6883 46.9978 92.4123 47.5498 90.3723 46.2058C90.0167 45.9563 89.7148 45.638 89.4843 45.2698C88.1643 43.2838 87.7803 39.6178 87.7803 39.6178C91.2603 43.8178 95.2923 39.4798 95.8503 36.5518C96.0155 35.8564 96.0175 35.1321 95.8562 34.4357C95.6948 33.7394 95.3745 33.0898 94.9203 32.5378C97.3203 33.0538 99.9483 34.5898 101.304 35.4598C101.904 35.8258 102.228 36.0598 102.228 36.0598C102.228 36.0598 102.972 40.0378 99.3303 43.5178Z" fill="black"/>
<path opacity="0.6" d="M99.3304 43.5177C95.6884 46.9977 92.4124 47.5497 90.3724 46.2057C90.0168 45.9562 89.7149 45.6379 89.4844 45.2697C93.1324 46.3557 97.4764 44.5497 99.8104 41.3037C101.048 39.6234 101.584 37.5278 101.304 35.4597C101.904 35.8257 102.228 36.0597 102.228 36.0597C102.228 36.0597 102.972 40.0377 99.3304 43.5177Z" fill="white"/>
<path d="M112.764 59.3519C112.764 59.3519 109.95 65.0399 116.784 74.0579L131.85 62.9999L125.85 52.1099L112.764 59.3519Z" fill="#7AA6FF"/>
<path opacity="0.6" d="M131.85 63L127.92 65.886L122.106 70.164L116.784 74.076C116.436 73.62 116.118 73.17 115.818 72.732C115.209 71.8394 114.655 70.9096 114.162 69.948C112.945 67.7143 112.273 65.2247 112.2 62.682C112.159 61.5419 112.364 60.4063 112.8 59.352L116.148 57.492L121.914 54.294L124.446 52.884L125.874 52.092L131.85 63Z" fill="white"/>
<g opacity="0.2">
<path d="M127.92 65.8683L122.106 70.1463L119.544 64.4463L127.92 65.8683Z" fill="white"/>
<path d="M127.38 56.7L122.016 58.824L121.878 54.294L124.41 52.884L127.38 56.7Z" fill="white"/>
<path d="M118.032 61.1639L112.2 62.6819C112.159 61.5418 112.364 60.4062 112.8 59.3519L116.148 57.4919L118.032 61.1639Z" fill="white"/>
<path d="M116.784 68.4421L115.8 72.7141C115.19 71.8215 114.637 70.8917 114.144 69.9301L116.784 68.4421Z" fill="white"/>
</g>
<path d="M153.864 161.766L144.6 161.034L147.66 121.968L156.954 122.694L153.864 161.766ZM146.502 159.366L152.208 159.81L154.986 124.332L149.286 123.888L146.502 159.366Z" fill="#263238"/>
<path d="M147.462 212.124L148.662 212.22C148.996 212.215 149.327 212.28 149.635 212.411C149.942 212.542 150.219 212.735 150.448 212.979C150.676 213.223 150.851 213.511 150.962 213.827C151.072 214.142 151.115 214.477 151.089 214.81C151.063 215.143 150.967 215.467 150.808 215.761C150.649 216.055 150.431 216.312 150.167 216.517C149.903 216.722 149.599 216.869 149.275 216.949C148.95 217.03 148.613 217.042 148.284 216.984L147.084 216.888C146.75 216.894 146.418 216.83 146.11 216.7C145.802 216.569 145.524 216.376 145.295 216.133C145.066 215.889 144.891 215.601 144.78 215.285C144.669 214.97 144.625 214.635 144.651 214.302C144.677 213.968 144.772 213.644 144.931 213.35C145.089 213.056 145.308 212.798 145.572 212.593C145.836 212.388 146.14 212.24 146.464 212.16C146.789 212.079 147.126 212.067 147.456 212.124H147.462Z" fill="#263238"/>
<path opacity="0.1" d="M144.852 214.272C144.813 214.753 144.917 215.234 145.152 215.655C145.387 216.076 145.741 216.418 146.171 216.638C146.6 216.857 147.085 216.945 147.564 216.888C148.043 216.832 148.494 216.635 148.861 216.322C149.228 216.009 149.493 215.594 149.624 215.13C149.755 214.666 149.745 214.174 149.596 213.715C149.447 213.257 149.165 212.853 148.786 212.555C148.407 212.256 147.948 212.077 147.468 212.04C147.149 212.011 146.827 212.045 146.521 212.142C146.216 212.239 145.933 212.396 145.689 212.604C145.445 212.812 145.245 213.067 145.101 213.354C144.958 213.64 144.873 213.952 144.852 214.272Z" fill="white"/>
<path d="M140.91 211.614L142.11 211.704C142.444 211.698 142.776 211.763 143.084 211.893C143.392 212.023 143.669 212.216 143.898 212.459C144.127 212.703 144.303 212.992 144.414 213.307C144.525 213.622 144.569 213.957 144.543 214.291C144.517 214.624 144.421 214.948 144.263 215.242C144.104 215.537 143.886 215.794 143.622 215.999C143.358 216.204 143.054 216.352 142.729 216.433C142.405 216.513 142.067 216.525 141.738 216.468L140.538 216.378C140.204 216.384 139.872 216.319 139.564 216.189C139.256 216.059 138.979 215.866 138.749 215.623C138.52 215.379 138.345 215.091 138.234 214.775C138.123 214.46 138.079 214.125 138.105 213.792C138.131 213.458 138.226 213.134 138.385 212.84C138.544 212.545 138.762 212.288 139.026 212.083C139.29 211.878 139.594 211.73 139.918 211.649C140.243 211.569 140.581 211.557 140.91 211.614Z" fill="#263238"/>
<path opacity="0.2" d="M138.3 213.762C138.262 214.243 138.368 214.723 138.603 215.144C138.839 215.564 139.194 215.905 139.624 216.124C140.053 216.343 140.538 216.429 141.016 216.372C141.495 216.315 141.946 216.117 142.312 215.804C142.678 215.491 142.943 215.076 143.074 214.612C143.204 214.148 143.194 213.656 143.044 213.197C142.895 212.739 142.613 212.336 142.234 212.038C141.855 211.74 141.396 211.561 140.916 211.524C140.273 211.476 139.637 211.684 139.147 212.104C138.656 212.523 138.352 213.119 138.3 213.762Z" fill="white"/>
<path d="M139.818 212.334L149.101 213.062C149.99 213.131 150.767 212.467 150.837 211.579L155.257 155.154C155.327 154.265 154.663 153.488 153.774 153.418L144.491 152.691C143.602 152.621 142.825 153.285 142.756 154.174L138.335 210.599C138.265 211.488 138.929 212.265 139.818 212.334Z" fill="#263238"/>
<path opacity="0.2" d="M144.453 212.689L149.106 213.054C149.995 213.123 150.772 212.46 150.841 211.571L155.262 155.146C155.332 154.257 154.668 153.48 153.779 153.411L149.126 153.046C148.237 152.976 147.46 153.64 147.39 154.529L142.97 210.954C142.9 211.843 143.564 212.62 144.453 212.689Z" fill="white"/>
<path d="M148.094 123.276L155.924 123.903C156.586 123.956 157.167 123.462 157.22 122.799L157.279 122.061C157.332 121.398 156.837 120.818 156.175 120.765L148.345 120.138C147.682 120.085 147.102 120.58 147.049 121.242L146.99 121.98C146.937 122.643 147.431 123.223 148.094 123.276Z" fill="#263238"/>
<path opacity="0.2" d="M148.094 123.276L155.924 123.903C156.586 123.956 157.167 123.462 157.22 122.799L157.279 122.061C157.332 121.398 156.837 120.818 156.175 120.765L148.345 120.138C147.682 120.085 147.102 120.58 147.049 121.242L146.99 121.98C146.937 122.643 147.431 123.223 148.094 123.276Z" fill="white"/>
<path opacity="0.2" d="M148.273 124.056L148.925 124.107C149.586 124.158 150.163 123.665 150.215 123.004L150.273 122.268C150.324 121.607 149.831 121.03 149.17 120.978L148.518 120.927C147.857 120.876 147.28 121.369 147.228 122.03L147.17 122.766C147.119 123.427 147.612 124.004 148.273 124.056Z" fill="black"/>
<path d="M172.524 159.384L168.528 210.384C168.458 211.285 168.033 212.12 167.346 212.708C166.66 213.295 165.769 213.586 164.868 213.516L146.268 212.058C145.638 212.005 145.054 211.704 144.643 211.222C144.233 210.74 144.03 210.115 144.078 209.484L148.2 156.462C148.252 155.832 148.551 155.247 149.032 154.836C149.513 154.424 150.137 154.22 150.768 154.266L169.368 155.724C169.816 155.756 170.253 155.876 170.655 156.078C171.056 156.279 171.414 156.558 171.707 156.898C172 157.238 172.224 157.633 172.364 158.06C172.504 158.486 172.559 158.936 172.524 159.384Z" fill="#7AA6FF"/>
<path opacity="0.2" d="M172.524 159.384L168.528 210.384C168.458 211.285 168.033 212.12 167.346 212.708C166.66 213.295 165.769 213.586 164.868 213.516L146.268 212.058C145.638 212.005 145.054 211.704 144.643 211.222C144.233 210.74 144.03 210.115 144.078 209.484L148.2 156.462C148.252 155.832 148.551 155.247 149.032 154.836C149.513 154.424 150.137 154.22 150.768 154.266L169.368 155.724C169.816 155.756 170.253 155.876 170.655 156.078C171.056 156.279 171.414 156.558 171.707 156.898C172 157.238 172.224 157.633 172.364 158.06C172.504 158.486 172.559 158.936 172.524 159.384Z" fill="white"/>
<path opacity="0.2" d="M159.732 154.968V155.04L159.066 154.986C158.434 154.94 157.809 155.145 157.328 155.558C156.847 155.97 156.548 156.556 156.498 157.188L152.346 210.192C152.308 210.724 152.449 211.254 152.745 211.697C153.042 212.14 153.478 212.472 153.984 212.64L146.25 212.04C145.619 211.988 145.035 211.689 144.623 211.208C144.212 210.727 144.007 210.103 144.054 209.472L148.2 156.468C148.25 155.836 148.549 155.25 149.03 154.838C149.511 154.425 150.136 154.22 150.768 154.266L159.732 154.968Z" fill="black"/>
<path opacity="0.2" d="M159.575 156.826L159.299 156.805C158.939 156.776 158.625 157.045 158.596 157.405L154.525 209.368C154.497 209.728 154.766 210.043 155.126 210.071L155.401 210.093C155.761 210.121 156.076 209.852 156.104 209.492L160.176 157.529C160.204 157.169 159.935 156.854 159.575 156.826Z" fill="black"/>
<path opacity="0.2" d="M163.3 157.373L163.025 157.352C162.665 157.324 162.35 157.593 162.322 157.953L158.251 209.916C158.222 210.276 158.491 210.59 158.852 210.619L159.127 210.64C159.487 210.668 159.802 210.399 159.83 210.039L163.901 158.077C163.929 157.716 163.66 157.402 163.3 157.373Z" fill="black"/>
<path opacity="0.2" d="M167.027 157.597L166.752 157.576C166.392 157.548 166.077 157.817 166.049 158.177L161.978 210.139C161.949 210.499 162.219 210.814 162.579 210.842L162.854 210.864C163.214 210.892 163.529 210.623 163.557 210.263L167.628 158.3C167.656 157.94 167.387 157.626 167.027 157.597Z" fill="black"/>
<path opacity="0.2" d="M170.743 157.815L170.468 157.794C170.108 157.765 169.793 158.034 169.765 158.394L165.694 210.357C165.665 210.717 165.934 211.032 166.294 211.06L166.57 211.082C166.93 211.11 167.244 210.841 167.273 210.481L171.344 158.518C171.372 158.158 171.103 157.843 170.743 157.815Z" fill="black"/>
</svg>
