<svg width="252" height="250" viewBox="0 0 252 250" fill="none" xmlns="http://www.w3.org/2000/svg">
<path d="M11.6557 194.354H244.818" stroke="#263238" stroke-linecap="round" stroke-linejoin="round"/>
<path d="M194.996 201.702C192.841 201.764 190.682 201.871 188.538 202.057" stroke="#263238" stroke-linecap="round" stroke-linejoin="round"/>
<path d="M229.205 201.081C226.731 201.349 224.23 201.176 221.814 200.568C219.505 200.054 216.346 201.222 213.9 201.521C208.475 202.203 202.992 202.25 197.557 201.662" stroke="#263238" stroke-linecap="round" stroke-linejoin="round"/>
<path d="M237.327 201.341C235.47 201.341 233.744 200.664 231.793 200.816" stroke="#263238" stroke-linecap="round" stroke-linejoin="round"/>
<path d="M209.713 207.306C211.278 207.417 212.836 207.622 214.378 207.921" stroke="#263238" stroke-linecap="round" stroke-linejoin="round"/>
<path d="M166.408 206.956C173.272 206.392 179.932 206.804 186.741 207.419C193.435 208.017 200.134 207.064 206.833 207.182" stroke="#263238" stroke-linecap="round" stroke-linejoin="round"/>
<path d="M147.91 205.68C153.192 205.539 158.115 206.335 163.336 206.809" stroke="#263238" stroke-linecap="round" stroke-linejoin="round"/>
<path d="M89.2408 203.226H87.3448" stroke="#263238" stroke-linecap="round" stroke-linejoin="round"/>
<path d="M119.339 203.163C110.184 203.112 101.034 203.101 91.862 203.197" stroke="#263238" stroke-linecap="round" stroke-linejoin="round"/>
<path d="M140.069 202.057C133.969 201.685 127.935 202.582 121.868 203.051" stroke="#263238" stroke-linecap="round" stroke-linejoin="round"/>
<path d="M68.4239 203.547H76.5572" stroke="#263238" stroke-linecap="round" stroke-linejoin="round"/>
<path d="M11.5184 202.678C15.1179 201.408 18.9647 201.408 22.8116 201.973C25.5593 202.537 28.307 204.23 31.6043 203.666C35.4511 202.537 39.298 201.973 43.1448 203.666C50.8385 202.537 58.5321 204.23 66.0005 203.553" stroke="#263238" stroke-linecap="round" stroke-linejoin="round"/>
<path d="M108.304 208.903C110.42 208.965 112.541 208.971 114.663 208.903" stroke="#263238" stroke-linecap="round" stroke-linejoin="round"/>
<path d="M59.4993 207.689C68.424 207.052 76.6672 208.18 85.4599 207.616C92.0545 207.616 98.6491 208.18 104.98 208.745" stroke="#263238" stroke-linecap="round" stroke-linejoin="round"/>
<path d="M131.847 196.893H129.951" stroke="#263238" stroke-linecap="round" stroke-linejoin="round"/>
<path d="M161.946 196.843C152.79 196.792 143.64 196.781 134.468 196.877" stroke="#263238" stroke-linecap="round" stroke-linejoin="round"/>
<path d="M182.675 195.765C176.575 195.393 170.541 196.29 164.474 196.758" stroke="#263238" stroke-linecap="round" stroke-linejoin="round"/>
<path d="M111.019 197.232H119.153" stroke="#263238" stroke-linecap="round" stroke-linejoin="round"/>
<path d="M150.905 202.582C153.027 202.644 155.148 202.65 157.269 202.582" stroke="#263238" stroke-linecap="round" stroke-linejoin="round"/>
<path d="M121.906 215.951L124.846 216.211" stroke="#263238" stroke-linecap="round" stroke-linejoin="round"/>
<path d="M105.139 215.675C109.86 215.799 114.586 215.855 119.307 215.731" stroke="#263238" stroke-linecap="round" stroke-linejoin="round"/>
<path d="M86.7623 215.156C91.8676 215.235 96.9729 215.432 102.073 215.585" stroke="#263238" stroke-linecap="round" stroke-linejoin="round"/>
<path d="M79.3598 215.15C80.8252 215.128 82.3035 215.128 83.7946 215.15" stroke="#263238" stroke-linecap="round" stroke-linejoin="round"/>
<path d="M50.8384 207.503L57.3066 207.644" stroke="#263238" stroke-linecap="round" stroke-linejoin="round"/>
<path d="M81.7231 199.247C84.1081 199.394 86.2458 198.948 88.2792 199.247C90.3125 199.546 92.9448 198.863 93.6592 199.275" stroke="#263238" stroke-linecap="round" stroke-linejoin="round"/>
<path d="M148.218 210.505C155.802 211.002 164.045 211.002 171.739 211.194" stroke="#263238" stroke-linecap="round" stroke-linejoin="round"/>
<path d="M139.03 211.194C141.272 211.042 143.509 210.844 145.745 210.675" stroke="#263238" stroke-linecap="round" stroke-linejoin="round"/>
<path d="M152.911 220.167C145.328 219.676 137.084 219.676 129.396 219.485" stroke="#263238" stroke-linecap="round" stroke-linejoin="round"/>
<path d="M162.1 219.467C159.858 219.62 157.621 219.817 155.379 219.987" stroke="#263238" stroke-linecap="round" stroke-linejoin="round"/>
<path d="M251 205.692C251 205.692 242.52 206.138 240.559 208.734C238.597 211.33 232.513 211.555 221.874 213.497C211.235 215.438 214.483 217.752 203.937 219.981C193.391 222.21 172.091 222.323 168.387 223.644C164.683 224.964 144.042 225.563 126.517 225.563C108.992 225.563 68.6053 225.563 66.1763 222.323C63.7473 219.084 58.8234 220.873 52.1189 219.09C45.4144 217.306 26.2132 217.752 23.8172 215.85C21.4212 213.948 21.8608 210.207 14.4749 210.455C10.3478 210.607 10.5621 205.94 7.73745 205.692C5.49321 205.57 3.24424 205.57 1 205.692" stroke="#263238" stroke-linecap="round" stroke-linejoin="round"/>
<path d="M103.386 193.846C103.386 193.846 129.764 190.894 132.979 189.365C136.194 187.835 148.867 176.148 150.905 175.961C152.944 175.775 161.154 177.09 161.946 177.779C162.737 178.467 173.19 168.021 175.245 165.984C177.3 163.946 182.521 160.018 184.257 161.091C185.994 162.163 186.956 164.223 189.522 165.984C192.088 167.744 202.662 169.443 202.662 169.443C202.662 169.443 203.821 172.649 205.673 173.546C207.525 174.443 216.038 176.3 215.801 177.378C215.565 178.456 215.768 183.146 220.341 184.483C224.913 185.821 230.414 188.885 231.793 189.365C233.173 189.844 238.388 193.953 242.306 194.354" stroke="#263238" stroke-linecap="round" stroke-linejoin="round"/>
<path d="M140.068 183.27C140.068 183.27 132.314 179.105 129.369 177.779C126.423 176.453 121.444 183.84 119.153 183.27C116.861 182.7 110.992 181.447 109.035 183.298C107.079 185.149 99.9074 190.223 99.0336 189.365C98.1599 188.507 74.5128 187.48 72.2102 187.209C69.9076 186.938 64.3407 192.119 62.3184 190.77C60.2961 189.421 46.1672 175.719 42.5347 176.746C38.9022 177.773 27.598 185.375 26.2681 186.272C24.9382 187.17 22.8389 186.961 21.4541 187.209C20.0692 187.457 15.1178 191.464 13.8154 191.769" stroke="#263238" stroke-linecap="round" stroke-linejoin="round"/>
<path d="M143.542 87.1833C143.542 87.1833 141.832 81.0883 130.308 81.0544C118.784 81.0206 112.03 91.7376 112.03 91.7376C112.03 91.7376 107.2 87.0704 101.364 90.1856C95.5276 93.3009 95.5386 95.0673 95.5386 95.0673H47.5686" stroke="#263238" stroke-linecap="round" stroke-linejoin="round"/>
<path d="M180.279 143.483C180.279 143.483 181.988 137.383 193.512 137.354C205.036 137.326 211.79 148.038 211.79 148.038C211.79 148.038 216.62 143.37 222.456 146.486C228.293 149.601 228.282 151.367 228.282 151.367H243.284" stroke="#263238" stroke-linecap="round" stroke-linejoin="round"/>
<path d="M137.733 128.505H104.98C104.98 128.505 107.299 123.99 102.073 118.623C96.8464 113.256 91.5488 116.834 91.5488 116.834C91.5488 116.834 86.427 100.536 71.4793 102.449C56.5316 104.362 54.9599 117.76 54.9599 117.76C54.9599 117.76 51.7671 114.47 45.2604 116.631C38.7538 118.793 37.7701 127.066 39.3803 130.548C39.3803 130.548 31.9724 131.886 31.4778 137.761C31.4778 137.761 31.0217 132.563 24.0479 132.405C17.0741 132.247 15.3376 140.306 15.3376 140.306H7.50653" stroke="#263238" stroke-linecap="round" stroke-linejoin="round"/>
<path d="M183.598 31.5045L182.142 34.2585C181.985 34.5563 181.752 34.8049 181.469 34.9778C181.185 35.1507 180.861 35.2415 180.532 35.2405H156.351C156.023 35.2405 155.7 35.1492 155.417 34.9764C155.135 34.8035 154.903 34.5555 154.747 34.2585L153.291 31.5045C153.132 31.2093 152.9 30.9631 152.618 30.7914C152.336 30.6197 152.014 30.5288 151.686 30.5282H129.297C128.813 30.5282 128.348 30.7254 128.005 31.0766C127.662 31.4278 127.469 31.9044 127.467 32.4018V180.86C127.467 181.358 127.66 181.836 128.003 182.189C128.346 182.541 128.812 182.739 129.297 182.739H207.586C208.071 182.739 208.537 182.541 208.88 182.189C209.223 181.836 209.416 181.358 209.416 180.86V32.4018C209.414 31.9044 209.221 31.4278 208.878 31.0766C208.535 30.7254 208.07 30.5282 207.586 30.5282H185.203C184.875 30.5288 184.553 30.6197 184.271 30.7914C183.988 30.9631 183.756 31.2093 183.598 31.5045Z" fill="#BFBFBF" stroke="#263238" stroke-linecap="round" stroke-linejoin="round"/>
<path d="M206.992 45.1958H129.891V133.139H206.992V45.1958Z" fill="#7AA6FF"/>
<mask id="mask0_301_650" style="mask-type:luminance" maskUnits="userSpaceOnUse" x="129" y="45" width="78" height="89">
<path d="M206.992 45.1958H129.891V133.139H206.992V45.1958Z" fill="white"/>
</mask>
<g mask="url(#mask0_301_650)">
<path opacity="0.7" d="M206.992 45.1958H129.891V133.139H206.992V45.1958Z" fill="white"/>
</g>
<path d="M206.992 45.1958H129.891V133.139H206.992V45.1958Z" stroke="#263238" stroke-linecap="round" stroke-linejoin="round"/>
<path d="M206.992 53.2882C206.014 54.3379 205.217 55.4836 204.371 55.3425C202.612 55.049 201.354 55.9068 200.348 55.3425C199.343 54.7781 199.09 57.5999 199.09 57.5999L197.326 59.1518L195.82 59.7162C195.82 59.7162 195.062 61.1214 195.82 61.8438C196.578 62.5662 197.414 63.8472 195.485 63.8472H192.297C192.297 63.8472 191.292 61.8946 190.033 61.8438C188.775 61.793 188.275 59.1575 188.275 59.1575V56.9339L183.746 59.1575C183.746 59.1575 180.999 59.8121 180.999 60.8054V64.2705L179.746 66.7706L184.016 67.4817L185.527 64.9816C185.527 64.9816 187.286 64.3495 187.538 65.5459C187.722 67.2209 187.807 68.9058 187.791 70.5912C187.16 71.5833 186.652 72.6526 186.28 73.7742C188.044 75.4955 187.538 75.8849 188.549 76.2065C189.561 76.5282 190.055 78.0068 190.055 78.8195V79.6321C190.055 79.6321 185.274 80.0159 188.549 82.279C189.539 82.9675 189.929 83.2496 190.039 83.3456C189.39 82.9788 190.039 83.3851 190.072 83.3851C190.074 83.3739 190.074 83.3624 190.072 83.3512L190.33 83.5036C190.867 83.7746 191.372 84.1078 191.836 84.4969C191.836 84.4517 192.072 84.4122 193.094 84.5702C194.605 84.796 195.611 81.1841 197.37 83.5036C199.128 85.8231 200.117 87.2509 200.892 87.962L201.651 88.6731L206.679 90.2081L207.036 90.2363L206.992 53.2882Z" fill="#7AA6FF" stroke="#263238" stroke-linecap="round" stroke-linejoin="round"/>
<path d="M196.468 104.972C195.21 102.387 196.468 104.972 195.716 105.418C194.963 105.864 193.704 106.264 192.193 105.034C192.193 105.034 192.946 103.939 192.193 101.97C191.44 99.9999 190.434 101.868 189.17 101.97C188.298 102.03 187.427 101.835 186.659 101.405C186.153 101.162 185.901 100.355 184.395 99.8814C182.889 99.4074 183.389 99.8363 181.098 103.087H179.839C179.839 103.087 179.339 104.746 178.581 105.068C177.822 105.389 176.064 104.746 175.564 103.533C175.064 102.319 178.311 101.902 180.845 101.117C183.378 100.333 179.586 97.7312 179.586 97.7312L179.339 95.4738L178.333 94.379C177.328 93.3462 175.316 93.8654 174.563 91.5177C173.811 89.17 175.316 90.5019 174.058 89.0854C173.385 88.289 172.588 87.6121 171.7 87.0819C171.7 87.0819 165.507 88.696 163.496 87.0819C161.484 85.4679 161.231 87.6068 161.231 87.6068L158.967 90.7107V94.379H153.933L152.169 91.9241C152.169 91.9241 149.911 87.4093 151.417 87.0819C152.922 86.7546 153.428 87.0819 153.428 87.0819L155.186 85.0785L155.23 85.1293C155.269 85.1857 157.429 85.3381 157.703 84.6496C157.978 83.9611 156.95 81.4666 156.95 81.4666L153.933 79.1359L152.169 78.3796C151.399 78.0687 150.645 77.7164 149.911 77.3243L148.905 76.4157C147.894 75.5015 147.141 77.5839 146.383 77.6629C145.624 77.7419 143.113 75.2588 142.36 73.7125C141.607 72.1661 145.108 73.4698 146.13 72.7474C147.152 72.0251 147.894 70.8851 147.894 67.3014C147.894 63.7178 146.635 67.008 145.63 67.5159C144.624 68.0238 143.113 68.0407 141.102 67.3014C139.09 66.5621 140.601 66.2348 139.343 66.2687C138.085 66.3025 132.551 67.3014 132.551 67.3014C132.551 67.3014 131.21 69.034 129.891 70.7158V133.122H136.568C136.568 133.201 136.568 133.037 136.568 133.122C136.568 131.609 139.085 131.558 139.865 130.396C140.645 129.233 142.124 127.264 142.124 127.264V125.898L142.629 123.923C143.129 121.953 144.641 124.6 146.399 124.69C148.158 124.781 149.696 124.6 149.927 123.308C150.158 122.015 149.927 123.308 149.927 120.486C149.927 117.664 149.927 119.408 151.686 119.357L154.956 120.486C156.355 120.975 157.783 121.375 159.231 121.682C161.495 122.151 160.237 123.895 160.237 123.895L163.507 124.978H168.282L170.046 126.982L171.695 127.252H174.811L176.064 124.995C176.678 124.533 177.356 124.167 178.075 123.911C178.833 123.748 181.098 124.329 181.098 124.329L182.708 124.278C184.318 124.228 184.115 121.823 184.115 121.823L185.12 120.503L185.626 119.374L187.884 116.332L189.44 114.729C190.995 113.127 190.154 112.472 190.154 112.472L189.44 110.694C188.731 108.922 190.907 110.497 190.907 110.497C192.364 110.952 193.791 111.498 195.182 112.133C197.93 113.347 197.447 111.18 197.699 110.497C197.952 109.814 197.699 107.551 196.468 104.972Z" fill="#7AA6FF"/>
<path d="M136.568 133.122H129.891V70.7158C131.21 69.034 132.551 67.3014 132.551 67.3014C132.551 67.3014 138.085 66.3025 139.343 66.2687C140.601 66.2348 139.09 66.5621 141.102 67.3014C143.113 68.0407 144.624 68.0238 145.63 67.5159C146.635 67.008 147.894 63.7178 147.894 67.3014C147.894 70.8851 147.152 72.0251 146.13 72.7474C145.108 73.4698 141.607 72.1661 142.36 73.7125C143.113 75.2588 145.624 77.7419 146.383 77.6629C147.141 77.5839 147.894 75.5015 148.905 76.4157L149.911 77.3243C150.645 77.7164 151.399 78.0687 152.169 78.3796L153.933 79.1359L156.95 81.4666C156.95 81.4666 157.978 83.9611 157.703 84.6496C157.429 85.3381 155.269 85.1857 155.23 85.1293L155.186 85.0785L153.428 87.0819C153.428 87.0819 152.922 86.7546 151.417 87.0819C149.911 87.4093 152.169 91.9241 152.169 91.9241L153.933 94.379H158.967V90.7107L161.231 87.6068C161.231 87.6068 161.484 85.4679 163.496 87.0819C165.507 88.696 171.7 87.0819 171.7 87.0819C172.588 87.6121 173.385 88.289 174.058 89.0854C175.316 90.5019 173.811 89.17 174.563 91.5177C175.316 93.8654 177.328 93.3462 178.333 94.379L179.339 95.4738L179.586 97.7312C179.586 97.7312 183.378 100.333 180.845 101.117C178.311 101.902 175.064 102.319 175.564 103.533C176.064 104.746 177.822 105.389 178.581 105.068C179.339 104.746 179.839 103.087 179.839 103.087H181.098C183.389 99.8363 182.889 99.4074 184.395 99.8814C185.901 100.355 186.153 101.162 186.659 101.405C187.427 101.835 188.298 102.03 189.17 101.97C190.434 101.868 191.44 99.9999 192.193 101.97C192.946 103.939 192.193 105.034 192.193 105.034C193.704 106.264 194.963 105.864 195.716 105.418C196.468 104.972 195.21 102.387 196.468 104.972C197.699 107.551 197.952 109.814 197.699 110.497C197.447 111.18 197.93 113.347 195.182 112.133C193.791 111.498 192.364 110.952 190.907 110.497C190.907 110.497 188.731 108.922 189.44 110.694L190.154 112.472C190.154 112.472 190.995 113.127 189.44 114.729L187.884 116.332L185.626 119.374L185.12 120.503L184.115 121.823C184.115 121.823 184.318 124.228 182.708 124.278L181.098 124.329C181.098 124.329 178.833 123.748 178.075 123.911C177.356 124.167 176.678 124.533 176.064 124.995L174.811 127.252H171.695L170.046 126.982L168.282 124.978H163.507L160.237 123.895C160.237 123.895 161.495 122.151 159.231 121.682C157.783 121.375 156.355 120.975 154.956 120.486L151.686 119.357C149.927 119.408 149.927 117.664 149.927 120.486C149.927 123.308 150.158 122.015 149.927 123.308C149.696 124.6 148.158 124.781 146.399 124.69C144.641 124.6 143.129 121.953 142.629 123.923L142.124 125.898V127.264C142.124 127.264 140.645 129.233 139.865 130.396C139.085 131.558 136.568 131.609 136.568 133.122ZM136.568 133.122C136.568 133.037 136.568 133.201 136.568 133.122Z" stroke="#263238" stroke-linecap="round" stroke-linejoin="round"/>
<path d="M155.252 70.8737C152.686 67.0982 159.237 67.3691 159.989 67.8262C160.742 68.2833 163.259 67.8262 163.259 67.8262V66.2573C163.259 66.2573 165.023 66.2912 165.776 66.2573C166.529 66.2235 167.787 64.7618 168.04 66.3984C168.17 67.6137 168.17 68.84 168.04 70.0554C168.04 70.8737 167.491 72.0193 168.15 72.7361C168.81 73.4528 165.776 74.2993 165.776 75.1684C165.776 76.0375 166.782 80.3322 164.77 77.6685C162.759 75.0048 163.248 74.1187 161.748 73.402L160.198 72.6796C160.198 72.6796 158.033 74.9935 155.252 70.8737Z" fill="#7AA6FF" stroke="#263238" stroke-linecap="round" stroke-linejoin="round"/>
<path d="M142.866 52.0127L142.36 50.9799H140.684C140.684 50.9799 138.085 47.8817 137.332 47.3229C136.705 46.8658 138.843 46.6627 141.31 45.1897H129.891V60.8843C130.048 61.1186 130.276 61.2932 130.539 61.3809C131.545 61.6744 134.062 61.3471 135.568 60.9407C137.073 60.5344 135.568 59.812 135.568 57.7296C135.568 55.6471 137.216 57.8029 137.216 57.8029L138.837 56.9564C139.544 56.3365 140.065 55.5248 140.343 54.6144C140.849 53.0568 141.442 54.6144 141.442 54.6144L143.64 55.3198C143.64 55.3198 145.624 55.4045 145.624 54.6144C145.624 53.8243 142.866 52.0127 142.866 52.0127Z" fill="#7AA6FF" stroke="#263238" stroke-linecap="round" stroke-linejoin="round"/>
<path d="M206.992 120.706C206.784 121.394 206.729 122.506 205.998 122.963C204.739 123.736 205.998 122.963 204.739 122.912C203.481 122.861 202.728 124.255 203.36 126.259L201.442 126.558V125.277L198.2 124.509L197.788 124.6C197.37 124.696 196.441 127.094 196.188 128.686C194.515 128.814 192.834 128.814 191.16 128.686C188.643 128.471 191.16 130.012 191.16 130.012L195.183 130.712L196.694 130.012C198.2 129.312 199.442 132.1 199.442 132.1C199.442 132.1 200.7 129.419 201.453 128.59C202.206 127.76 203.97 128.906 205.981 128.686L206.976 128.121L206.992 120.706Z" fill="#7AA6FF" stroke="#263238" stroke-linecap="round" stroke-linejoin="round"/>
<path d="M155.253 89.48C154.886 89.1032 154.451 88.8043 153.972 88.6004C153.493 88.3965 152.979 88.2915 152.461 88.2915C151.942 88.2915 151.429 88.3965 150.95 88.6004C150.471 88.8043 150.036 89.1032 149.669 89.48C149.302 89.8563 149.011 90.3032 148.813 90.7952C148.614 91.2871 148.512 91.8144 148.512 92.3469C148.512 92.8794 148.614 93.4067 148.813 93.8986C149.011 94.3906 149.302 94.8375 149.669 95.2138L152.461 98.0751L155.253 95.2138C155.992 94.453 156.408 93.4219 156.408 92.3469C156.408 91.2719 155.992 90.2408 155.253 89.48Z" fill="#757575" stroke="#263238" stroke-linecap="round" stroke-linejoin="round"/>
<path d="M154.186 94.1136C153.846 94.4628 153.412 94.7005 152.94 94.7966C152.468 94.8928 151.978 94.843 151.534 94.6537C151.089 94.4644 150.709 94.1439 150.442 93.7329C150.174 93.3218 150.032 92.8386 150.032 92.3443C150.032 91.85 150.174 91.3668 150.442 90.9558C150.709 90.5447 151.089 90.2243 151.534 90.0349C151.978 89.8456 152.468 89.7958 152.94 89.892C153.412 89.9881 153.846 90.2258 154.186 90.5751C154.413 90.8069 154.594 91.0826 154.717 91.3862C154.84 91.6898 154.903 92.0155 154.903 92.3443C154.903 92.6732 154.84 92.9988 154.717 93.3024C154.594 93.6061 154.413 93.8817 154.186 94.1136Z" fill="#7AA6FF"/>
<mask id="mask1_301_650" style="mask-type:luminance" maskUnits="userSpaceOnUse" x="150" y="89" width="5" height="6">
<path d="M154.186 94.1136C153.846 94.4628 153.412 94.7005 152.94 94.7966C152.468 94.8928 151.978 94.843 151.534 94.6537C151.089 94.4644 150.709 94.1439 150.442 93.7329C150.174 93.3218 150.032 92.8386 150.032 92.3443C150.032 91.85 150.174 91.3668 150.442 90.9558C150.709 90.5447 151.089 90.2243 151.534 90.0349C151.978 89.8456 152.468 89.7958 152.94 89.892C153.412 89.9881 153.846 90.2258 154.186 90.5751C154.413 90.8069 154.594 91.0826 154.717 91.3862C154.84 91.6898 154.903 92.0155 154.903 92.3443C154.903 92.6732 154.84 92.9988 154.717 93.3024C154.594 93.6061 154.413 93.8817 154.186 94.1136Z" fill="white"/>
</mask>
<g mask="url(#mask1_301_650)">
<path opacity="0.6" d="M154.186 94.1136C153.846 94.4628 153.412 94.7005 152.94 94.7966C152.468 94.8928 151.978 94.843 151.534 94.6537C151.089 94.4644 150.709 94.1439 150.442 93.7329C150.174 93.3218 150.032 92.8386 150.032 92.3443C150.032 91.85 150.174 91.3668 150.442 90.9558C150.709 90.5447 151.089 90.2243 151.534 90.0349C151.978 89.8456 152.468 89.7958 152.94 89.892C153.412 89.9881 153.846 90.2258 154.186 90.5751C154.413 90.8069 154.594 91.0826 154.717 91.3862C154.84 91.6898 154.903 92.0155 154.903 92.3443C154.903 92.6732 154.84 92.9988 154.717 93.3024C154.594 93.6061 154.413 93.8817 154.186 94.1136Z" fill="white"/>
</g>
<path d="M154.186 94.1136C153.846 94.4628 153.412 94.7005 152.94 94.7966C152.468 94.8928 151.978 94.843 151.534 94.6537C151.089 94.4644 150.709 94.1439 150.442 93.7329C150.174 93.3218 150.032 92.8386 150.032 92.3443C150.032 91.85 150.174 91.3668 150.442 90.9558C150.709 90.5447 151.089 90.2243 151.534 90.0349C151.978 89.8456 152.468 89.7958 152.94 89.892C153.412 89.9881 153.846 90.2258 154.186 90.5751C154.413 90.8069 154.594 91.0826 154.717 91.3862C154.84 91.6898 154.903 92.0155 154.903 92.3443C154.903 92.6732 154.84 92.9988 154.717 93.3024C154.594 93.6061 154.413 93.8817 154.186 94.1136Z" stroke="#263238" stroke-linecap="round" stroke-linejoin="round"/>
<path d="M151.362 92.3476L152.219 93.1829L153.477 91.4108" stroke="#263238" stroke-linecap="round" stroke-linejoin="round"/>
<path d="M140.552 48.1136C140.186 47.7369 139.75 47.438 139.271 47.234C138.792 47.0301 138.279 46.9251 137.76 46.9251C137.242 46.9251 136.728 47.0301 136.249 47.234C135.77 47.438 135.335 47.7369 134.969 48.1136C134.229 48.8734 133.814 49.9036 133.814 50.9777C133.814 52.0518 134.229 53.082 134.969 53.8418L137.76 56.7087L140.552 53.8418C141.291 53.082 141.707 52.0518 141.707 50.9777C141.707 49.9036 141.291 48.8734 140.552 48.1136Z" fill="#757575" stroke="#263238" stroke-linecap="round" stroke-linejoin="round"/>
<path d="M139.486 52.7471C139.145 53.0983 138.71 53.3377 138.237 53.4349C137.763 53.5322 137.272 53.483 136.826 53.2936C136.38 53.1041 135.998 52.783 135.73 52.3707C135.461 51.9585 135.318 51.4738 135.318 50.9779C135.318 50.482 135.461 49.9973 135.73 49.585C135.998 49.1728 136.38 48.8516 136.826 48.6622C137.272 48.4728 137.763 48.4236 138.237 48.5208C138.71 48.6181 139.145 48.8575 139.486 49.2086C139.942 49.6783 140.198 50.3146 140.198 50.9779C140.198 51.6412 139.942 52.2774 139.486 52.7471Z" fill="#7AA6FF"/>
<mask id="mask2_301_650" style="mask-type:luminance" maskUnits="userSpaceOnUse" x="135" y="48" width="6" height="6">
<path d="M139.486 52.7471C139.145 53.0983 138.71 53.3377 138.237 53.4349C137.763 53.5322 137.272 53.483 136.826 53.2936C136.38 53.1041 135.998 52.783 135.73 52.3707C135.461 51.9585 135.318 51.4738 135.318 50.9779C135.318 50.482 135.461 49.9973 135.73 49.585C135.998 49.1728 136.38 48.8516 136.826 48.6622C137.272 48.4728 137.763 48.4236 138.237 48.5208C138.71 48.6181 139.145 48.8575 139.486 49.2086C139.942 49.6783 140.198 50.3146 140.198 50.9779C140.198 51.6412 139.942 52.2774 139.486 52.7471Z" fill="white"/>
</mask>
<g mask="url(#mask2_301_650)">
<path opacity="0.6" d="M139.486 52.7471C139.145 53.0983 138.71 53.3377 138.237 53.4349C137.763 53.5322 137.272 53.483 136.826 53.2936C136.38 53.1041 135.998 52.783 135.73 52.3707C135.461 51.9585 135.318 51.4738 135.318 50.9779C135.318 50.482 135.461 49.9973 135.73 49.585C135.998 49.1728 136.38 48.8516 136.826 48.6622C137.272 48.4728 137.763 48.4236 138.237 48.5208C138.71 48.6181 139.145 48.8575 139.486 49.2086C139.942 49.6783 140.198 50.3146 140.198 50.9779C140.198 51.6412 139.942 52.2774 139.486 52.7471Z" fill="white"/>
</g>
<path d="M139.486 52.7471C139.145 53.0983 138.71 53.3377 138.237 53.4349C137.763 53.5322 137.272 53.483 136.826 53.2936C136.38 53.1041 135.998 52.783 135.73 52.3707C135.461 51.9585 135.318 51.4738 135.318 50.9779C135.318 50.482 135.461 49.9973 135.73 49.585C135.998 49.1728 136.38 48.8516 136.826 48.6622C137.272 48.4728 137.763 48.4236 138.237 48.5208C138.71 48.6181 139.145 48.8575 139.486 49.2086C139.942 49.6783 140.198 50.3146 140.198 50.9779C140.198 51.6412 139.942 52.2774 139.486 52.7471Z" stroke="#263238" stroke-linecap="round" stroke-linejoin="round"/>
<path d="M136.656 50.9748L137.513 51.8157L138.771 50.0436" stroke="#263238" stroke-linecap="round" stroke-linejoin="round"/>
<path d="M167.397 63.1816C166.658 62.4224 165.654 61.9959 164.609 61.9959C163.563 61.9959 162.559 62.4224 161.82 63.1816C161.453 63.5579 161.162 64.0048 160.963 64.4968C160.764 64.9887 160.662 65.516 160.662 66.0485C160.662 66.581 160.764 67.1083 160.963 67.6002C161.162 68.0922 161.453 68.5391 161.82 68.9154L164.611 71.7823L167.397 68.9154C167.764 68.5391 168.055 68.0922 168.254 67.6002C168.453 67.1083 168.555 66.581 168.555 66.0485C168.555 65.516 168.453 64.9887 168.254 64.4968C168.055 64.0048 167.764 63.5579 167.397 63.1816Z" fill="#757575" stroke="#263238" stroke-linecap="round" stroke-linejoin="round"/>
<path d="M166.331 67.8203C165.99 68.1707 165.555 68.4093 165.082 68.5059C164.609 68.6025 164.118 68.5529 163.672 68.3632C163.226 68.1735 162.845 67.8524 162.577 67.4403C162.309 67.0283 162.166 66.5438 162.166 66.0483C162.166 65.5527 162.309 65.0683 162.577 64.6562C162.845 64.2442 163.226 63.923 163.672 63.7334C164.118 63.5437 164.609 63.494 165.082 63.5907C165.555 63.6873 165.99 63.9258 166.331 64.2762C166.788 64.7469 167.044 65.384 167.044 66.0483C167.044 66.7125 166.788 67.3497 166.331 67.8203Z" fill="#7AA6FF"/>
<mask id="mask3_301_650" style="mask-type:luminance" maskUnits="userSpaceOnUse" x="162" y="63" width="6" height="6">
<path d="M166.331 67.8203C165.99 68.1707 165.555 68.4093 165.082 68.5059C164.609 68.6025 164.118 68.5529 163.672 68.3632C163.226 68.1735 162.845 67.8524 162.577 67.4403C162.309 67.0283 162.166 66.5438 162.166 66.0483C162.166 65.5527 162.309 65.0683 162.577 64.6562C162.845 64.2442 163.226 63.923 163.672 63.7334C164.118 63.5437 164.609 63.494 165.082 63.5907C165.555 63.6873 165.99 63.9258 166.331 64.2762C166.788 64.7469 167.044 65.384 167.044 66.0483C167.044 66.7125 166.788 67.3497 166.331 67.8203Z" fill="white"/>
</mask>
<g mask="url(#mask3_301_650)">
<path opacity="0.6" d="M166.331 67.8203C165.99 68.1707 165.555 68.4093 165.082 68.5059C164.609 68.6025 164.118 68.5529 163.672 68.3632C163.226 68.1735 162.845 67.8524 162.577 67.4403C162.309 67.0283 162.166 66.5438 162.166 66.0483C162.166 65.5527 162.309 65.0683 162.577 64.6562C162.845 64.2442 163.226 63.923 163.672 63.7334C164.118 63.5437 164.609 63.494 165.082 63.5907C165.555 63.6873 165.99 63.9258 166.331 64.2762C166.788 64.7469 167.044 65.384 167.044 66.0483C167.044 66.7125 166.788 67.3497 166.331 67.8203Z" fill="white"/>
</g>
<path d="M166.331 67.8203C165.99 68.1707 165.555 68.4093 165.082 68.5059C164.609 68.6025 164.118 68.5529 163.672 68.3632C163.226 68.1735 162.845 67.8524 162.577 67.4403C162.309 67.0283 162.166 66.5438 162.166 66.0483C162.166 65.5527 162.309 65.0683 162.577 64.6562C162.845 64.2442 163.226 63.923 163.672 63.7334C164.118 63.5437 164.609 63.494 165.082 63.5907C165.555 63.6873 165.99 63.9258 166.331 64.2762C166.788 64.7469 167.044 65.384 167.044 66.0483C167.044 66.7125 166.788 67.3497 166.331 67.8203Z" stroke="#263238" stroke-linecap="round" stroke-linejoin="round"/>
<path d="M163.501 66.0488L164.358 66.8897L165.622 65.112" stroke="#263238" stroke-linecap="round" stroke-linejoin="round"/>
<path d="M181.554 112.72C181.187 112.343 180.752 112.044 180.273 111.841C179.794 111.637 179.281 111.532 178.762 111.532C178.244 111.532 177.73 111.637 177.251 111.841C176.772 112.044 176.337 112.343 175.97 112.72C175.604 113.096 175.312 113.543 175.114 114.035C174.915 114.527 174.813 115.055 174.813 115.587C174.813 116.12 174.915 116.647 175.114 117.139C175.312 117.631 175.604 118.078 175.97 118.454L178.762 121.321L181.554 118.454C182.293 117.693 182.709 116.662 182.709 115.587C182.709 114.512 182.293 113.481 181.554 112.72Z" fill="#757575" stroke="#263238" stroke-linecap="round" stroke-linejoin="round"/>
<path d="M180.482 117.359C180.141 117.71 179.706 117.948 179.233 118.045C178.759 118.142 178.269 118.092 177.823 117.902C177.377 117.713 176.996 117.391 176.728 116.979C176.46 116.567 176.317 116.083 176.317 115.587C176.317 115.092 176.46 114.607 176.728 114.195C176.996 113.783 177.377 113.462 177.823 113.272C178.269 113.083 178.759 113.033 179.233 113.13C179.706 113.226 180.141 113.465 180.482 113.815C180.709 114.048 180.89 114.324 181.013 114.628C181.136 114.932 181.199 115.258 181.199 115.587C181.199 115.917 181.136 116.243 181.013 116.547C180.89 116.851 180.709 117.127 180.482 117.359Z" fill="#7AA6FF"/>
<mask id="mask4_301_650" style="mask-type:luminance" maskUnits="userSpaceOnUse" x="176" y="113" width="6" height="6">
<path d="M180.482 117.359C180.141 117.71 179.706 117.948 179.233 118.045C178.759 118.142 178.269 118.092 177.823 117.902C177.377 117.713 176.996 117.391 176.728 116.979C176.46 116.567 176.317 116.083 176.317 115.587C176.317 115.092 176.46 114.607 176.728 114.195C176.996 113.783 177.377 113.462 177.823 113.272C178.269 113.083 178.759 113.033 179.233 113.13C179.706 113.226 180.141 113.465 180.482 113.815C180.709 114.048 180.89 114.324 181.013 114.628C181.136 114.932 181.199 115.258 181.199 115.587C181.199 115.917 181.136 116.243 181.013 116.547C180.89 116.851 180.709 117.127 180.482 117.359Z" fill="white"/>
</mask>
<g mask="url(#mask4_301_650)">
<path opacity="0.6" d="M180.482 117.359C180.141 117.71 179.706 117.948 179.233 118.045C178.759 118.142 178.269 118.092 177.823 117.902C177.377 117.713 176.996 117.391 176.728 116.979C176.46 116.567 176.317 116.083 176.317 115.587C176.317 115.092 176.46 114.607 176.728 114.195C176.996 113.783 177.377 113.462 177.823 113.272C178.269 113.083 178.759 113.033 179.233 113.13C179.706 113.226 180.141 113.465 180.482 113.815C180.709 114.048 180.89 114.324 181.013 114.628C181.136 114.932 181.199 115.258 181.199 115.587C181.199 115.917 181.136 116.243 181.013 116.547C180.89 116.851 180.709 117.127 180.482 117.359Z" fill="white"/>
</g>
<path d="M180.482 117.359C180.141 117.71 179.706 117.948 179.233 118.045C178.759 118.142 178.269 118.092 177.823 117.902C177.377 117.713 176.996 117.391 176.728 116.979C176.46 116.567 176.317 116.083 176.317 115.587C176.317 115.092 176.46 114.607 176.728 114.195C176.996 113.783 177.377 113.462 177.823 113.272C178.269 113.083 178.759 113.033 179.233 113.13C179.706 113.226 180.141 113.465 180.482 113.815C180.709 114.048 180.89 114.324 181.013 114.628C181.136 114.932 181.199 115.258 181.199 115.587C181.199 115.917 181.136 116.243 181.013 116.547C180.89 116.851 180.709 117.127 180.482 117.359Z" stroke="#263238" stroke-linecap="round" stroke-linejoin="round"/>
<path d="M177.658 115.587L178.515 116.428L179.773 114.65" stroke="#263238" stroke-linecap="round" stroke-linejoin="round"/>
<path d="M194.666 64.7674C193.925 64.0078 192.921 63.5812 191.874 63.5812C190.828 63.5812 189.824 64.0078 189.083 64.7674C188.343 65.5281 187.928 66.5592 187.928 67.6343C187.928 68.7093 188.343 69.7404 189.083 70.5012L191.874 73.3681L194.666 70.5012C195.033 70.1248 195.324 69.6779 195.523 69.186C195.721 68.6941 195.823 68.1668 195.823 67.6343C195.823 67.1017 195.721 66.5744 195.523 66.0825C195.324 65.5906 195.033 65.1437 194.666 64.7674Z" fill="#757575" stroke="#263238" stroke-linecap="round" stroke-linejoin="round"/>
<path d="M193.6 69.4068C193.259 69.7572 192.824 69.9958 192.351 70.0924C191.877 70.189 191.387 70.1394 190.941 69.9497C190.495 69.76 190.114 69.4389 189.846 69.0268C189.578 68.6148 189.435 68.1303 189.435 67.6348C189.435 67.1392 189.578 66.6548 189.846 66.2427C190.114 65.8307 190.495 65.5095 190.941 65.3199C191.387 65.1302 191.877 65.0805 192.351 65.1772C192.824 65.2738 193.259 65.5124 193.6 65.8627C194.056 66.3334 194.313 66.9706 194.313 67.6348C194.313 68.299 194.056 68.9362 193.6 69.4068Z" fill="#7AA6FF"/>
<mask id="mask5_301_650" style="mask-type:luminance" maskUnits="userSpaceOnUse" x="189" y="65" width="6" height="6">
<path d="M193.6 69.4068C193.259 69.7572 192.824 69.9958 192.351 70.0924C191.877 70.189 191.387 70.1394 190.941 69.9497C190.495 69.76 190.114 69.4389 189.846 69.0268C189.578 68.6148 189.435 68.1303 189.435 67.6348C189.435 67.1392 189.578 66.6548 189.846 66.2427C190.114 65.8307 190.495 65.5095 190.941 65.3199C191.387 65.1302 191.877 65.0805 192.351 65.1772C192.824 65.2738 193.259 65.5124 193.6 65.8627C194.056 66.3334 194.313 66.9706 194.313 67.6348C194.313 68.299 194.056 68.9362 193.6 69.4068Z" fill="white"/>
</mask>
<g mask="url(#mask5_301_650)">
<path opacity="0.6" d="M193.6 69.4068C193.259 69.7572 192.824 69.9958 192.351 70.0924C191.877 70.189 191.387 70.1394 190.941 69.9497C190.495 69.76 190.114 69.4389 189.846 69.0268C189.578 68.6148 189.435 68.1303 189.435 67.6348C189.435 67.1392 189.578 66.6548 189.846 66.2427C190.114 65.8307 190.495 65.5095 190.941 65.3199C191.387 65.1302 191.877 65.0805 192.351 65.1772C192.824 65.2738 193.259 65.5124 193.6 65.8627C194.056 66.3334 194.313 66.9706 194.313 67.6348C194.313 68.299 194.056 68.9362 193.6 69.4068Z" fill="white"/>
</g>
<path d="M193.6 69.4068C193.259 69.7572 192.824 69.9958 192.351 70.0924C191.877 70.189 191.387 70.1394 190.941 69.9497C190.495 69.76 190.114 69.4389 189.846 69.0268C189.578 68.6148 189.435 68.1303 189.435 67.6348C189.435 67.1392 189.578 66.6548 189.846 66.2427C190.114 65.8307 190.495 65.5095 190.941 65.3199C191.387 65.1302 191.877 65.0805 192.351 65.1772C192.824 65.2738 193.259 65.5124 193.6 65.8627C194.056 66.3334 194.313 66.9706 194.313 67.6348C194.313 68.299 194.056 68.9362 193.6 69.4068Z" stroke="#263238" stroke-linecap="round" stroke-linejoin="round"/>
<path d="M190.77 67.6345L191.627 68.4754L192.891 66.6977" stroke="#263238" stroke-linecap="round" stroke-linejoin="round"/>
<path d="M202.563 118.652C202.196 118.275 201.761 117.976 201.282 117.772C200.803 117.568 200.29 117.463 199.771 117.463C199.253 117.463 198.739 117.568 198.26 117.772C197.781 117.976 197.346 118.275 196.979 118.652C196.613 119.028 196.322 119.475 196.123 119.967C195.924 120.459 195.822 120.986 195.822 121.518C195.822 122.051 195.924 122.578 196.123 123.07C196.322 123.562 196.613 124.009 196.979 124.385L199.771 127.247L202.563 124.385C203.303 123.625 203.718 122.593 203.718 121.518C203.718 120.443 203.303 119.412 202.563 118.652Z" fill="#757575" stroke="#263238" stroke-linecap="round" stroke-linejoin="round"/>
<path d="M201.497 123.285C201.156 123.636 200.721 123.875 200.248 123.972C199.774 124.07 199.283 124.021 198.837 123.831C198.391 123.642 198.009 123.32 197.741 122.908C197.472 122.496 197.329 122.011 197.329 121.515C197.329 121.02 197.472 120.535 197.741 120.123C198.009 119.71 198.391 119.389 198.837 119.2C199.283 119.01 199.774 118.961 200.248 119.058C200.721 119.156 201.156 119.395 201.497 119.746C201.953 120.216 202.209 120.852 202.209 121.515C202.209 122.179 201.953 122.815 201.497 123.285Z" fill="#7AA6FF"/>
<mask id="mask6_301_650" style="mask-type:luminance" maskUnits="userSpaceOnUse" x="197" y="119" width="6" height="6">
<path d="M201.497 123.285C201.156 123.636 200.721 123.875 200.248 123.972C199.774 124.07 199.283 124.021 198.837 123.831C198.391 123.642 198.009 123.32 197.741 122.908C197.472 122.496 197.329 122.011 197.329 121.515C197.329 121.02 197.472 120.535 197.741 120.123C198.009 119.71 198.391 119.389 198.837 119.2C199.283 119.01 199.774 118.961 200.248 119.058C200.721 119.156 201.156 119.395 201.497 119.746C201.953 120.216 202.209 120.852 202.209 121.515C202.209 122.179 201.953 122.815 201.497 123.285Z" fill="white"/>
</mask>
<g mask="url(#mask6_301_650)">
<path opacity="0.6" d="M201.497 123.285C201.156 123.636 200.721 123.875 200.248 123.972C199.774 124.07 199.283 124.021 198.837 123.831C198.391 123.642 198.009 123.32 197.741 122.908C197.472 122.496 197.329 122.011 197.329 121.515C197.329 121.02 197.472 120.535 197.741 120.123C198.009 119.71 198.391 119.389 198.837 119.2C199.283 119.01 199.774 118.961 200.248 119.058C200.721 119.156 201.156 119.395 201.497 119.746C201.953 120.216 202.209 120.852 202.209 121.515C202.209 122.179 201.953 122.815 201.497 123.285Z" fill="white"/>
</g>
<path d="M201.497 123.285C201.156 123.636 200.721 123.875 200.248 123.972C199.774 124.07 199.283 124.021 198.837 123.831C198.391 123.642 198.009 123.32 197.741 122.908C197.472 122.496 197.329 122.011 197.329 121.515C197.329 121.02 197.472 120.535 197.741 120.123C198.009 119.71 198.391 119.389 198.837 119.2C199.283 119.01 199.774 118.961 200.248 119.058C200.721 119.156 201.156 119.395 201.497 119.746C201.953 120.216 202.209 120.852 202.209 121.515C202.209 122.179 201.953 122.815 201.497 123.285Z" stroke="#263238" stroke-linecap="round" stroke-linejoin="round"/>
<path d="M198.667 121.518L199.524 122.354L200.782 120.582" stroke="#263238" stroke-linecap="round" stroke-linejoin="round"/>
<path d="M137.238 35.4383H130.792V38.2488H137.238V35.4383Z" fill="white" stroke="#263238" stroke-linecap="round" stroke-linejoin="round"/>
<path d="M138.233 35.9066H137.233V37.7747H138.233V35.9066Z" fill="white" stroke="#263238" stroke-linecap="round" stroke-linejoin="round"/>
<path d="M199.403 37.2271H198.26V38.2485H199.403V37.2271Z" fill="white" stroke="#263238" stroke-linecap="round" stroke-linejoin="round"/>
<path d="M201.629 36.2004H200.486V38.249H201.629V36.2004Z" fill="white" stroke="#263238" stroke-linecap="round" stroke-linejoin="round"/>
<path d="M203.86 35.1787H202.717V38.2488H203.86V35.1787Z" fill="white" stroke="#263238" stroke-linecap="round" stroke-linejoin="round"/>
<path d="M206.091 34.1513H204.948V38.2485H206.091V34.1513Z" fill="white" stroke="#263238" stroke-linecap="round" stroke-linejoin="round"/>
<path d="M134.628 144.29H160.907C161.08 144.29 161.251 144.255 161.41 144.187C161.569 144.119 161.714 144.02 161.836 143.895C161.958 143.77 162.055 143.621 162.121 143.457C162.187 143.294 162.221 143.118 162.221 142.941C162.221 142.764 162.187 142.589 162.121 142.425C162.055 142.261 161.958 142.113 161.836 141.987C161.714 141.862 161.569 141.763 161.41 141.695C161.251 141.627 161.08 141.592 160.907 141.592H134.628C134.28 141.592 133.946 141.734 133.699 141.987C133.453 142.24 133.315 142.583 133.315 142.941C133.315 143.299 133.453 143.642 133.699 143.895C133.946 144.148 134.28 144.29 134.628 144.29Z" fill="white" stroke="#263238" stroke-linecap="round" stroke-linejoin="round"/>
<path d="M202.898 147.23H133.985C133.892 147.222 133.799 147.233 133.71 147.263C133.622 147.294 133.541 147.343 133.472 147.408C133.403 147.472 133.348 147.551 133.311 147.638C133.273 147.726 133.254 147.82 133.254 147.916C133.254 148.012 133.273 148.106 133.311 148.194C133.348 148.281 133.403 148.36 133.472 148.424C133.541 148.489 133.622 148.538 133.71 148.568C133.799 148.599 133.892 148.61 133.985 148.602H202.898C202.991 148.61 203.084 148.599 203.173 148.568C203.261 148.538 203.342 148.489 203.411 148.424C203.48 148.36 203.535 148.281 203.572 148.194C203.61 148.106 203.629 148.012 203.629 147.916C203.629 147.82 203.61 147.726 203.572 147.638C203.535 147.551 203.48 147.472 203.411 147.408C203.342 147.343 203.261 147.294 203.173 147.263C203.084 147.233 202.991 147.222 202.898 147.23Z" fill="white" stroke="#263238" stroke-linecap="round" stroke-linejoin="round"/>
<path d="M202.898 150.905H133.985C133.892 150.896 133.799 150.907 133.71 150.938C133.622 150.968 133.541 151.017 133.472 151.082C133.403 151.146 133.348 151.225 133.311 151.312C133.273 151.4 133.254 151.495 133.254 151.59C133.254 151.686 133.273 151.781 133.311 151.868C133.348 151.956 133.403 152.034 133.472 152.099C133.541 152.163 133.622 152.212 133.71 152.243C133.799 152.273 133.892 152.285 133.985 152.276H202.898C202.991 152.285 203.084 152.273 203.173 152.243C203.261 152.212 203.342 152.163 203.411 152.099C203.48 152.034 203.535 151.956 203.572 151.868C203.61 151.781 203.629 151.686 203.629 151.59C203.629 151.495 203.61 151.4 203.572 151.312C203.535 151.225 203.48 151.146 203.411 151.082C203.342 151.017 203.261 150.968 203.173 150.938C203.084 150.907 202.991 150.896 202.898 150.905Z" fill="white" stroke="#263238" stroke-linecap="round" stroke-linejoin="round"/>
<path d="M186.412 154.567H133.985C133.892 154.558 133.799 154.57 133.71 154.6C133.622 154.631 133.541 154.68 133.472 154.744C133.403 154.809 133.348 154.887 133.311 154.975C133.273 155.062 133.254 155.157 133.254 155.253C133.254 155.348 133.273 155.443 133.311 155.531C133.348 155.618 133.403 155.697 133.472 155.761C133.541 155.826 133.622 155.875 133.71 155.905C133.799 155.936 133.892 155.947 133.985 155.938H186.412C186.504 155.947 186.598 155.936 186.686 155.905C186.775 155.875 186.856 155.826 186.924 155.761C186.993 155.697 187.048 155.618 187.086 155.531C187.123 155.443 187.143 155.348 187.143 155.253C187.143 155.157 187.123 155.062 187.086 154.975C187.048 154.887 186.993 154.809 186.924 154.744C186.856 154.68 186.775 154.631 186.686 154.6C186.598 154.57 186.504 154.558 186.412 154.567Z" fill="white" stroke="#263238" stroke-linecap="round" stroke-linejoin="round"/>
<path d="M192.874 171.989H187.972V177.023H192.874V171.989Z" fill="white" stroke="#263238" stroke-linecap="round" stroke-linejoin="round"/>
<path d="M201.414 177.023C202.064 177.023 202.688 176.757 203.148 176.285C203.607 175.813 203.865 175.173 203.865 174.506C203.865 173.838 203.607 173.198 203.148 172.726C202.688 172.254 202.064 171.989 201.414 171.989C200.764 171.989 200.141 172.254 199.681 172.726C199.222 173.198 198.963 173.838 198.963 174.506C198.963 175.173 199.222 175.813 199.681 176.285C200.141 176.757 200.764 177.023 201.414 177.023Z" fill="white" stroke="#263238" stroke-linecap="round" stroke-linejoin="round"/>
<path d="M176.432 177.023H182.433L179.432 171.989L176.432 177.023Z" fill="#757575" stroke="#263238" stroke-linecap="round" stroke-linejoin="round"/>
<path d="M158.401 101.733H133.095V130.018H158.401V101.733Z" fill="white"/>
<mask id="mask7_301_650" style="mask-type:luminance" maskUnits="userSpaceOnUse" x="133" y="101" width="26" height="30">
<path d="M158.401 101.733H133.095V130.018H158.401V101.733Z" fill="white"/>
</mask>
<g mask="url(#mask7_301_650)">
<g opacity="0.4">
<path d="M158.401 103.82C158.077 104.165 157.819 104.543 157.539 104.498C156.962 104.402 156.549 104.678 156.22 104.498C155.89 104.317 155.808 105.231 155.808 105.231L155.231 105.745L154.736 105.925C154.736 105.925 154.483 106.388 154.736 106.625C154.989 106.862 155.258 107.28 154.621 107.28H153.604C153.604 107.28 153.274 106.642 152.862 106.625C152.45 106.608 152.285 105.745 152.285 105.745V105.011L150.796 105.745C150.796 105.745 149.889 105.959 149.889 106.281V107.41L149.477 108.228L150.878 108.465L151.378 107.647C151.378 107.647 151.955 107.438 152.038 107.822C152.098 108.371 152.125 108.923 152.12 109.475C151.913 109.801 151.747 110.151 151.626 110.519C152.175 111.084 152.038 111.213 152.367 111.321C152.519 111.403 152.645 111.526 152.733 111.678C152.82 111.829 152.865 112.003 152.862 112.178V112.444C152.862 112.444 151.29 112.568 152.367 113.313C152.692 113.539 152.818 113.629 152.857 113.663L152.939 113.713C153.115 113.803 153.281 113.913 153.434 114.041C153.434 114.041 153.51 114.013 153.846 114.041C154.34 114.114 154.67 112.912 155.253 113.691C155.607 114.203 155.992 114.691 156.407 115.153L156.654 115.39L158.303 115.892H158.418L158.401 103.82Z" fill="#7AA6FF"/>
<path d="M135.287 129.91V129.871C135.287 129.374 136.112 129.521 136.359 129.137C136.606 128.754 137.101 128.11 137.101 128.11V127.653L137.271 127.004C137.436 126.361 137.931 127.23 138.508 127.258C139.085 127.286 139.607 127.23 139.662 126.807C139.717 126.383 139.662 126.807 139.662 125.887C139.662 124.967 139.662 125.537 140.244 125.514L141.316 125.887C141.774 126.049 142.242 126.181 142.717 126.282C143.459 126.434 143.047 127.004 143.047 127.004L144.146 127.365H145.712L146.262 128.02L146.811 128.11H147.834L148.246 127.365C148.447 127.213 148.67 127.091 148.905 127.004C149.239 127.007 149.572 127.055 149.894 127.145H150.444C150.993 127.145 150.906 126.338 150.906 126.338L151.235 125.904L151.406 125.531L152.148 124.532L152.659 124.007C153.164 123.483 152.889 123.262 152.889 123.262L152.659 122.698C152.422 122.134 153.137 122.63 153.137 122.63C153.614 122.79 154.082 122.979 154.538 123.195C155.45 123.595 155.285 122.884 155.368 122.63C155.416 121.997 155.272 121.364 154.956 120.819C154.538 119.972 154.956 120.819 154.708 120.965C154.529 121.079 154.318 121.128 154.108 121.106C153.898 121.083 153.702 120.99 153.549 120.841C153.627 120.686 153.668 120.514 153.668 120.339C153.668 120.164 153.627 119.992 153.549 119.837C153.302 119.188 152.972 119.803 152.56 119.837C152.273 119.857 151.987 119.792 151.735 119.651C151.571 119.572 151.483 119.306 150.988 119.148C150.493 118.99 150.658 119.148 149.916 120.204H149.504C149.504 120.204 149.339 120.768 149.092 120.853C148.897 120.887 148.696 120.857 148.518 120.766C148.34 120.676 148.195 120.53 148.103 120.35C147.938 119.955 149.01 119.814 149.834 119.555C150.658 119.295 149.422 118.426 149.422 118.426L149.339 117.681L149.01 117.342C148.68 117.004 148.02 117.173 147.773 116.406C147.526 115.638 148.02 116.073 147.603 115.604C147.383 115.344 147.123 115.123 146.833 114.95C146.833 114.95 144.8 115.48 144.141 114.95C143.481 114.419 143.393 115.119 143.393 115.119L142.613 116.106V117.32H140.964L140.415 116.501C140.415 116.501 139.673 115.023 140.167 114.916C140.662 114.808 140.832 114.916 140.832 114.916L141.409 114.255C141.409 114.255 142.14 114.323 142.223 114.097C142.305 113.872 141.975 113.053 141.975 113.053L140.986 112.291L140.404 112.043C139.827 111.795 139.662 111.699 139.662 111.699L139.332 111.4C139.002 111.101 138.783 111.783 138.508 111.806C138.233 111.829 137.436 111.022 137.189 110.508C136.942 109.995 138.096 110.423 138.425 110.192C138.755 109.961 139.002 109.577 139.002 108.403C139.002 107.229 138.59 108.307 138.26 108.471C137.775 108.65 137.24 108.626 136.771 108.403C136.112 108.16 136.606 108.053 136.194 108.064C135.782 108.076 133.969 108.403 133.969 108.403C133.969 108.403 133.529 108.967 133.095 109.532V129.905L135.287 129.91Z" fill="#7AA6FF"/>
<path d="M141.409 109.594C140.568 108.358 142.717 108.466 142.965 108.595C143.327 108.677 143.702 108.677 144.064 108.595V108.082C144.064 108.082 144.613 108.082 144.888 108.082C145.163 108.082 145.547 107.591 145.63 108.127C145.672 108.526 145.672 108.93 145.63 109.329C145.63 109.594 145.454 109.972 145.668 110.209C145.883 110.446 144.888 110.717 144.888 111.005C144.888 111.293 145.218 112.698 144.558 111.823C143.899 110.949 144.058 110.661 143.564 110.424L143.069 110.187C143.069 110.187 142.333 110.954 141.409 109.594Z" fill="#7AA6FF"/>
<path d="M137.354 103.403L137.189 103.064H136.64C136.295 102.645 135.928 102.246 135.54 101.868C135.978 101.992 136.444 101.944 136.848 101.733H133.1V106.309C133.152 106.385 133.228 106.441 133.315 106.467C133.868 106.527 134.427 106.479 134.963 106.326C135.458 106.191 134.963 105.948 134.963 105.271C134.963 104.594 135.513 105.271 135.513 105.271L136.062 104.995C136.293 104.791 136.464 104.525 136.557 104.227C136.727 103.713 136.914 104.227 136.914 104.227L137.64 104.458C137.64 104.458 138.294 104.487 138.294 104.227C138.294 103.967 137.354 103.403 137.354 103.403Z" fill="#7AA6FF"/>
<path d="M158.401 125.954C158.33 126.18 158.313 126.519 158.072 126.693C157.66 126.947 158.072 126.693 157.66 126.693C157.247 126.693 157 127.134 157.209 127.794L156.577 127.89V127.478L155.516 127.224L155.379 127.258C155.085 127.647 154.896 128.108 154.829 128.595C154.281 128.638 153.729 128.638 153.181 128.595C152.356 128.528 153.181 129.03 153.181 129.03L154.5 129.261L155 129.03C155.494 128.804 155.906 129.718 155.906 129.718C156.091 129.313 156.312 128.925 156.566 128.561C156.813 128.291 157.39 128.669 158.05 128.595L158.379 128.409L158.401 125.954Z" fill="#7AA6FF"/>
</g>
</g>
<path d="M158.401 101.733H133.095V130.018H158.401V101.733Z" stroke="#263238" stroke-linecap="round" stroke-linejoin="round"/>
<path d="M78.3597 139.679C78.3597 139.679 91.1697 161.582 92.3512 168.461C93.5162 175.234 72.2158 214.174 74.2601 219.456C76.3044 224.738 77.7058 229.914 81.3548 231.64C85.0037 233.367 83.1573 234.383 80.6348 234.671C78.1124 234.959 72.2268 233.875 69.2537 230.128C66.2807 226.381 62.6592 228.068 61.6645 225.207C60.7687 222.577 62.0986 221.561 65.2695 216.363C68.4404 211.166 71.0343 197.334 71.8091 190.132C73.172 177.468 78.4971 168.969 78.4971 168.969C78.4971 168.969 69.7648 160.227 65.1541 151.57L78.3597 139.679Z" fill="#BFBFBF" stroke="#263238" stroke-linecap="round" stroke-linejoin="round"/>
<path d="M64.5773 151.677C64.5773 151.677 63.4782 174.437 62.6649 178.58C61.8516 182.722 60.4667 187.937 59.8238 191.515C57.2574 205.471 52.5862 217.063 53.3391 225.748C53.5534 228.209 55.2186 230.675 59.1698 233.615C63.2419 236.64 69.0891 236.166 68.0615 237.803C64.2531 243.858 54.658 238.965 49.7615 239.236C47.4919 239.366 42.4361 240.839 42.3756 236.16C42.3262 232.588 44.0243 230.573 44.7607 225.748C46.6731 213.575 44.2661 204.156 45.1289 196.707C46.3159 186.52 49.3879 182.598 48.2668 176.057C47.1457 169.516 44.9695 156.61 43.5846 144.651C42.1998 132.692 64.5773 151.677 64.5773 151.677Z" fill="#BFBFBF" stroke="#263238" stroke-linecap="round" stroke-linejoin="round"/>
<path d="M61.2468 66.1784C61.2468 66.1784 67.0171 64.1806 69.49 63.9887C71.1387 63.8589 75.9472 61.0541 75.9472 61.0541C75.9472 61.0541 76.4198 59.773 76.9639 59.7673C79.849 59.7673 84.707 65.14 85.3774 70.253C86.0809 75.6143 82.4429 76.0037 82.4429 76.0037C78.1674 83.4814 75.5625 80.9644 73.3149 86.3088C72.1224 89.1418 61.2468 66.1784 61.2468 66.1784Z" fill="#7AA6FF"/>
<mask id="mask8_301_650" style="mask-type:luminance" maskUnits="userSpaceOnUse" x="61" y="59" width="25" height="28">
<path d="M61.2468 66.1784C61.2468 66.1784 67.0171 64.1806 69.49 63.9887C71.1387 63.8589 75.9472 61.0541 75.9472 61.0541C75.9472 61.0541 76.4198 59.773 76.9639 59.7673C79.849 59.7673 84.707 65.14 85.3774 70.253C86.0809 75.6143 82.4429 76.0037 82.4429 76.0037C78.1674 83.4814 75.5625 80.9644 73.3149 86.3088C72.1224 89.1418 61.2468 66.1784 61.2468 66.1784Z" fill="white"/>
</mask>
<g mask="url(#mask8_301_650)">
<path opacity="0.2" d="M83.4102 75.6704C83.107 75.8381 82.7779 75.9507 82.4375 76.0034C78.162 83.481 75.5571 80.964 73.3095 86.3084C73.0292 86.9744 72.2104 86.2238 71.1443 84.6831L71.6938 71.2008C71.6938 71.2008 74.7878 75.0835 77.6124 77.0531C77.6124 77.0531 76.1616 74.4289 77.6124 74.1241C78.4697 73.9379 80.7668 74.9932 83.4102 75.6704Z" fill="black" fill-opacity="0.7"/>
</g>
<path d="M61.2468 66.1784C61.2468 66.1784 67.0171 64.1806 69.49 63.9887C71.1387 63.8589 75.9472 61.0541 75.9472 61.0541C75.9472 61.0541 76.4198 59.773 76.9639 59.7673C79.849 59.7673 84.707 65.14 85.3774 70.253C86.0809 75.6143 82.4429 76.0037 82.4429 76.0037C78.1674 83.4814 75.5625 80.9644 73.3149 86.3088C72.1224 89.1418 61.2468 66.1784 61.2468 66.1784Z" stroke="#263238" stroke-linecap="round" stroke-linejoin="round"/>
<path d="M82.9707 73.1761C88.8783 65.3937 96.7918 54.8347 95.3904 51.4824C93.9891 48.1302 84.8721 45.1617 80.6626 43.9258C76.453 42.6899 68.2428 40.3252 68.2428 40.3252C68.2428 40.3252 62.1318 35.184 61.324 35.184C60.5162 35.184 56.3231 37.8308 56.3231 37.8308C56.3231 37.8308 58.2246 44.3378 58.3125 44.0387C58.4004 43.7396 67.7372 44.2757 72.8535 48.8244C75.9161 51.5524 79.4454 53.6726 83.2619 55.0774C81.5226 57.228 79.6128 59.227 77.5521 61.0538C77.3013 63.2317 77.5769 65.4394 78.3545 67.4818C80.1625 72.5271 82.9707 73.1761 82.9707 73.1761Z" fill="#BFBFBF" stroke="#263238" stroke-linecap="round" stroke-linejoin="round"/>
<path d="M73.8864 106.061C73.7435 113.262 71.5948 123.759 63.7583 124.577C55.9217 125.396 43.7987 124.476 35.4841 128.076C27.1694 131.677 27.3728 121.27 27.3728 121.27C27.3728 121.27 39.5947 101.315 44.3043 94.7458C49.0139 88.1767 70.5452 83.3289 70.5452 83.3289C70.5452 83.3289 74.1172 94.1306 73.8864 106.061Z" fill="#263238" stroke="#263238" stroke-linecap="round" stroke-linejoin="round"/>
<path d="M37.0999 76.2294C42.5075 70.2529 53.9655 68.368 53.9655 68.368C53.9655 68.368 65.8852 71.8388 68.556 79.5196C71.2268 87.2004 71.4906 102.449 71.4906 102.449L73.8976 130.368C73.8976 130.368 53.5644 134.16 45.5629 131.942C45.5629 131.942 46.1949 112.624 43.2164 103.725C40.2378 94.8248 33.4399 80.2589 37.0999 76.2294Z" fill="#BFBFBF" stroke="#263238" stroke-linecap="round" stroke-linejoin="round"/>
<path d="M65.2861 66.2685C60.6095 65.7832 55.136 67.4819 55.136 67.4819C60.6864 69.6095 65.2971 77.0758 65.2971 77.0758C69.3143 82.2284 73.0183 97.6521 73.8865 106.083C73.8865 106.083 74.4361 72.7247 70.3475 68.3905" fill="#7AA6FF"/>
<path d="M65.2861 66.2685C60.6095 65.7832 55.136 67.4819 55.136 67.4819C60.6864 69.6095 65.2971 77.0758 65.2971 77.0758C69.3143 82.2284 73.0183 97.6521 73.8865 106.083C73.8865 106.083 74.4361 72.7247 70.3475 68.3905" stroke="#263238" stroke-linecap="round" stroke-linejoin="round"/>
<path d="M46.8049 76.6415C46.8049 76.6415 55.0481 77.7702 57.4936 77.6686C58.2301 77.654 58.9599 77.8133 59.6269 78.1342C60.2939 78.4552 60.8801 78.9292 61.3405 79.5197" fill="#BFBFBF"/>
<path d="M46.8049 76.6415C46.8049 76.6415 55.0481 77.7702 57.4936 77.6686C58.2301 77.654 58.9599 77.8133 59.6269 78.1342C60.2939 78.4552 60.8801 78.9292 61.3405 79.5197" stroke="#263238" stroke-linecap="round" stroke-linejoin="round"/>
<path d="M65.2202 75.2023C65.2202 75.2023 62.4724 77.2565 62.3405 77.2565C62.2856 77.8044 62.2856 78.3566 62.3405 78.9044" fill="#BFBFBF"/>
<path d="M65.2202 75.2023C65.2202 75.2023 62.4724 77.2565 62.3405 77.2565C62.2856 77.8044 62.2856 78.3566 62.3405 78.9044" stroke="#263238" stroke-linecap="round" stroke-linejoin="round"/>
<path d="M48.9425 65.3993C55.7844 64.9196 61.4777 68.142 64.4782 70.2019C67.4787 72.2618 69.4846 76.6468 69.4846 76.6468L65.297 73.509V77.0588C65.297 77.0588 51.9485 67.4253 45.5518 71.0766C45.5518 71.071 44.4582 65.704 48.9425 65.3993Z" fill="#7AA6FF"/>
<mask id="mask9_301_650" style="mask-type:luminance" maskUnits="userSpaceOnUse" x="45" y="65" width="25" height="13">
<path d="M48.9425 65.3993C55.7844 64.9196 61.4777 68.142 64.4782 70.2019C67.4787 72.2618 69.4846 76.6468 69.4846 76.6468L65.297 73.509V77.0588C65.297 77.0588 51.9485 67.4253 45.5518 71.0766C45.5518 71.071 44.4582 65.704 48.9425 65.3993Z" fill="white"/>
</mask>
<g mask="url(#mask9_301_650)">
<path opacity="0.2" d="M64.3738 76.4214C61.4283 74.4575 52.1079 68.718 46.5355 70.6368C46.5355 69.6944 46.9752 68.4641 48.6403 67.4821C51.7013 65.6875 62.89 69.209 64.3738 76.4214Z" fill="black" fill-opacity="0.7"/>
</g>
<path d="M48.9425 65.3993C55.7844 64.9196 61.4777 68.142 64.4782 70.2019C67.4787 72.2618 69.4846 76.6468 69.4846 76.6468L65.297 73.509V77.0588C65.297 77.0588 51.9485 67.4253 45.5518 71.0766C45.5518 71.071 44.4582 65.704 48.9425 65.3993Z" stroke="#263238" stroke-linecap="round" stroke-linejoin="round"/>
<path d="M48.9427 71.2805C51.3113 64.7114 49.8935 59.8919 49.8935 59.8919C51.1453 59.7827 52.402 59.7451 53.6579 59.779C56.9551 59.8749 61.2086 60.5409 61.3076 63.3739C61.3431 64.6622 61.2991 65.9515 61.1757 67.2341C60.9149 69.9093 60.5206 72.569 59.9941 75.2027" fill="#BFBFBF"/>
<path d="M48.9427 71.2805C51.3113 64.7114 49.8935 59.8919 49.8935 59.8919C51.1453 59.7827 52.402 59.7451 53.6579 59.779C56.9551 59.8749 61.2086 60.5409 61.3076 63.3739C61.3431 64.6622 61.2991 65.9515 61.1757 67.2341C60.9149 69.9093 60.5206 72.569 59.9941 75.2027" stroke="#263238" stroke-linecap="round" stroke-linejoin="round"/>
<path d="M61.1755 67.2334C54.0809 65.9749 54.0809 61.7253 54.0809 61.7253L53.6577 59.7783C56.955 59.8743 61.2085 60.5402 61.3074 63.3732C61.343 64.6615 61.2989 65.9508 61.1755 67.2334Z" fill="#263238"/>
<path d="M38.7485 56.8214C38.0671 60.072 44.9584 60.1454 56.5978 52.8709C68.2372 45.5964 72.3478 40.5173 67.5338 38.4292C62.7198 36.3411 41.26 44.6878 38.7485 56.8214Z" fill="#7AA6FF"/>
<mask id="mask10_301_650" style="mask-type:luminance" maskUnits="userSpaceOnUse" x="38" y="38" width="32" height="21">
<path d="M38.7485 56.8214C38.0671 60.072 44.9584 60.1454 56.5978 52.8709C68.2372 45.5964 72.3478 40.5173 67.5338 38.4292C62.7198 36.3411 41.26 44.6878 38.7485 56.8214Z" fill="white"/>
</mask>
<g mask="url(#mask10_301_650)">
<path opacity="0.2" d="M42.7326 56.8214C41.3478 56.8666 42.848 49.8574 53.1136 44.4057C63.3791 38.9541 66.3522 41.4993 65.8081 43.277C65.2641 45.0547 50.0581 56.5844 42.7326 56.8214Z" fill="black" fill-opacity="0.7"/>
</g>
<path d="M38.7485 56.8214C38.0671 60.072 44.9584 60.1454 56.5978 52.8709C68.2372 45.5964 72.3478 40.5173 67.5338 38.4292C62.7198 36.3411 41.26 44.6878 38.7485 56.8214Z" stroke="#263238" stroke-linecap="round" stroke-linejoin="round"/>
<path d="M53.1137 61.6917C53.9545 64.1579 60.3347 65.5575 62.5604 64.948C64.1321 64.5191 64.819 61.9231 65.1872 58.6103C65.6763 54.2648 64.3629 52.7185 64.3519 49.434C64.3519 45.2465 60.9502 40.9066 59.2301 40.1109C54.2238 37.7914 45.5354 41.3638 45.5519 46.4655C45.5794 52.346 46.7774 56.5448 48.5085 59.4907C48.9662 60.1579 49.5755 60.7003 50.2835 61.0709" fill="#BFBFBF"/>
<path d="M53.1137 61.6917C53.9545 64.1579 60.3347 65.5575 62.5604 64.948C64.1321 64.5191 64.819 61.9231 65.1872 58.6103C65.6763 54.2648 64.3629 52.7185 64.3519 49.434C64.3519 45.2465 60.9502 40.9066 59.2301 40.1109C54.2238 37.7914 45.5354 41.3638 45.5519 46.4655C45.5794 52.346 46.7774 56.5448 48.5085 59.4907C48.9662 60.1579 49.5755 60.7003 50.2835 61.0709" stroke="#263238" stroke-linecap="round" stroke-linejoin="round"/>
<path d="M62.3406 47.7577C62.6311 47.6283 62.9444 47.5615 63.2611 47.5615C63.5777 47.5615 63.891 47.6283 64.1816 47.7577" stroke="#263238" stroke-linecap="round" stroke-linejoin="round"/>
<path d="M59.0817 48.2713C58.4753 48.1485 57.8481 48.1913 57.2627 48.3953C56.6774 48.5993 56.1544 48.9574 55.746 49.4339" stroke="#263238" stroke-linecap="round" stroke-linejoin="round"/>
<path d="M58.7245 51.4264C58.7795 51.8609 58.6421 52.239 58.4113 52.2729C58.1805 52.3068 57.9552 51.9738 57.8947 51.5392C57.8343 51.1047 57.9827 50.7209 58.208 50.6927C58.4333 50.6645 58.6696 50.9862 58.7245 51.4264Z" fill="#263238"/>
<path d="M63.8354 50.5116C63.8958 50.9462 63.7529 51.3243 63.5276 51.3582C63.3023 51.392 63.066 51.059 63.011 50.6245C62.9561 50.1899 63.0935 49.8062 63.3243 49.778C63.5551 49.7498 63.7804 50.0771 63.8354 50.5116Z" fill="#263238"/>
<path d="M62.0604 48.3847C62.0604 48.3847 61.5878 50.3543 61.923 51.2403C62.2582 52.1263 65.4181 54.1072 65.2203 55.1908C65.0224 56.2743 61.4559 56.438 61.3185 55.7551" fill="#BFBFBF"/>
<path d="M62.0604 48.3847C62.0604 48.3847 61.5878 50.3543 61.923 51.2403C62.2582 52.1263 65.4181 54.1072 65.2203 55.1908C65.0224 56.2743 61.4559 56.438 61.3185 55.7551" stroke="#263238" stroke-linecap="round" stroke-linejoin="round"/>
<path d="M64.1817 58.1198C62.3 58.8206 60.2596 58.9403 58.3125 58.464" stroke="#263238" stroke-linecap="round" stroke-linejoin="round"/>
<path d="M61.313 41.9451C61.313 41.9451 61.0602 42.7917 58.6422 42.5095C56.2242 42.2273 52.7236 43.1077 52.7236 43.1077C52.7236 43.1077 55.1416 45.4554 54.3722 46.934C53.6028 48.4126 52.0366 51.0707 52.784 53.2942C51.8017 53.9186 50.974 54.7686 50.366 55.7774C49.6186 57.2334 50.7562 59.4908 49.8714 60.817C48.9866 62.1433 44.3759 57.1149 43.5296 51.4827C42.6833 45.8504 42.9471 41.6065 49.1185 39.3604C55.2899 37.1143 60.9777 39.4676 61.313 41.9451Z" fill="#263238"/>
<path d="M52.2617 54.1801C52.2617 54.1801 51.1626 50.4102 49.4755 50.6868C47.7884 50.9633 47.0301 55.2637 47.8654 56.2061C48.7007 57.1486 49.8053 59.4906 50.8054 59.4906C51.8056 59.4906 52.2617 57.7976 52.2617 57.7976" fill="#BFBFBF"/>
<path d="M52.2617 54.1801C52.2617 54.1801 51.1626 50.4102 49.4755 50.6868C47.7884 50.9633 47.0301 55.2637 47.8654 56.2061C48.7007 57.1486 49.8053 59.4906 50.8054 59.4906C51.8056 59.4906 52.2617 57.7976 52.2617 57.7976" stroke="#263238" stroke-linecap="round" stroke-linejoin="round"/>
<path d="M60.4941 39.242C60.4941 39.242 57.1968 36.0027 54.6744 35.2352C54.6744 35.2352 54.8942 34.0331 52.6026 34.8909C50.311 35.7487 43.8099 37.8876 41.2215 41.8268C38.6331 45.7659 41.2215 44.6485 41.2215 44.6485C41.2215 44.6485 41.6117 48.915 42.458 50.4839C42.458 50.4896 50.8386 40.7714 60.4941 39.242Z" fill="#7AA6FF" stroke="#263238" stroke-linecap="round" stroke-linejoin="round"/>
<path d="M43.4306 53.2267C43.4306 53.2267 50.1571 41.6349 64.4783 41.7252L67.5063 38.4238C67.5063 38.4238 60.1808 35.4553 48.8711 42.8257C39.5068 48.8699 38.7485 56.8216 38.7485 56.8216L43.4306 53.2267Z" fill="#7AA6FF"/>
<path d="M43.4307 53.2265C43.4307 53.2265 50.1571 41.6347 64.4783 41.725" stroke="#263238" stroke-linecap="round" stroke-linejoin="round"/>
<path d="M67.5063 38.4238C67.5063 38.4238 60.1808 35.4553 48.8711 42.8257C39.5068 48.8699 38.7485 56.8216 38.7485 56.8216" stroke="#263238" stroke-linecap="round" stroke-linejoin="round"/>
<path d="M45.5189 121.835C45.5189 121.835 62.0053 124.024 65.5114 122.608C69.0175 121.191 72.7544 117.8 72.7544 117.8C72.7544 117.8 74.4031 119.673 74.4031 120.429V123.054C74.4031 123.054 75.8539 126.389 75.8539 131.773C75.8539 131.773 85.427 145.097 89.9717 157.519C89.9717 157.519 92.5656 158.083 91.0708 161.345C90.4883 162.632 85.9216 168.952 72.1664 170.691C71.3861 170.786 71.3366 167.575 71.3366 167.575C71.3366 167.575 66.8248 167.079 66.1489 165.188L64.7585 172.367C64.7585 172.367 65.0223 174.585 64.6541 175.126C60.7468 180.77 50.6132 181.741 40.9741 175.837C40.0839 175.273 42.359 171.825 42.359 171.825C40.9961 169.24 43.0899 161.904 43.0899 161.904C43.0899 161.904 40.7213 153.478 41.0236 144.781C41.3258 136.085 45.2001 128.009 45.2001 128.009C45.2001 128.009 44.0021 123.528 45.5189 121.835Z" fill="#263238"/>
<path d="M52.2618 96.5911C54.4803 97.0157 56.7272 97.2647 58.9828 97.336C61.8844 97.336 63.7584 94.5142 63.7584 94.5142" stroke="#263238" stroke-linecap="round" stroke-linejoin="round"/>
<path d="M66.1708 93.9162C66.1708 93.9162 67.5941 94.7909 68.1876 94.5087C69.2974 93.9365 70.2186 93.0415 70.8364 91.9353" stroke="#263238" stroke-linecap="round" stroke-linejoin="round"/>
<path d="M62.6097 101.134C62.6097 101.134 58.9058 106.213 57.4604 110.062Z" fill="#7AA6FF"/>
<path d="M62.6097 101.134C62.6097 101.134 58.9058 106.213 57.4604 110.062" stroke="#263238" stroke-linecap="round" stroke-linejoin="round"/>
<path d="M68.5009 99.7173C69.5458 100.356 70.3642 101.321 70.8364 102.471Z" fill="#7AA6FF"/>
<path d="M68.5009 99.7173C69.5458 100.356 70.3642 101.321 70.8364 102.471" stroke="#263238" stroke-linecap="round" stroke-linejoin="round"/>
<path d="M54.0809 75.2025C54.0809 75.2025 54.3447 83.0188 55.136 88.572C55.9274 94.1252 44.5023 132.208 31.5055 137.755C31.5055 137.755 32.5112 135.148 31.5055 133.878C30.4998 132.608 22.8501 129.736 21.5532 125.007C20.2563 120.277 28.2742 113.883 28.2742 113.883C28.2742 113.883 37.8912 105.644 36.0887 100.502C34.2862 95.3611 34.484 76.6416 34.484 76.6416C37.5954 74.1563 40.9534 72.015 44.5023 70.2532C44.5023 70.2532 48.448 75.8177 50.2835 76.6416C52.119 77.4656 54.0809 75.2025 54.0809 75.2025Z" fill="#7AA6FF"/>
<mask id="mask11_301_650" style="mask-type:luminance" maskUnits="userSpaceOnUse" x="21" y="70" width="35" height="68">
<path d="M54.0809 75.2025C54.0809 75.2025 54.3447 83.0188 55.136 88.572C55.9274 94.1252 44.5023 132.208 31.5055 137.755C31.5055 137.755 32.5112 135.148 31.5055 133.878C30.4998 132.608 22.8501 129.736 21.5532 125.007C20.2563 120.277 28.2742 113.883 28.2742 113.883C28.2742 113.883 37.8912 105.644 36.0887 100.502C34.2862 95.3611 34.484 76.6416 34.484 76.6416C37.5954 74.1563 40.9534 72.015 44.5023 70.2532C44.5023 70.2532 48.448 75.8177 50.2835 76.6416C52.119 77.4656 54.0809 75.2025 54.0809 75.2025Z" fill="white"/>
</mask>
<g mask="url(#mask11_301_650)">
<path opacity="0.2" d="M43.2054 102.472L43.4307 108.358L41.4523 107.85C41.4523 107.85 37.3033 120.006 23.702 118.573C25.0537 116.84 26.587 115.265 28.2742 113.877C28.2742 113.877 37.8913 105.638 36.0888 100.496C35.4238 98.6059 35.0336 94.853 34.8028 90.9025L43.6945 91.2298C43.6945 91.2298 43.0515 93.6396 44.3045 94.7401L45.2607 93.8146C45.2607 93.8146 46.5137 99.5709 43.2054 102.472Z" fill="black" fill-opacity="0.7"/>
</g>
<path d="M54.0809 75.2025C54.0809 75.2025 54.3447 83.0188 55.136 88.572C55.9274 94.1252 44.5023 132.208 31.5055 137.755C31.5055 137.755 32.5112 135.148 31.5055 133.878C30.4998 132.608 22.8501 129.736 21.5532 125.007C20.2563 120.277 28.2742 113.883 28.2742 113.883C28.2742 113.883 37.8912 105.644 36.0887 100.502C34.2862 95.3611 34.484 76.6416 34.484 76.6416C37.5954 74.1563 40.9534 72.015 44.5023 70.2532C44.5023 70.2532 48.448 75.8177 50.2835 76.6416C52.119 77.4656 54.0809 75.2025 54.0809 75.2025Z" stroke="#263238" stroke-linecap="round" stroke-linejoin="round"/>
<path d="M46.6731 68.3677C45.541 71.1104 54.081 75.202 54.081 75.202L52.262 80.964C52.262 80.964 43.2164 74.3724 43.2054 71.2797C43.2054 67.2333 46.0741 65.6362 48.9427 65.3936" fill="#7AA6FF"/>
<path d="M46.6731 68.3677C45.541 71.1104 54.081 75.202 54.081 75.202L52.262 80.964C52.262 80.964 43.2164 74.3724 43.2054 71.2797C43.2054 67.2333 46.0741 65.6362 48.9427 65.3936" stroke="#263238" stroke-linecap="round" stroke-linejoin="round"/>
<path d="M36.9515 146.215C36.9515 146.215 39.2925 146.694 39.8915 150.323C40.4905 153.952 38.9078 174.269 42.4964 174.94C46.0849 175.612 47.173 164.5 47.173 164.5L47.9864 163.935C47.9864 163.935 46.7169 177.051 42.381 175.877C38.0451 174.703 38.5342 165.036 38.7924 161.08C39.0507 157.124 39.8915 148.664 36.2645 148.1L36.9515 146.215Z" fill="#7AA6FF" stroke="#263238" stroke-linecap="round" stroke-linejoin="round"/>
<path d="M40.7874 98.527C40.7874 98.527 38.0397 111.778 38.2925 114.605C38.5453 117.433 39.9411 125.39 38.2925 131.976C36.6438 138.562 36.9571 150.323 36.9571 150.323H30.1427C30.1427 150.323 28.1149 124.25 28.8568 118.449C28.8568 118.449 28.1094 113.685 28.6974 111.603C29.2854 109.521 28.6974 102.822 29.2909 97.3136C29.8844 91.8056 40.7874 98.527 40.7874 98.527Z" fill="#BFBFBF" stroke="#263238" stroke-linecap="round" stroke-linejoin="round"/>
<path d="M42.8591 84.5874C43.6614 87.2906 43.9581 90.0672 43.4086 91.9691C41.8589 97.6126 40.7653 103.99 40.7653 103.99C40.7653 103.99 41.9908 105.683 40.7653 107.325C39.5398 108.967 27.3673 106.49 24.757 103.99C22.1466 101.49 27.3508 100.999 27.3508 100.999C27.3508 100.999 27.3508 93.696 27.3508 92.2343C27.3508 90.7726 29.1039 89.4803 29.1039 86.1111C29.1039 82.7419 31.6318 78.7463 34.462 76.63C35.682 75.7158 36.9459 75.8681 38.1384 76.6921" fill="#7AA6FF"/>
<path d="M42.8591 84.5874C43.6614 87.2906 43.9581 90.0672 43.4086 91.9691C41.8589 97.6126 40.7653 103.99 40.7653 103.99C40.7653 103.99 41.9908 105.683 40.7653 107.325C39.5398 108.967 27.3673 106.49 24.757 103.99C22.1466 101.49 27.3508 100.999 27.3508 100.999C27.3508 100.999 27.3508 93.696 27.3508 92.2343C27.3508 90.7726 29.1039 89.4803 29.1039 86.1111C29.1039 82.7419 31.6318 78.7463 34.462 76.63C35.682 75.7158 36.9459 75.8681 38.1384 76.6921" stroke="#263238" stroke-linecap="round" stroke-linejoin="round"/>
<path d="M43.1448 165.289C43.0679 165.51 42.4909 170.425 42.4909 170.425L43.1448 171.384L42.4909 176.746C42.4909 176.746 37.4185 179.793 33.4343 175.403L34.3026 169.759L35.4567 168.89L36.1876 163.958L43.1448 165.289Z" fill="#757575" stroke="#263238" stroke-linecap="round" stroke-linejoin="round"/>
<path d="M32.8959 166.103L36.1932 168.428C36.4831 168.631 36.8117 168.77 37.1574 168.834C37.503 168.898 37.858 168.887 38.199 168.8L47.4809 166.419C47.8491 166.324 48.1866 166.132 48.4588 165.86C48.731 165.588 48.9283 165.248 49.0306 164.872L49.4153 163.467C49.5601 162.936 49.5482 162.372 49.3809 161.848C49.2136 161.323 48.8985 160.861 48.4755 160.521L44.1506 157.05C43.7167 156.7 43.1743 156.522 42.6229 156.548L31.7363 157.028L32.8959 166.103Z" fill="#757575" stroke="#263238" stroke-linecap="round" stroke-linejoin="round"/>
<path d="M35.6491 158.004L39.1277 161.655L46.4642 160.651L42.6613 157.411L35.6491 158.004Z" fill="#263238"/>
<path d="M36.6603 168.676C35.8195 168.157 36.5229 164.161 36.9021 163.534C37.2813 162.908 46.9039 161.638 46.9039 161.638" stroke="#263238" stroke-linecap="round" stroke-linejoin="round"/>
<path d="M39.298 166.096C39.199 166.531 38.9023 166.836 38.633 166.768C38.3637 166.7 38.2263 166.305 38.3198 165.865C38.4132 165.425 38.7154 165.131 38.9847 165.193C39.254 165.256 39.3749 165.662 39.298 166.096Z" stroke="#263238" stroke-linecap="round" stroke-linejoin="round"/>
<path d="M42.7436 165.645C42.5788 166.373 42.0842 166.875 41.6445 166.774C41.2049 166.672 40.9576 165.995 41.095 165.267C41.2324 164.539 41.7544 164.031 42.1941 164.138C42.6337 164.246 42.903 164.911 42.7436 165.645Z" stroke="#263238" stroke-linecap="round" stroke-linejoin="round"/>
<path d="M34.3082 169.748C34.3082 169.748 35.2699 171.537 37.9627 172.146C40.6554 172.756 42.2271 171.785 42.2271 171.785" stroke="#263238" stroke-linecap="round" stroke-linejoin="round"/>
<path d="M42.4964 170.42C42.4964 170.42 38.6496 171.086 36.2645 169.443" stroke="#263238" stroke-linecap="round" stroke-linejoin="round"/>
<path d="M29.9557 147.795C29.4776 150.018 26.2297 158.664 26.2297 159.934C26.2297 161.204 28.2576 161.345 28.4279 162.236C28.5983 163.128 31.0108 164.161 31.0108 164.161L31.8846 166.689C32.5798 167.506 33.5409 168.036 34.5883 168.179C36.4238 168.478 34.7807 166.689 34.6213 166.243C34.462 165.797 34.9236 162.524 34.6213 161.779C34.3191 161.034 37.9681 157.462 38.2923 158.359C38.6165 159.257 38.1164 161.034 38.2923 162.078C38.4682 163.122 40.2872 164.308 39.9959 162.671C39.7046 161.034 41.8039 155.763 39.9959 154.488C39.1416 153.789 38.431 152.923 37.9055 151.939C37.3801 150.956 37.0501 149.875 36.9349 148.76" fill="#BFBFBF"/>
<path d="M29.9557 147.795C29.4776 150.018 26.2297 158.664 26.2297 159.934C26.2297 161.204 28.2576 161.345 28.4279 162.236C28.5983 163.128 31.0108 164.161 31.0108 164.161L31.8846 166.689C32.5798 167.506 33.5409 168.036 34.5883 168.179C36.4238 168.478 34.7807 166.689 34.6213 166.243C34.462 165.797 34.9236 162.524 34.6213 161.779C34.3191 161.034 37.9681 157.462 38.2923 158.359C38.6165 159.257 38.1164 161.034 38.2923 162.078C38.4682 163.122 40.2872 164.308 39.9959 162.671C39.7046 161.034 41.8039 155.763 39.9959 154.488C39.1416 153.789 38.431 152.923 37.9055 151.939C37.3801 150.956 37.0501 149.875 36.9349 148.76" stroke="#263238" stroke-linecap="round" stroke-linejoin="round"/>
<path d="M35.6491 164.336C35.6491 164.336 28.8017 156.102 29.8404 146.215L28.8567 150.323C28.8567 150.323 29.126 160.205 35.6491 165.984V164.336Z" fill="#7AA6FF" stroke="#263238" stroke-linecap="round" stroke-linejoin="round"/>
<path d="M45.7939 91.2358C45.7939 91.2358 46.195 94.7179 42.2273 96.8455" stroke="#263238" stroke-linecap="round" stroke-linejoin="round"/>
<path d="M41.4523 100.502C41.4523 100.502 42.0953 105.971 44.0187 109.616" stroke="#263238" stroke-linecap="round" stroke-linejoin="round"/>
<path d="M66.1708 163.495C66.1708 163.495 66.2697 158.562 67.715 157.411C68.358 156.903 67.9953 151.085 68.1876 150.769C68.38 150.453 73.6171 145.266 73.9194 142.715" stroke="white" stroke-linecap="round" stroke-linejoin="round"/>
<path d="M71.2047 153.015C71.2047 153.015 75.3648 154.516 77.6839 153.015" stroke="white" stroke-linecap="round" stroke-linejoin="round"/>
<path d="M88.9881 158.004C88.9881 158.004 79.5414 160.533 74.4471 158.004" stroke="white" stroke-linecap="round" stroke-linejoin="round"/>
<path d="M72.3203 138.867C72.3203 138.867 67.7591 150.216 58.0321 157.411" stroke="white" stroke-linecap="round" stroke-linejoin="round"/>
<path d="M66.1709 131.384C69.133 128.223 65.7588 124.239 65.7588 124.239C65.7588 124.239 71.0509 128.037 70.908 125.21C70.7651 122.382 65.7972 123.962 65.7972 123.962C65.7972 123.962 60.1259 123.996 60.7579 127.349C61.3899 130.701 65.7972 124.674 65.7972 124.674C65.7972 124.674 65.5444 129.651 61.5602 131.18" stroke="white" stroke-linecap="round" stroke-linejoin="round"/>
<path d="M47.9864 123.527C47.1731 124.323 47.9864 128.116 47.9864 128.116C47.9864 128.116 44.4529 142.49 45.4311 148.81C46.4093 155.131 46.052 157.389 46.052 157.389" stroke="white" stroke-linecap="round" stroke-linejoin="round"/>
<path d="M65.8082 135.255C65.8082 135.255 65.1653 140.949 66.1709 141.728C67.1766 142.507 67.3909 145.3 67.3909 145.3" stroke="white" stroke-linecap="round" stroke-linejoin="round"/>
</svg>
