<svg width="336" height="250" viewBox="0 0 336 250" fill="none" xmlns="http://www.w3.org/2000/svg">
<path d="M335.516 219.696H0V219.864H335.516V219.696Z" fill="#EBEBEB"/>
<path d="M301.898 230.493H279.673V230.661H301.898V230.493Z" fill="#EBEBEB"/>
<path d="M222.259 232.318H216.428V232.486H222.259V232.318Z" fill="#EBEBEB"/>
<path d="M279.002 224.266H266.125V224.434H279.002V224.266Z" fill="#EBEBEB"/>
<path d="M64.1843 225.393H35.2024V225.561H64.1843V225.393Z" fill="#EBEBEB"/>
<path d="M74.4108 225.393H70.1632V225.561H74.4108V225.393Z" fill="#EBEBEB"/>
<path d="M151.083 228.225H88.2206V228.393H151.083V228.225Z" fill="#EBEBEB"/>
<path d="M159.035 189.768H29.465C28.45 189.766 27.4771 189.362 26.76 188.643C26.0429 187.925 25.6402 186.952 25.6402 185.937V3.79805C25.649 2.78883 26.0557 1.82385 26.7718 1.11272C27.488 0.401585 28.4558 0.00172884 29.465 0H159.035C160.051 0 161.026 0.403685 161.744 1.12225C162.463 1.84081 162.866 2.81539 162.866 3.8316V185.937C162.866 186.953 162.463 187.927 161.744 188.646C161.026 189.364 160.051 189.768 159.035 189.768ZM29.465 0.134207C28.4945 0.135985 27.5643 0.522778 26.8787 1.20969C26.193 1.8966 25.8079 2.8275 25.8079 3.79805V185.937C25.8079 186.907 26.193 187.838 26.8787 188.525C27.5643 189.212 28.4945 189.599 29.465 189.6H159.035C160.006 189.599 160.937 189.212 161.624 188.525C162.31 187.839 162.697 186.908 162.699 185.937V3.79805C162.697 2.82688 162.31 1.896 161.624 1.20928C160.937 0.52256 160.006 0.135981 159.035 0.134207H29.465Z" fill="#EBEBEB"/>
<path d="M304.186 189.768H174.609C173.594 189.766 172.62 189.362 171.902 188.644C171.184 187.926 170.78 186.952 170.778 185.937V3.79805C170.788 2.78822 171.197 1.82325 171.914 1.1123C172.631 0.401351 173.6 0.00170999 174.609 0H304.186C305.194 0.00349239 306.16 0.404129 306.875 1.11507C307.59 1.82602 307.995 2.78999 308.004 3.79805V185.937C308.004 186.95 307.602 187.923 306.887 188.641C306.171 189.359 305.2 189.765 304.186 189.768ZM174.609 0.134207C173.638 0.135981 172.707 0.52256 172.021 1.20928C171.334 1.896 170.947 2.82688 170.946 3.79805V185.937C170.947 186.908 171.334 187.839 172.021 188.525C172.707 189.212 173.638 189.599 174.609 189.6H304.186C305.157 189.599 306.088 189.212 306.775 188.525C307.461 187.839 307.848 186.908 307.85 185.937V3.79805C307.848 2.82688 307.461 1.896 306.775 1.20928C306.088 0.52256 305.157 0.135981 304.186 0.134207H174.609Z" fill="#EBEBEB"/>
<path d="M253.832 177.589V187.118L257.858 190.043H239.069L245.068 187.815V178.253L253.832 177.589Z" fill="#E0E0E0"/>
<path d="M203.148 189.768V219.783H287.028V189.768H203.148ZM204.658 191.714H270.312V201.525H204.665L204.658 191.714Z" fill="#E0E0E0"/>
<path d="M203.148 189.768V219.783H272.332V189.768H203.148ZM204.658 191.714H270.312V201.525H204.665L204.658 191.714Z" fill="#EBEBEB"/>
<path d="M204.658 201.525H218.186V191.714H204.658V201.525Z" fill="#E0E0E0"/>
<path d="M253.57 201.525H270.312V196.619H253.57V201.525Z" fill="#E0E0E0"/>
<path d="M239.733 201.525H252.335V198.612H239.733V201.525Z" fill="#E0E0E0"/>
<path d="M224.816 201.525H236.821V195.566H224.816V201.525Z" fill="#E0E0E0"/>
<path d="M258.415 203.658L258.77 204.833H263.588L263.951 203.658H270.312V216.683H249.195V203.658H258.415Z" fill="#E0E0E0"/>
<path d="M233.318 203.658L233.68 204.833H238.498L238.861 203.658H248.074V216.683H226.957V203.658H233.318Z" fill="#E0E0E0"/>
<path d="M213.939 203.658L214.294 204.833H219.112L219.475 203.658H225.836V216.683H204.719V203.658H213.939Z" fill="#E0E0E0"/>
<path d="M215.415 183.286H277.814C279.123 183.286 280.183 182.225 280.183 180.917V145.091C280.183 143.782 279.123 142.722 277.814 142.722H215.415C214.107 142.722 213.046 143.782 213.046 145.091V180.917C213.046 182.225 214.107 183.286 215.415 183.286Z" fill="#E0E0E0"/>
<path d="M213.838 183.286H276.237C277.546 183.286 278.606 182.225 278.606 180.917V145.091C278.606 143.782 277.546 142.722 276.237 142.722H213.838C212.53 142.722 211.469 143.782 211.469 145.091V180.917C211.469 182.225 212.53 183.286 213.838 183.286Z" fill="#E6E6E6"/>
<path d="M276.633 181.313V144.688H213.442V181.313H276.633Z" fill="#F0F0F0"/>
<path d="M128.261 35.3232H48.6566V117.578H128.261V35.3232Z" fill="#EBEBEB"/>
<path d="M131.046 35.3232H51.4413V117.578H131.046V35.3232Z" fill="#F0F0F0"/>
<path d="M128.939 37.2759H53.4478V115.673H128.939V37.2759Z" fill="#E0E0E0"/>
<path d="M127.053 37.2759H53.4478V115.673H127.053V37.2759Z" fill="#F5F5F5"/>
<path d="M91.0122 37.2759H89.5158V115.673H91.0122V37.2759Z" fill="#EBEBEB"/>
<path d="M99.588 37.2759L120.564 115.666H122.578L101.601 37.2759H99.588Z" fill="white"/>
<path d="M91.6497 36.068H90.368V117.176H91.6497V36.068Z" fill="#F0F0F0"/>
<path d="M107.197 37.2759L127.053 111.465V70.6866L118.115 37.2759H107.197Z" fill="white"/>
<path d="M53.4478 44.3888V51.9111L70.5121 115.666H72.5252L53.4478 44.3888Z" fill="white"/>
<path d="M53.4478 59.5811V100.36L57.5411 115.666H68.4521L53.4478 59.5811Z" fill="white"/>
<path d="M268.111 40.0137H219.911V98.6619H268.111V40.0137Z" fill="#E6E6E6"/>
<path d="M257.079 84.1342L231.755 59.2388L259.153 54.7161L257.079 84.1342Z" fill="#E0E0E0"/>
<path d="M232.365 78.2357L231.11 59.1448L250.181 63.8286L251.564 78.4303L232.365 78.2357Z" fill="#F0F0F0"/>
<path d="M262.755 56.8118C265.76 53.806 265.76 48.9327 262.755 45.927C259.749 42.9212 254.876 42.9212 251.87 45.927C248.864 48.9327 248.864 53.806 251.87 56.8118C254.876 59.8176 259.749 59.8176 262.755 56.8118Z" fill="#FAFAFA"/>
<path d="M234.862 85.04C234.863 84.3002 234.645 83.5766 234.234 82.961C233.824 82.3453 233.241 81.8652 232.557 81.5815C231.874 81.2977 231.122 81.2231 230.396 81.3671C229.671 81.5112 229.004 81.8673 228.481 82.3904C227.958 82.9135 227.602 83.5801 227.458 84.3058C227.314 85.0314 227.388 85.7835 227.672 86.4667C227.956 87.15 228.436 87.7337 229.052 88.1438C229.667 88.554 230.391 88.7723 231.131 88.771C232.12 88.7692 233.067 88.3755 233.767 87.6762C234.466 86.9769 234.86 86.029 234.862 85.04Z" fill="#E0E0E0"/>
<path d="M232.01 91.6027L242.786 85.04L233.727 77.5714L232.01 91.6027Z" fill="#F5F5F5"/>
<path d="M244.746 94.3069H246.866V47.4755H244.746V94.3069Z" fill="#E0E0E0"/>
<path d="M224.434 92.2335H227.178V47.4756H224.434V92.2335Z" fill="#EBEBEB"/>
<path d="M249.255 92.4482H263.266V78.4371H249.255V92.4482Z" fill="#EBEBEB"/>
<path d="M89.1802 190.285L80.3092 164.718C80.3092 164.718 92.6025 173.838 92.5354 163.732C92.4683 153.626 86.9256 161.477 85.0131 157.74C83.1007 154.002 90.4686 154.042 87.8784 148.379C85.2882 142.715 77.9404 151.419 76.6386 146.399C75.3368 141.38 73.2835 138.83 67.9152 139.28C67.9152 139.28 65.023 145.882 68.5862 150.654C72.1494 155.425 59.789 151.593 61.064 156.391C62.3389 161.189 66.4322 165.376 68.2507 162.001C70.0692 158.625 72.3574 165.094 69.264 166.765C66.1705 168.436 73.2902 175.656 74.8805 171.865C75.9732 169.346 77.3224 166.947 78.9067 164.705L87.0866 192.063L89.1802 190.285Z" fill="#EBEBEB"/>
<path d="M98.3264 190.513L108.325 174.16C108.325 174.16 98.4338 178.616 100.017 171.63C101.601 164.645 104.238 170.912 106.131 168.617C108.023 166.322 102.91 165.262 105.56 161.705C108.211 158.149 111.982 165.309 113.613 162.034C115.243 158.76 117.082 157.304 120.725 158.424C120.725 158.424 121.732 163.43 118.551 166.195C115.371 168.959 124.483 168.208 122.893 171.308C121.303 174.408 117.82 176.716 117.075 174.106C116.33 171.496 113.76 175.629 115.652 177.247C117.545 178.864 111.506 182.789 110.996 179.931C110.619 178.023 110.048 176.159 109.291 174.368L99.5007 192.063L98.3264 190.513Z" fill="#E6E6E6"/>
<path d="M91.5893 190.667L96.1657 164.329C96.1657 164.329 85.6238 175.18 84.0871 165.309C82.5504 155.438 89.1937 162.216 90.4686 158.263C91.7436 154.311 84.5568 155.532 86.1807 149.593C87.8046 143.655 96.3603 150.976 96.83 145.876C97.2998 140.776 98.9102 137.958 104.211 137.548C104.211 137.548 108.083 143.521 105.379 148.741C102.675 153.962 114.102 148.265 113.633 153.143C113.163 158.022 109.828 162.759 107.526 159.753C105.225 156.747 104.01 163.43 107.291 164.557C110.573 165.685 104.762 173.871 102.628 170.429C101.163 168.148 99.4648 166.025 97.5615 164.094L93.9446 192.063L91.5893 190.667Z" fill="#F5F5F5"/>
<path d="M85.8922 220.28H101.608C102.138 220.281 102.649 220.079 103.035 219.716C103.422 219.353 103.656 218.857 103.688 218.327L105.352 191.244C105.37 190.961 105.329 190.677 105.233 190.411C105.136 190.144 104.986 189.899 104.792 189.693C104.598 189.486 104.364 189.321 104.103 189.208C103.843 189.095 103.562 189.037 103.279 189.037H84.2214C83.9377 189.037 83.6571 189.095 83.3968 189.208C83.1365 189.321 82.9021 189.486 82.7079 189.693C82.5137 189.899 82.3638 190.144 82.2675 190.411C82.1712 190.677 82.1305 190.961 82.1479 191.244L83.812 218.361C83.8527 218.884 84.0896 219.373 84.4754 219.729C84.8612 220.085 85.3673 220.281 85.8922 220.28Z" fill="#EBEBEB"/>
<path d="M82.3693 192.063H105.352C105.863 192.063 106.356 191.875 106.737 191.534C107.119 191.194 107.361 190.725 107.419 190.218C107.454 189.925 107.427 189.629 107.339 189.348C107.251 189.068 107.105 188.809 106.909 188.588C106.714 188.368 106.474 188.192 106.206 188.072C105.937 187.951 105.646 187.889 105.352 187.889H82.3693C82.0763 187.889 81.7866 187.951 81.5192 188.071C81.2518 188.191 81.0127 188.365 80.8176 188.584C80.6225 188.803 80.4758 189.06 80.387 189.339C80.2982 189.618 80.2694 189.913 80.3025 190.204C80.3571 190.714 80.5984 191.186 80.9799 191.529C81.3614 191.873 81.8562 192.063 82.3693 192.063Z" fill="#F5F5F5"/>
<path d="M167.758 250C239.614 250 297.865 246.599 297.865 242.404C297.865 238.209 239.614 234.808 167.758 234.808C95.9024 234.808 37.6517 238.209 37.6517 242.404C37.6517 246.599 95.9024 250 167.758 250Z" fill="#F5F5F5"/>
<path d="M239.109 43.3689V232.245C239.109 232.635 239.032 233.022 238.881 233.383C238.73 233.743 238.508 234.07 238.23 234.344C237.951 234.619 237.621 234.835 237.258 234.98C236.895 235.125 236.507 235.197 236.116 235.19H134.629C134.275 235.196 133.924 235.13 133.596 234.997C133.268 234.864 132.97 234.667 132.719 234.416C132.469 234.166 132.271 233.868 132.139 233.54C132.006 233.212 131.94 232.86 131.945 232.506V43.1273C131.933 42.8139 131.982 42.5011 132.091 42.2068C132.199 41.9125 132.365 41.6426 132.578 41.4126C132.792 41.1825 133.048 40.9968 133.333 40.8661C133.619 40.7355 133.927 40.6625 134.24 40.6512H158.364C158.736 40.6585 159.098 40.7767 159.403 40.9907C159.707 41.2047 159.942 41.5047 160.075 41.8524L161.182 44.5365C161.318 44.8827 161.554 45.1806 161.86 45.3922C162.166 45.6037 162.528 45.7193 162.9 45.7242H208.269C208.637 45.7214 208.997 45.6088 209.302 45.4009C209.607 45.193 209.843 44.8991 209.98 44.5566L211.087 41.8255C211.22 41.4771 211.454 41.1762 211.759 40.9611C212.063 40.746 212.425 40.6264 212.798 40.6177H236.512C237.221 40.6405 237.891 40.9426 238.378 41.458C238.864 41.9734 239.127 42.6604 239.109 43.3689Z" fill="#263238"/>
<path d="M239.116 53.2532H131.959V221.796H239.116V53.2532Z" fill="#407BFF"/>
<path opacity="0.7" d="M239.116 53.2532H131.959V221.796H239.116V53.2532Z" fill="white"/>
<path opacity="0.6" d="M144.614 48.7775H146.003V46.9321H144.614V48.7775Z" fill="white"/>
<path opacity="0.6" d="M142.353 48.7775H143.742V46.3148H142.353V48.7775Z" fill="white"/>
<path opacity="0.6" d="M140.092 48.7775H141.481V45.6974H140.092V48.7775Z" fill="white"/>
<path opacity="0.6" d="M137.83 48.7775H139.219V45.0801H137.83V48.7775Z" fill="white"/>
<path opacity="0.6" d="M226.695 46.2544H225.876V48.0997H226.695V46.2544Z" fill="white"/>
<path opacity="0.6" d="M227.259 48.7775H233.808V45.5766H227.259V48.7775Z" fill="white"/>
<path d="M180.233 69.9888H215.496C215.601 69.9987 215.707 69.9865 215.807 69.9531C215.907 69.9197 215.999 69.8657 216.077 69.7947C216.155 69.7236 216.218 69.637 216.26 69.5404C216.303 69.4439 216.325 69.3394 216.325 69.2339C216.325 69.1283 216.303 69.0238 216.26 68.9273C216.218 68.8307 216.155 68.7441 216.077 68.673C215.999 68.602 215.907 68.548 215.807 68.5146C215.707 68.4812 215.601 68.469 215.496 68.4789H180.233C180.045 68.4967 179.87 68.5839 179.743 68.7235C179.616 68.8631 179.546 69.0451 179.546 69.2339C179.546 69.4226 179.616 69.6046 179.743 69.7442C179.87 69.8838 180.045 69.971 180.233 69.9888Z" fill="#263238"/>
<path d="M223.521 72.787H180.038C179.96 72.7785 179.882 72.7864 179.807 72.8103C179.732 72.8342 179.664 72.8736 179.606 72.9258C179.547 72.978 179.501 73.042 179.469 73.1135C179.437 73.1849 179.42 73.2624 179.42 73.3406C179.42 73.4189 179.437 73.4964 179.469 73.5678C179.501 73.6393 179.547 73.7033 179.606 73.7555C179.664 73.8077 179.732 73.8471 179.807 73.871C179.882 73.8949 179.96 73.9028 180.038 73.8942H223.521C223.657 73.8792 223.783 73.8144 223.875 73.7123C223.966 73.6101 224.017 73.4778 224.017 73.3406C224.017 73.2035 223.966 73.0712 223.875 72.969C223.783 72.8669 223.657 72.8021 223.521 72.787Z" fill="#263238"/>
<path d="M210.765 75.961H180.038C179.96 75.9524 179.882 75.9603 179.807 75.9842C179.732 76.0082 179.664 76.0475 179.606 76.0997C179.547 76.152 179.501 76.2159 179.469 76.2874C179.437 76.3589 179.42 76.4363 179.42 76.5146C179.42 76.5929 179.437 76.6703 179.469 76.7418C179.501 76.8133 179.547 76.8772 179.606 76.9294C179.664 76.9817 179.732 77.021 179.807 77.045C179.882 77.0689 179.96 77.0768 180.038 77.0682H210.765C210.901 77.0532 211.027 76.9884 211.119 76.8862C211.21 76.7841 211.261 76.6517 211.261 76.5146C211.261 76.3775 211.21 76.2451 211.119 76.143C211.027 76.0408 210.901 75.976 210.765 75.961Z" fill="#263238"/>
<path d="M237.834 96.4946H133.234V201.095H237.834V96.4946Z" fill="#407BFF"/>
<path d="M234.466 212.409L231.52 209.866L228.567 212.409V205.417H234.466V212.409Z" fill="#407BFF"/>
<path d="M223.823 205.417H219.381C219.089 205.417 218.809 205.533 218.603 205.739C218.396 205.945 218.28 206.225 218.28 206.517V209.55C218.28 209.842 218.396 210.122 218.603 210.328C218.809 210.535 219.089 210.651 219.381 210.651H220.891V212.409L222.038 210.651H223.823C223.968 210.652 224.111 210.624 224.245 210.569C224.379 210.514 224.501 210.433 224.603 210.33C224.706 210.228 224.787 210.106 224.842 209.972C224.897 209.838 224.924 209.695 224.924 209.55V206.517C224.924 206.372 224.897 206.229 224.842 206.095C224.787 205.961 224.706 205.839 224.603 205.737C224.501 205.635 224.379 205.554 224.245 205.499C224.111 205.444 223.968 205.416 223.823 205.417Z" fill="#407BFF"/>
<path d="M214.918 206.249C214.1 204.907 212.516 205.41 211.697 206.45C210.886 205.403 209.309 204.873 208.47 206.215C207.067 208.47 209.926 210.584 211.281 211.416L211.664 211.651L212.053 211.416C213.388 210.604 216.301 208.524 214.918 206.249Z" fill="#407BFF"/>
<g opacity="0.3">
<path opacity="0.7" d="M216.475 105.299H220.434L218.455 110.432L216.475 105.299Z" fill="white"/>
<path opacity="0.7" d="M229.232 130.851L230.433 134.623L224.944 134.287L229.232 130.851Z" fill="white"/>
<path d="M227.688 114.304L225.809 118.914L231.52 120.907V117.176L227.688 114.304Z" fill="white"/>
<path d="M153.646 104.064H156.552L153.646 107.869V104.064Z" fill="white"/>
<path d="M142.722 122.819L146.01 122.068L146.929 124.893L143.138 126.215L142.722 122.819Z" fill="white"/>
<path d="M175.992 107.869C176.7 107.869 177.273 107.295 177.273 106.587C177.273 105.879 176.7 105.305 175.992 105.305C175.284 105.305 174.71 105.879 174.71 106.587C174.71 107.295 175.284 107.869 175.992 107.869Z" fill="white"/>
<path d="M157.317 192.526C157.317 193.029 157.168 193.521 156.888 193.94C156.608 194.358 156.211 194.684 155.745 194.876C155.28 195.069 154.769 195.119 154.275 195.02C153.782 194.921 153.328 194.678 152.973 194.322C152.618 193.966 152.376 193.512 152.279 193.018C152.181 192.524 152.233 192.013 152.426 191.548C152.62 191.084 152.947 190.687 153.366 190.408C153.785 190.13 154.277 189.982 154.78 189.983C155.114 189.983 155.445 190.049 155.753 190.177C156.061 190.305 156.341 190.492 156.576 190.728C156.812 190.964 156.999 191.245 157.126 191.553C157.253 191.862 157.318 192.192 157.317 192.526Z" fill="white"/>
<path d="M145.071 170.429L146.01 172.019L141.467 173.965L140.434 172.905L145.071 170.429Z" fill="white"/>
<path d="M174.71 196.465L173.824 194.217H177.28L174.71 196.465Z" fill="white"/>
<path d="M211.422 194.217L211.691 191.714L216.428 192.962V196.619L211.422 194.217Z" fill="white"/>
<path d="M221.602 181.313H225.836L223.722 183.816L221.602 181.313Z" fill="white"/>
<path d="M228.567 155.559L227.688 160.873L228.661 161.759L229.574 155.559H228.567Z" fill="white"/>
<path d="M137.716 139.991L141.467 142.715L138.783 144.688L137.716 139.991Z" fill="white"/>
<path d="M154.358 118.424C154.591 118.424 154.78 118.235 154.78 118.001C154.78 117.768 154.591 117.578 154.358 117.578C154.124 117.578 153.935 117.768 153.935 118.001C153.935 118.235 154.124 118.424 154.358 118.424Z" fill="white"/>
<path d="M208.684 113.384C209.011 113.384 209.275 113.12 209.275 112.794C209.275 112.468 209.011 112.203 208.684 112.203C208.358 112.203 208.094 112.468 208.094 112.794C208.094 113.12 208.358 113.384 208.684 113.384Z" fill="white"/>
<path d="M192.835 193.734C192.835 193.86 192.784 193.982 192.695 194.071C192.606 194.16 192.485 194.21 192.358 194.21C192.232 194.21 192.111 194.16 192.021 194.071C191.932 193.982 191.882 193.86 191.882 193.734C191.882 193.608 191.932 193.486 192.021 193.397C192.111 193.308 192.232 193.258 192.358 193.258C192.485 193.258 192.606 193.308 192.695 193.397C192.784 193.486 192.835 193.608 192.835 193.734Z" fill="white"/>
<path d="M198.424 101.762L203.148 101.051V103.353L198.424 104.064V101.762Z" fill="white"/>
<path d="M229.574 104.064H231.124L230.345 105.963L229.574 104.064Z" fill="white"/>
<path d="M140.434 106.587H142.722L141.575 107.869L140.434 106.587Z" fill="white"/>
<path d="M227.178 196.465L226.957 192.063L230.345 193.257L227.178 196.465Z" fill="white"/>
<path d="M230.433 171.134L228.661 169.718V171.134L230.433 172.2V171.134Z" fill="white"/>
<path d="M139.588 156.975L141.575 158.659L140.581 160.162L137.951 158.055L139.588 156.975Z" fill="white"/>
<path d="M137.951 117.578H140.434L137.716 118.424L137.951 117.578Z" fill="white"/>
</g>
<path d="M181.226 113.559L185.715 109.338L190.157 113.599L195.552 110.627L198.8 115.861L204.766 114.331L206.604 120.202H212.764L213.093 126.349L219.059 127.879L217.837 133.918L223.239 136.884L220.562 142.427L225.051 146.641L221.078 151.345L224.38 156.545L219.361 160.115L221.266 165.967L215.522 168.174L215.912 174.321L209.792 175.032L208.644 181.085L202.538 180.246L199.921 185.822L194.217 183.494L190.291 188.245L185.346 184.574L180.367 188.198L176.488 183.413L170.764 185.682L168.201 180.085L162.095 180.857L161.001 174.797L154.888 174.026L155.337 167.886L149.613 165.624L151.573 159.786L146.587 156.17L149.942 151.003L146.01 146.258L150.546 142.091L147.922 136.515L153.351 133.603L152.19 127.557L158.169 126.087L158.552 119.94L164.712 120.001L166.611 114.143L172.563 115.733L175.858 110.533L181.226 113.559Z" fill="#407BFF"/>
<path opacity="0.4" d="M221.75 152.687L225.722 147.99L221.233 143.776L223.917 138.233L218.515 135.267L219.736 129.228L213.771 127.698L213.442 121.551H207.282L205.443 115.679L199.478 117.209L196.23 111.975L190.862 114.948L186.42 110.687L181.93 114.908L176.562 111.881L173.267 117.089L167.315 115.492L165.416 121.35L159.256 121.289L158.874 127.436L152.895 128.906L154.056 134.945L148.627 137.857L151.251 143.433L146.681 147.627L150.613 152.372L147.258 157.539L152.244 161.155L150.285 166.993L156.008 169.255L155.559 175.395L161.672 176.166L162.759 182.206L168.872 181.434L171.436 187.03L177.159 184.762L181.038 189.547L186.017 185.923L190.963 189.594L194.888 184.843L200.592 187.171L203.209 181.595L209.309 182.434L210.463 176.395L216.583 175.683L216.187 169.537L221.937 167.329L220.032 161.471L225.051 157.908L221.75 152.687ZM220.515 157.022L216.079 160.176L217.764 165.349L212.684 167.295L213.033 172.724L207.624 173.355L206.611 178.723L201.243 177.985L198.928 182.91L193.895 180.857L190.426 185.044L186.057 181.803L181.662 185.004L178.24 180.776L173.18 182.789L170.919 177.844L165.517 178.515L164.557 173.147L159.189 172.476L159.592 167.054L154.532 165.041L156.263 159.887L151.861 156.693L154.827 152.13L151.351 147.943L155.378 144.259L152.996 139.307L157.793 136.737L156.767 131.368L162.054 130.073L162.39 124.644L167.825 124.698L169.503 119.525L174.757 120.934L177.669 116.337L182.414 119.021L186.373 115.29L190.298 119.055L195.063 116.431L197.935 121.054L203.202 119.712L204.826 124.906H210.268L210.557 130.342L215.824 131.684L214.751 137.012L219.515 139.629L217.153 144.527L221.119 148.251L217.609 152.405L220.515 157.022Z" fill="black"/>
<path opacity="0.4" d="M181.226 113.559L185.715 109.338L190.157 113.599L195.552 110.627L198.8 115.861L204.766 114.331L206.604 120.202H212.764L213.093 126.349L219.059 127.879L217.837 133.918L223.239 136.884L220.562 142.427L225.051 146.641L221.078 151.345L224.38 156.545L219.361 160.115L221.266 165.967L215.522 168.174L215.912 174.321L209.792 175.032L208.644 181.085L202.538 180.246L199.921 185.822L194.217 183.494L190.291 188.245L185.346 184.574L180.367 188.198L176.488 183.413L170.764 185.682L168.201 180.085L162.095 180.857L161.001 174.797L154.888 174.026L155.337 167.886L149.613 165.624L151.573 159.786L146.587 156.17L149.942 151.003L146.01 146.258L150.546 142.091L147.922 136.515L153.351 133.603L152.19 127.557L158.169 126.087L158.552 119.94L164.712 120.001L166.611 114.143L172.563 115.733L175.858 110.533L181.226 113.559Z" fill="black"/>
<path d="M221.078 151.345L225.051 146.648L220.562 142.433L223.246 136.891L217.844 133.925L219.065 127.885L213.1 126.356L212.771 120.209H206.611L204.772 114.337L198.807 115.867L195.559 110.633L190.191 113.606L185.749 109.345L181.259 113.566L175.891 110.539L172.596 115.747L166.644 114.149L164.745 120.008L158.585 119.947L158.203 126.094L152.224 127.563L153.385 133.603L147.956 136.515L150.58 142.091L146.01 146.285L149.942 151.029L146.587 156.196L151.573 159.813L149.613 165.651L155.337 167.913L154.888 174.053L161.001 174.824L162.088 180.864L168.201 180.092L170.764 185.688L176.488 183.42L180.367 188.205L185.346 184.581L190.291 188.252L194.217 183.501L199.921 185.829L202.538 180.253L208.638 181.092L209.792 175.052L215.912 174.341L215.516 168.194L221.266 165.987L219.361 160.129L224.38 156.565L221.078 151.345ZM219.844 155.68L215.408 158.834L217.093 164.007L212.013 165.953L212.362 171.382L206.953 172.013L205.94 177.381L200.572 176.643L198.257 181.568L193.224 179.515L189.755 183.702L185.386 180.461L180.991 183.662L177.569 179.434L172.509 181.447L170.248 176.502L164.846 177.173L163.886 171.805L158.518 171.134L158.921 165.712L153.861 163.699L155.592 158.545L151.19 155.351L154.156 150.788L150.68 146.601L154.707 142.917L152.324 137.964L157.122 135.394L156.096 130.026L161.383 128.731L161.719 123.302L167.154 123.356L168.832 118.182L174.086 119.592L176.998 114.995L181.743 117.679L185.702 113.948L189.627 117.713L194.391 115.089L197.264 119.712L202.531 118.37L204.155 123.564H209.597L209.886 128.999L215.153 130.341L214.08 135.669L218.844 138.286L216.482 143.185L220.448 146.909L216.938 151.063L219.844 155.68Z" fill="#407BFF"/>
<path opacity="0.6" d="M221.078 151.345L225.051 146.648L220.562 142.433L223.246 136.891L217.844 133.925L219.065 127.885L213.1 126.356L212.771 120.209H206.611L204.772 114.337L198.807 115.867L195.559 110.633L190.191 113.606L185.749 109.345L181.259 113.566L175.891 110.539L172.596 115.747L166.644 114.149L164.745 120.008L158.585 119.947L158.203 126.094L152.224 127.563L153.385 133.603L147.956 136.515L150.58 142.091L146.01 146.285L149.942 151.029L146.587 156.196L151.573 159.813L149.613 165.651L155.337 167.913L154.888 174.053L161.001 174.824L162.088 180.864L168.201 180.092L170.764 185.688L176.488 183.42L180.367 188.205L185.346 184.581L190.291 188.252L194.217 183.501L199.921 185.829L202.538 180.253L208.638 181.092L209.792 175.052L215.912 174.341L215.516 168.194L221.266 165.987L219.361 160.129L224.38 156.565L221.078 151.345ZM219.844 155.68L215.408 158.834L217.093 164.007L212.013 165.953L212.362 171.382L206.953 172.013L205.94 177.381L200.572 176.643L198.257 181.568L193.224 179.515L189.755 183.702L185.386 180.461L180.991 183.662L177.569 179.434L172.509 181.447L170.248 176.502L164.846 177.173L163.886 171.805L158.518 171.134L158.921 165.712L153.861 163.699L155.592 158.545L151.19 155.351L154.156 150.788L150.68 146.601L154.707 142.917L152.324 137.964L157.122 135.394L156.096 130.026L161.383 128.731L161.719 123.302L167.154 123.356L168.832 118.182L174.086 119.592L176.998 114.995L181.743 117.679L185.702 113.948L189.627 117.713L194.391 115.089L197.264 119.712L202.531 118.37L204.155 123.564H209.597L209.886 128.999L215.153 130.341L214.08 135.669L218.844 138.286L216.482 143.185L220.448 146.909L216.938 151.063L219.844 155.68Z" fill="white"/>
<path opacity="0.4" d="M165.812 146.829C165.812 146.829 169.235 146.238 170.919 146.829C172.603 147.419 179.729 159.578 179.729 159.578C179.729 159.578 193.553 140.561 204.605 132.247C204.605 132.247 190.265 145.091 181.951 166.651C181.951 166.651 179.152 167.886 177.173 165.678C176.602 165.007 170.181 154.062 168.939 153.653C167.966 153.324 164.826 153.485 164.826 153.485L165.812 146.829Z" fill="black"/>
<path d="M165.141 146.158C165.141 146.158 168.564 145.567 170.248 146.158C171.932 146.748 179.058 158.907 179.058 158.907C179.058 158.907 192.882 139.89 203.934 131.576C203.934 131.576 189.594 144.42 181.28 165.98C181.28 165.98 178.481 167.215 176.502 165.007C175.931 164.336 169.51 153.391 168.268 152.982C167.295 152.653 164.155 152.814 164.155 152.814L165.141 146.158Z" fill="white"/>
<path d="M170.301 75.9273C170.315 78.678 169.622 81.3861 168.288 83.7918L167.993 84.2951C167.034 85.8863 165.806 87.2986 164.363 88.4689L164.282 88.536C162.916 89.637 161.379 90.5074 159.733 91.1128C157.953 91.765 156.072 92.0967 154.176 92.0925C153.573 92.0961 152.97 92.0625 152.371 91.9918C151.365 91.8849 150.372 91.6803 149.405 91.3812C147.052 90.6575 144.897 89.3989 143.111 87.7039C141.158 85.8664 139.692 83.5721 138.845 81.0274C137.999 78.4828 137.798 75.7676 138.261 73.1261C138.724 70.4846 139.837 67.9997 141.498 65.8948C143.16 63.79 145.319 62.1312 147.781 61.0678C150.243 60.0044 152.931 59.5696 155.602 59.8027C158.274 60.0357 160.846 60.9292 163.087 62.4028C165.327 63.8764 167.166 65.8839 168.439 68.2447C169.711 70.6055 170.376 73.2455 170.375 75.9273H170.301Z" fill="#407BFF"/>
<path d="M168.261 83.7918L167.966 84.2951C164.267 84.2373 160.575 84.6545 156.981 85.5365L155.78 85.8317L154.962 86.0465C153.935 86.3216 152.948 86.6101 152.11 86.8852L151.727 87.0127L151.452 87.1C150.452 87.4355 149.6 87.7375 148.949 87.9857C147.976 88.3548 147.419 88.5964 147.419 88.5964C147.101 88.1861 146.81 87.7558 146.547 87.308L146.507 87.2342C145.05 84.7916 142.48 79.1818 143.688 71.1294C145.03 62.1711 152.459 62.7415 155.096 63.2381C155.411 63.2902 155.722 63.3619 156.029 63.4528C156.029 63.4528 164.343 65.4122 164.651 70.5926C164.695 71.286 164.78 71.9762 164.906 72.6593C165.688 76.4634 166.811 80.1893 168.261 83.7918Z" fill="#263238"/>
<path d="M159.706 91.1128C157.926 91.765 156.045 92.0967 154.15 92.0925C153.546 92.0962 152.944 92.0626 152.345 91.9919C151.338 91.8849 150.345 91.6804 149.379 91.3812L148.862 87.1604L148.614 85.1473L159.679 86.7176V87.6637L159.712 90.4418V91.1128H159.706Z" fill="#407BFF"/>
<path d="M164.255 88.536C162.889 89.637 161.353 90.5074 159.706 91.1128C157.926 91.765 156.045 92.0967 154.15 92.0925C153.546 92.0961 152.944 92.0625 152.345 91.9918C151.338 91.8849 150.345 91.6803 149.379 91.3812C147.025 90.6575 144.871 89.3989 143.084 87.7039C143.594 87.6234 144.111 87.563 144.628 87.4959H144.755C145.366 87.4288 145.976 87.3684 146.587 87.3214C147.312 87.2611 148.03 87.2141 148.755 87.1872H148.882L149.768 87.1537H150.821H152.056C153.398 87.1537 154.758 87.2029 156.136 87.3013L157.525 87.4154L158.256 87.4892L159.317 87.6502L159.551 87.6838H159.713L160.961 87.8985C161.155 87.9321 161.35 87.979 161.544 88.0059L161.914 88.0797L162.309 88.1535L162.98 88.2877L163.45 88.3817L164.255 88.536Z" fill="#263238"/>
<path d="M156.874 91.2604C152.264 90.4753 150.949 88.4353 150.949 88.4353C152.922 86.7309 152.687 84.0803 152.291 82.396C152.164 81.8705 151.993 81.3565 151.781 80.8594L157.317 82.1343C157.156 82.9042 157.051 83.6846 157.002 84.4695C156.959 85.0502 156.989 85.6339 157.089 86.2075C157.397 87.8851 158.35 87.9522 158.35 87.9522C159.229 89.8646 156.874 91.2604 156.874 91.2604Z" fill="#E4897B"/>
<path opacity="0.2" d="M156.981 84.5098C156.939 85.0905 156.968 85.6742 157.069 86.2478C154.868 85.8586 153.257 84.02 152.271 82.4363C152.144 81.9108 151.973 81.3968 151.761 80.8997L157.297 82.1746C157.136 82.9445 157.031 83.7249 156.981 84.5098Z" fill="black"/>
<path d="M156.23 66.3114C161.471 66.5396 163.041 69.4183 163.188 74.8336C163.383 81.5976 161.679 86.3283 155.19 84.6105C146.372 82.2686 147.526 65.9357 156.23 66.3114Z" fill="#E4897B"/>
<path d="M159.813 74.3906C160.201 75.1924 160.683 75.9448 161.249 76.6319C161.085 76.8409 160.867 77.0013 160.619 77.0958C160.371 77.1904 160.101 77.2156 159.84 77.1687L159.813 74.3906Z" fill="#DE5753"/>
<path d="M154.425 71.1295C154.365 71.1298 154.308 71.1083 154.264 71.0691C154.24 71.0471 154.222 71.0206 154.209 70.9912C154.196 70.9617 154.19 70.93 154.19 70.8979C154.19 70.8659 154.196 70.8342 154.209 70.8047C154.222 70.7753 154.24 70.7488 154.264 70.7268C154.595 70.409 154.997 70.1736 155.437 70.0396C155.876 69.9055 156.341 69.8766 156.793 69.9551C156.825 69.9608 156.855 69.9726 156.881 69.9898C156.908 70.0071 156.931 70.0294 156.949 70.0556C156.967 70.0818 156.98 70.1113 156.987 70.1424C156.993 70.1736 156.994 70.2057 156.988 70.237C156.982 70.2683 156.971 70.2982 156.953 70.3249C156.936 70.3517 156.914 70.3748 156.888 70.3929C156.861 70.4109 156.832 70.4237 156.801 70.4303C156.77 70.437 156.738 70.4374 156.706 70.4316C156.335 70.3728 155.956 70.3977 155.596 70.5045C155.236 70.6113 154.905 70.7974 154.626 71.0489C154.601 71.0771 154.57 71.0991 154.535 71.113C154.5 71.127 154.462 71.1326 154.425 71.1295Z" fill="#263238"/>
<path d="M162.618 70.9146C162.567 70.9133 162.518 70.897 162.477 70.8677C162.224 70.6534 161.927 70.4982 161.606 70.4135C161.286 70.3288 160.951 70.3166 160.625 70.3778C160.595 70.3883 160.563 70.3926 160.53 70.3905C160.498 70.3884 160.467 70.3799 160.438 70.3655C160.41 70.3511 160.384 70.3312 160.363 70.3068C160.342 70.2824 160.326 70.2541 160.316 70.2235C160.297 70.1621 160.302 70.0955 160.331 70.0379C160.36 69.9803 160.41 69.9362 160.471 69.9148C160.869 69.8276 161.283 69.8324 161.679 69.9289C162.076 70.0254 162.445 70.2111 162.759 70.4718C162.811 70.5106 162.845 70.568 162.855 70.632C162.865 70.6959 162.85 70.7612 162.813 70.814C162.79 70.8442 162.76 70.8689 162.727 70.8863C162.693 70.9037 162.656 70.9134 162.618 70.9146Z" fill="#263238"/>
<path d="M150.123 74.9006C150.123 74.9006 152.761 70.6999 152.532 67.3582C152.532 67.3582 163.101 63.5602 163.162 74.1222C163.162 74.1222 164.578 64.8083 155.579 64.2111C146.58 63.6138 146.05 76.7996 150.533 80.9265C150.533 80.9265 148.493 77.5243 150.123 74.9006Z" fill="#263238"/>
<path d="M150.935 76.0414C150.909 75.4338 150.644 74.8611 150.198 74.4477C149.752 74.0343 149.161 73.8136 148.553 73.8336C146.916 73.941 146.003 77.2425 150.009 78.2155C150.58 78.3564 150.929 77.8397 150.935 76.0414Z" fill="#E4897B"/>
<path d="M159.941 78.712C159.584 79.2435 159.266 79.7996 158.988 80.3762L158.659 80.2822C157.196 79.8259 156.646 79.1348 156.518 78.504C156.454 78.1927 156.465 77.8704 156.552 77.5646C156.595 77.3902 156.663 77.2229 156.753 77.068C157.532 77.7483 158.447 78.254 159.437 78.551C159.746 78.6583 159.941 78.712 159.941 78.712Z" fill="#263238"/>
<path d="M159.444 78.551L159.149 79.0341C157.807 78.6047 156.854 78.1215 156.552 77.5646C156.595 77.3902 156.663 77.2229 156.753 77.068C157.534 77.7491 158.451 78.2548 159.444 78.551Z" fill="white"/>
<path d="M158.659 80.2823C157.196 79.826 156.646 79.1348 156.518 78.504C157.074 78.6853 157.592 78.9649 158.048 79.3294C158.35 79.5724 158.564 79.9068 158.659 80.2823Z" fill="#DE5753"/>
<path d="M156.109 66.7006C156.109 66.7006 153.626 75.2362 148.204 74.894C142.782 74.5517 151.627 63.9897 151.627 63.9897C151.627 63.9897 160.625 61.0304 164.799 65.9222C168.973 70.8141 163.162 74.1223 163.162 74.1223C163.162 74.1223 163.779 67.4589 156.109 66.7006Z" fill="#263238"/>
<path d="M152.083 74.0551C152.049 74.0547 152.017 74.0442 151.989 74.0251C151.962 74.0059 151.941 73.979 151.928 73.9477C151.913 73.9076 151.913 73.8629 151.929 73.8229C151.945 73.7829 151.976 73.7507 152.016 73.733C156.243 71.9212 155.914 66.157 155.914 66.0966C155.913 66.0532 155.928 66.0108 155.956 65.9783C155.985 65.9457 156.025 65.9256 156.069 65.9222C156.113 65.9202 156.156 65.935 156.19 65.9637C156.223 65.9923 156.245 66.0326 156.25 66.0765C156.25 66.1369 156.592 72.1158 152.15 74.0417L152.083 74.0551Z" fill="#263238"/>
<path d="M156.726 74.0954C156.773 74.498 156.592 74.8537 156.324 74.8872C156.055 74.9208 155.794 74.6121 155.747 74.2162C155.7 73.8203 155.881 73.4579 156.149 73.4243C156.418 73.3908 156.679 73.6861 156.726 74.0954Z" fill="#263238"/>
<path d="M156.035 73.4512L156.881 73.0016C156.881 73.0016 156.525 73.8135 156.035 73.4512Z" fill="#263238"/>
<path d="M161.753 73.4109C161.8 73.8135 161.618 74.1692 161.35 74.2027C161.082 74.2363 160.82 73.9343 160.773 73.5317C160.726 73.1291 160.907 72.7734 161.175 72.7399C161.444 72.7063 161.719 73.0083 161.753 73.4109Z" fill="#263238"/>
<path d="M161.048 72.7667L161.887 72.3171C161.887 72.3171 161.558 73.1425 161.048 72.7667Z" fill="#263238"/>
<path d="M164.336 88.4689L164.255 88.536C162.889 89.637 161.353 90.5074 159.706 91.1128V90.6364V90.4283L158.827 88.6501L159.276 87.5899L159.659 86.7041L160.048 87.5496L164.336 88.4689Z" fill="#407BFF"/>
<path opacity="0.6" d="M164.336 88.4689L164.255 88.536C162.889 89.637 161.353 90.5074 159.706 91.1128V90.6364V90.4283L158.827 88.6501L159.276 87.5899L159.659 86.7041L160.048 87.5496L164.336 88.4689Z" fill="white"/>
<path d="M154.25 88.5158L152.418 90.8174L152.324 91.9985C151.318 91.8915 150.325 91.687 149.358 91.3878C147.005 90.6642 144.85 89.4056 143.064 87.7106L144.587 87.4958H144.715L147.943 87.0395L148.614 85.1539L151.902 87.1134L154.27 88.5292L154.25 88.5158Z" fill="#407BFF"/>
<path opacity="0.6" d="M154.244 88.5159L152.418 90.8176L152.324 91.9986C151.318 91.8916 150.325 91.6871 149.358 91.3879C147.005 90.6643 144.85 89.4057 143.064 87.7107L144.715 87.4825L147.943 87.0329L148.614 85.1473L151.902 87.1068L154.244 88.5159Z" fill="white"/>
<path d="M171.409 89.6029C171.409 90.4722 171.151 91.322 170.668 92.0448C170.185 92.7676 169.498 93.3309 168.695 93.6636C167.892 93.9963 167.008 94.0833 166.156 93.9137C165.303 93.7441 164.52 93.3255 163.905 92.7108C163.291 92.0961 162.872 91.313 162.702 90.4604C162.533 89.6078 162.62 88.724 162.953 87.9209C163.285 87.1178 163.849 86.4313 164.571 85.9484C165.294 85.4654 166.144 85.2076 167.013 85.2076C168.179 85.2076 169.297 85.6707 170.121 86.495C170.945 87.3193 171.409 88.4372 171.409 89.6029Z" fill="white"/>
<path d="M170.765 89.603C170.765 90.3449 170.545 91.0701 170.132 91.687C169.72 92.3038 169.134 92.7846 168.449 93.0685C167.763 93.3525 167.009 93.4267 166.282 93.282C165.554 93.1373 164.886 92.78 164.361 92.2554C163.836 91.7308 163.479 91.0624 163.334 90.3348C163.19 89.6072 163.264 88.8529 163.548 88.1675C163.832 87.4821 164.313 86.8963 164.929 86.4841C165.546 86.0719 166.272 85.8519 167.013 85.8519C168.008 85.8519 168.962 86.2471 169.666 86.9506C170.369 87.6541 170.765 88.6082 170.765 89.603Z" fill="#263238"/>
<path d="M166.866 91.5557L164.866 89.7909L165.309 89.2876L166.758 90.5626L168.664 87.9456L169.208 88.3415L166.866 91.5557Z" fill="white"/>
<path d="M260.414 223.823C260.414 223.823 256.502 215.294 260.971 206.886C265.441 198.478 266.729 196.499 263.884 194.774C261.039 193.05 259.73 201.484 259.73 201.484C259.73 201.484 257.328 195.667 259.314 189.587C261.3 183.507 262.535 173.596 259.831 172.529C257.126 171.462 259.314 184.89 256.965 189.466C255.769 186.254 254.997 182.9 254.67 179.488C254.342 174.603 254.852 166.799 252.711 164.799C250.57 162.799 249.208 164.182 251.309 174.965C252.571 181.408 253.267 187.948 253.389 194.512C253.389 194.512 248.752 180.367 245.638 179.958C242.525 179.548 242.531 184.125 245.195 188.097C247.859 192.07 253 199.189 253.845 202.86C253.845 202.86 248.752 192.217 244.169 195.479C239.586 198.74 248.155 205.168 251.973 207.497C255.791 209.825 258.448 224.38 258.448 224.38L260.414 223.823Z" fill="#407BFF"/>
<path opacity="0.2" d="M260.414 223.823C260.414 223.823 256.502 215.294 260.971 206.886C265.441 198.478 266.729 196.499 263.884 194.774C261.039 193.05 259.73 201.484 259.73 201.484C259.73 201.484 257.328 195.667 259.314 189.587C261.3 183.507 262.535 173.596 259.831 172.529C257.126 171.462 259.314 184.89 256.965 189.466C255.769 186.254 254.997 182.9 254.67 179.488C254.342 174.603 254.852 166.799 252.711 164.799C250.57 162.799 249.208 164.182 251.309 174.965C252.571 181.408 253.267 187.948 253.389 194.512C253.389 194.512 248.752 180.367 245.638 179.958C242.525 179.548 242.531 184.125 245.195 188.097C247.859 192.07 253 199.189 253.845 202.86C253.845 202.86 248.752 192.217 244.169 195.479C239.586 198.74 248.155 205.168 251.973 207.497C255.791 209.825 258.448 224.38 258.448 224.38L260.414 223.823Z" fill="black"/>
<path d="M257.328 227.326C257.328 227.326 261.132 218.737 256.563 210.396C251.993 202.055 250.678 200.095 253.51 198.317C256.341 196.539 257.744 204.981 257.744 204.981C257.744 204.981 260.072 199.129 258.019 193.076C255.966 187.024 254.603 177.133 257.294 176.032C259.985 174.932 257.965 188.386 260.361 192.922C261.519 189.694 262.253 186.328 262.542 182.91C262.803 178.018 262.206 170.228 264.32 168.195C266.434 166.161 267.816 167.523 265.843 178.341C264.659 184.812 264.041 191.376 263.998 197.955C263.998 197.955 268.467 183.742 271.574 183.286C274.681 182.83 274.734 187.406 272.117 191.419C269.5 195.432 264.441 202.625 263.642 206.296C263.642 206.296 268.608 195.559 273.225 198.773C277.841 201.988 269.359 208.524 265.568 210.899C261.777 213.275 259.301 227.883 259.301 227.883L257.328 227.326Z" fill="#407BFF"/>
<path d="M274.882 221.199H243.437L245.981 243.706H272.339L274.882 221.199Z" fill="#263238"/>
<path d="M66.533 228.446L85.8923 226.547V202.726H93.5555V226.534L112.968 228.446C113.899 228.537 114.762 228.97 115.39 229.662C116.018 230.355 116.365 231.256 116.364 232.191V235.096H63.1375V232.177C63.1399 231.245 63.4886 230.347 64.1161 229.657C64.7436 228.968 65.605 228.536 66.533 228.446Z" fill="#263238"/>
<path opacity="0.1" d="M66.533 228.446L85.8923 226.547V202.726H93.5555V226.534L112.968 228.446C113.899 228.537 114.762 228.97 115.39 229.662C116.018 230.355 116.365 231.256 116.364 232.191V235.096H63.1375V232.177C63.1399 231.245 63.4886 230.347 64.1161 229.657C64.7436 228.968 65.605 228.536 66.533 228.446Z" fill="white"/>
<path d="M115.111 243.636C117.843 243.192 119.699 240.618 119.256 237.885C118.812 235.152 116.237 233.297 113.505 233.74C110.772 234.184 108.916 236.759 109.36 239.491C109.803 242.224 112.378 244.079 115.111 243.636Z" fill="#263238"/>
<path d="M70.1308 239.51C70.5743 236.778 68.7187 234.203 65.9861 233.759C63.2534 233.316 60.6786 235.172 60.2351 237.904C59.7915 240.637 61.6471 243.212 64.3798 243.655C67.1124 244.099 69.6872 242.243 70.1308 239.51Z" fill="#263238"/>
<path d="M92.0791 208.57H87.3215C86.5865 208.57 85.8816 208.278 85.3619 207.759C84.8421 207.239 84.5501 206.534 84.5501 205.799V184.373H94.8505V205.799C94.8505 206.534 94.5585 207.239 94.0388 207.759C93.519 208.278 92.8141 208.57 92.0791 208.57Z" fill="#263238"/>
<path opacity="0.2" d="M92.0791 208.57H87.3215C86.5865 208.57 85.8816 208.278 85.3619 207.759C84.8421 207.239 84.5501 206.534 84.5501 205.799V184.373H94.8505V205.799C94.8505 206.534 94.5585 207.239 94.0388 207.759C93.519 208.278 92.8141 208.57 92.0791 208.57Z" fill="white"/>
<path d="M62.9429 142.353C62.9429 142.353 68.6803 178.193 80.0073 184.366H68.4924C68.4924 184.366 57.1184 172.153 53.6827 142.353H62.9429Z" fill="#263238"/>
<path opacity="0.1" d="M62.9429 142.353C62.9429 142.353 68.6803 178.193 80.0073 184.366H68.4924C68.4924 184.366 57.1184 172.153 53.6827 142.353H62.9429Z" fill="white"/>
<path d="M67.9287 179.3H112.834C113.724 179.3 114.577 179.653 115.207 180.283C115.836 180.912 116.189 181.765 116.189 182.655V187.144H64.5735V182.655C64.5735 181.765 64.927 180.912 65.5562 180.283C66.1854 179.653 67.0388 179.3 67.9287 179.3Z" fill="#407BFF"/>
<path d="M116.988 183.219H63.7682C63.0233 183.219 62.4195 183.823 62.4195 184.568V185.789C62.4195 186.534 63.0233 187.138 63.7682 187.138H116.988C117.733 187.138 118.337 186.534 118.337 185.789V184.568C118.337 183.823 117.733 183.219 116.988 183.219Z" fill="#263238"/>
<path opacity="0.6" d="M116.988 183.219H63.7682C63.0233 183.219 62.4195 183.823 62.4195 184.568V185.789C62.4195 186.534 63.0233 187.138 63.7682 187.138H116.988C117.733 187.138 118.337 186.534 118.337 185.789V184.568C118.337 183.823 117.733 183.219 116.988 183.219Z" fill="white"/>
<path d="M52.2869 149.64H70.7403C76.1086 149.64 79.6583 145.305 78.578 139.957L77.1688 132.818C76.0951 127.449 70.841 123.141 65.4391 123.141H46.9723C41.6041 123.141 38.0543 127.476 39.1347 132.818L40.564 139.957C41.6041 145.305 46.8851 149.64 52.2869 149.64Z" fill="#407BFF"/>
<path d="M69.66 114.304H81.4165L82.4968 121.316L72.0421 123.141L69.66 114.304Z" fill="#407BFF"/>
<path d="M147.728 211.718L143.507 213.368L140.474 207.644L137.716 202.444L142.393 199.639L145.218 206.027L147.728 211.718Z" fill="#E4897B"/>
<path opacity="0.2" d="M145.218 206.027L140.474 207.644L137.716 202.444L142.393 199.639L145.218 206.027Z" fill="black"/>
<path d="M144.346 202.907L138.602 206.007C138.602 206.007 116.907 167.866 113.572 168.181C110.237 168.496 78.5914 188.647 68.9419 181.179C59.2925 173.71 68.6802 151.311 68.6802 151.311C68.6802 151.311 87.5363 144.145 89.7037 148.526C90.6544 150.301 91.5013 152.129 92.2402 154.002C92.663 155.344 92.9851 156.532 92.9851 156.532C93.5957 156.283 113.311 148.198 122.115 152.506C131.066 156.955 144.346 202.907 144.346 202.907Z" fill="#407BFF"/>
<path opacity="0.3" d="M144.346 202.907L138.602 206.007C138.602 206.007 116.907 167.866 113.572 168.181C110.237 168.496 78.5914 188.647 68.9419 181.179C59.2925 173.71 68.6802 151.311 68.6802 151.311C68.6802 151.311 87.5363 144.145 89.7037 148.526C90.6544 150.301 91.5013 152.129 92.2402 154.002C92.663 155.344 92.9851 156.532 92.9851 156.532C93.5957 156.283 113.311 148.198 122.115 152.506C131.066 156.955 144.346 202.907 144.346 202.907Z" fill="white"/>
<path d="M113.156 234.009L108.654 233.493L108.634 227.145L108.627 221.313L114.069 221.058L113.586 227.916L113.156 234.009Z" fill="#E4897B"/>
<path opacity="0.2" d="M113.572 228.057L108.62 227.265V221.38L114.062 221.092L113.572 228.057Z" fill="black"/>
<path d="M135.797 204.095L144.198 199.887L145.071 203.444L138.709 206.725L135.797 204.095Z" fill="#263238"/>
<path d="M83.8792 181.259C83.8792 181.259 85.2615 181.105 106.48 177.173C106.48 177.173 106.963 204.316 107.969 224.541L114.505 224.756C114.505 224.756 123.9 179.85 122.779 173.086C121.658 166.322 113.606 165.389 113.606 165.389C113.606 165.389 99.5747 176.26 83.8792 181.259Z" fill="#407BFF"/>
<path opacity="0.4" d="M83.8792 181.259C83.8792 181.259 85.2615 181.105 106.48 177.173C106.48 177.173 106.963 204.316 107.969 224.541L114.505 224.756C114.505 224.756 123.9 179.85 122.779 173.086C121.658 166.322 113.606 165.389 113.606 165.389C113.606 165.389 99.5747 176.26 83.8792 181.259Z" fill="white"/>
<path opacity="0.3" d="M83.8792 181.259C83.8792 181.259 85.2615 181.105 106.48 177.173C106.48 177.173 106.963 204.316 107.969 224.541L114.505 224.756C114.505 224.756 123.9 179.85 122.779 173.086C121.658 166.322 113.606 165.389 113.606 165.389C113.606 165.389 99.5747 176.26 83.8792 181.259Z" fill="black"/>
<path d="M106.741 222.736L115.653 222.528L114.438 226.198L107.204 226.265L106.741 222.736Z" fill="#263238"/>
<path opacity="0.3" d="M92.9851 156.552L81.4165 160.672C81.4165 160.672 87.5027 156.129 92.2402 154.022C92.663 155.391 92.9851 156.552 92.9851 156.552Z" fill="black"/>
<path d="M67.9354 149.721L67.7677 153.156L89.4487 148.56L88.9455 144.769L67.9354 149.721Z" fill="#263238"/>
<path opacity="0.2" d="M67.9354 149.721L67.7677 153.156L89.4487 148.56L88.9455 144.769L67.9354 149.721Z" fill="black"/>
<path d="M74.5241 147.619L73.4421 147.82L74.4617 153.316L75.5437 153.115L74.5241 147.619Z" fill="#407BFF"/>
<path d="M83.9849 146.223L79.252 147.29L80.0605 150.877L84.7933 149.811L83.9849 146.223Z" fill="white"/>
<path d="M87.692 144.376L86.6099 144.577L87.6286 150.073L88.7106 149.872L87.692 144.376Z" fill="#407BFF"/>
<path opacity="0.3" d="M74.5241 147.619L73.4421 147.82L74.4617 153.316L75.5437 153.115L74.5241 147.619Z" fill="white"/>
<path opacity="0.3" d="M87.692 144.376L86.6099 144.577L87.6286 150.073L88.7106 149.872L87.692 144.376Z" fill="white"/>
<path d="M156.116 219.2C155.41 218.983 154.671 218.899 153.935 218.951C153.935 218.951 151.217 217.817 147.896 212.395L145.084 212.764C144.611 212.836 144.171 213.051 143.824 213.382C143.477 213.712 143.24 214.14 143.145 214.61C143.121 214.741 143.121 214.875 143.145 215.006C143.263 215.687 143.426 216.359 143.635 217.019C144.356 219.197 145.207 221.331 146.185 223.407L146.648 223.219L145.205 219.146C144.722 217.764 146.406 218.931 147.298 220.273C148.191 221.615 149.452 222.91 152.459 221.776C155.955 220.414 157.337 219.689 156.116 219.2Z" fill="#407BFF"/>
<path d="M147.211 210.959C147.211 210.959 151.727 217.811 153.922 218.951C153.922 218.951 151.439 220.964 148.124 217.73C143.843 213.59 143.131 215.006 143.131 215.006C143.093 214.194 143.131 213.381 143.245 212.577C143.601 211.006 147.211 210.959 147.211 210.959Z" fill="#E4897B"/>
<path d="M119.894 241.995C119.258 241.62 118.56 241.364 117.833 241.236C117.833 241.236 115.458 239.485 113.546 233.446L110.727 233.137C110.248 233.093 109.767 233.198 109.35 233.438C108.933 233.679 108.601 234.042 108.399 234.479C108.339 234.599 108.298 234.728 108.278 234.862C108.234 235.545 108.234 236.231 108.278 236.915C108.464 239.2 108.786 241.472 109.244 243.719L109.734 243.645L109.298 239.351C109.157 237.888 110.519 239.425 111.069 240.941C111.62 242.458 112.532 244.014 115.72 243.625C119.444 243.135 120.96 242.76 119.894 241.995Z" fill="#407BFF"/>
<path d="M113.19 231.875C113.19 231.875 115.955 239.606 117.833 241.236C117.833 241.236 114.948 242.578 112.465 238.68C109.284 233.633 108.251 234.848 108.251 234.848C108.402 234.051 108.627 233.269 108.922 232.513C109.674 231.063 113.19 231.875 113.19 231.875Z" fill="#E4897B"/>
<path d="M80.0341 90.5894C80.0341 90.5894 69.4385 85.4426 65.9424 96.528C62.4463 107.614 66.9288 115.263 66.9288 115.263C66.9288 115.263 79.1886 112.123 89.5091 114.317C89.5091 114.317 87.2812 104.869 87.8181 99.447C88.3549 94.0251 80.0341 90.5894 80.0341 90.5894Z" fill="#263238"/>
<path d="M88.3012 115.679C90.6297 115.78 100.38 128.885 100.38 128.885L104.003 124.188C104.003 124.188 109.586 135.039 106.822 140.206C104.057 145.373 89.4957 131.254 89.4957 131.254L88.3012 115.679Z" fill="#407BFF"/>
<path opacity="0.6" d="M88.2946 115.679L89.2475 126.154L89.4891 131.261C89.4891 131.261 91.8846 133.582 94.911 135.998C99.3599 139.548 105.171 143.292 106.815 140.219C109.58 135.059 103.99 124.201 103.99 124.201L100.373 128.899V128.858C99.8095 128.053 90.5493 115.78 88.2946 115.679Z" fill="white"/>
<path opacity="0.2" d="M89.2475 126.154L89.489 131.261C89.489 131.261 91.8846 133.583 94.911 135.998C95.1995 129.865 89.489 120.934 89.489 120.934L89.2475 126.154Z" fill="black"/>
<path opacity="0.2" d="M100.387 128.885L99.8632 129.885L101.38 135.79C101.38 135.79 97.1925 131.979 99.8632 128.248L100.387 128.885Z" fill="black"/>
<path d="M89.5225 127.369C89.5225 127.53 89.5225 127.698 89.5225 127.865C89.5225 128.59 89.5225 129.355 89.4755 130.167C89.4755 130.234 89.4755 130.301 89.4755 130.375C89.4755 130.811 89.4755 131.261 89.4755 131.717C89.4755 131.798 89.4755 131.871 89.4755 131.952C89.4755 132.623 89.4285 133.294 89.4017 133.965C89.4017 134.059 89.4017 134.153 89.4017 134.247C89.4017 135.159 89.3279 136.119 89.2809 137.132C89.1735 139.407 89.046 141.93 88.885 144.728L88.583 144.802L68.083 149.66H68.0024C68.0024 149.66 68.8278 138.696 67.4119 132.489C67.4017 132.434 67.3883 132.38 67.3717 132.328C67.3717 132.234 67.3314 132.14 67.3046 132.046C67.2777 131.952 67.2106 131.697 67.1704 131.516C67.1301 131.335 67.0764 131.153 67.0227 130.965C66.8416 130.294 66.647 129.623 66.4389 128.885C66.3047 128.402 66.1571 127.906 66.0028 127.396L65.9222 127.141C65.7411 126.537 65.5465 125.913 65.3452 125.268C65.2848 125.08 65.2311 124.899 65.1707 124.705C64.8754 123.785 64.56 122.812 64.2178 121.792C63.842 120.643 63.4305 119.424 62.9831 118.135C65.3341 117.386 67.7299 116.785 70.1565 116.337L71.1966 116.149L72.2971 115.968C74.1357 115.673 75.9944 115.465 77.8532 115.33C78.6003 115.277 79.3451 115.236 80.0877 115.21C80.5373 115.21 81.0004 115.21 81.4298 115.21H81.6177L82.9598 115.25H83.5838H83.9797H84.4092L85.0802 115.29H85.5902L86.5095 115.351L86.8719 115.384H87.194H87.4892H87.7308L88.3146 115.438C88.3146 115.438 88.3146 115.438 88.3683 115.438L88.4153 115.485C88.4601 115.538 88.4984 115.597 88.5293 115.659C88.7355 116.096 88.8822 116.559 88.9655 117.035C88.9655 117.169 89.0192 117.317 89.0528 117.478C89.0863 117.639 89.1333 117.981 89.1802 118.276C89.2272 118.571 89.2406 118.706 89.2675 118.947C89.2943 119.189 89.3145 119.383 89.3346 119.618C89.5331 122.197 89.5959 124.784 89.5225 127.369Z" fill="#263238"/>
<path d="M78.3901 119.652C73.505 119.028 72.0422 116.934 72.0422 116.934C74.0553 115.055 73.6728 112.284 73.1628 110.553C73.0093 110.003 72.8072 109.469 72.5589 108.956L78.4371 110.056C78.3004 110.872 78.2242 111.698 78.209 112.525C78.1869 113.136 78.2433 113.747 78.3767 114.344C78.7726 116.102 79.7725 116.129 79.7725 116.129C80.8059 118.055 78.3901 119.652 78.3901 119.652Z" fill="#E4897B"/>
<path opacity="0.2" d="M78.2089 112.525C78.1869 113.136 78.2432 113.747 78.3767 114.344C76.0415 114.042 74.2767 112.17 73.1628 110.553C73.0093 110.003 72.8072 109.469 72.5588 108.956L78.4371 110.056C78.3004 110.872 78.2241 111.698 78.2089 112.525Z" fill="black"/>
<path d="M79.7724 93.5688C85.181 94.6693 86.3284 97.9238 85.5903 103.574C84.6643 110.64 82.1144 115.27 75.6523 112.405C66.8886 108.513 70.794 91.7369 79.7724 93.5688Z" fill="#E4897B"/>
<path d="M82.1546 102.561C82.424 103.457 82.8003 104.318 83.2753 105.124C83.0705 105.313 82.8177 105.443 82.5444 105.499C82.271 105.554 81.9877 105.534 81.7252 105.439L82.1546 102.561Z" fill="#DE5753"/>
<path d="M77.1689 98.2795C77.1331 98.2793 77.0978 98.2715 77.0654 98.2564C77.033 98.2413 77.0042 98.2195 76.981 98.1923C76.9576 98.1703 76.939 98.1438 76.9263 98.1144C76.9135 98.0849 76.907 98.0532 76.907 98.0211C76.907 97.9891 76.9135 97.9574 76.9263 97.9279C76.939 97.8985 76.9576 97.872 76.981 97.85C77.3763 97.5753 77.8308 97.3976 78.3076 97.3311C78.7844 97.2647 79.2701 97.3114 79.7255 97.4675C79.7555 97.4781 79.783 97.4945 79.8067 97.5157C79.8303 97.537 79.8495 97.5626 79.8632 97.5913C79.8769 97.62 79.8849 97.651 79.8866 97.6828C79.8883 97.7145 79.8837 97.7463 79.8731 97.7762C79.8625 97.8062 79.8462 97.8338 79.8249 97.8574C79.8037 97.881 79.778 97.9002 79.7494 97.914C79.7207 97.9277 79.6896 97.9356 79.6579 97.9373C79.6262 97.939 79.5944 97.9344 79.5644 97.9238C79.1865 97.8029 78.7865 97.7673 78.3931 97.8195C77.9998 97.8717 77.6229 98.0105 77.2896 98.2258C77.2545 98.2535 77.213 98.2719 77.1689 98.2795Z" fill="#263238"/>
<path d="M85.6843 99.4C85.6209 99.3984 85.5606 99.3719 85.5165 99.3262C85.2859 99.0616 84.9998 98.851 84.6785 98.7095C84.3572 98.568 84.0087 98.499 83.6578 98.5075C83.6264 98.5133 83.5942 98.5125 83.5631 98.5054C83.532 98.4983 83.5027 98.4849 83.4769 98.466C83.4512 98.4472 83.4296 98.4233 83.4134 98.3958C83.3971 98.3684 83.3867 98.3379 83.3827 98.3062C83.3769 98.2749 83.3777 98.2426 83.3848 98.2115C83.3919 98.1805 83.4053 98.1511 83.4242 98.1254C83.443 98.0996 83.4669 98.078 83.4944 98.0618C83.5218 98.0456 83.5523 98.0351 83.584 98.0311C84.0107 98.0056 84.4377 98.0782 84.832 98.2434C85.2263 98.4086 85.5776 98.6619 85.8588 98.984C85.8813 99.0064 85.8992 99.0331 85.9114 99.0624C85.9235 99.0918 85.9298 99.1233 85.9298 99.1551C85.9298 99.1869 85.9235 99.2184 85.9114 99.2477C85.8992 99.2771 85.8813 99.3038 85.8588 99.3262C85.8122 99.3723 85.7498 99.3987 85.6843 99.4Z" fill="#263238"/>
<path d="M72.0086 101.474C72.0086 101.474 75.4442 97.548 75.7596 94.0385C75.7596 94.0385 87.3618 91.851 85.6775 102.836C85.6775 102.836 88.6904 93.3876 79.4436 91.2806C70.1968 89.1736 67.459 102.775 71.4315 107.801C71.4315 107.801 69.8747 103.936 72.0086 101.474Z" fill="#263238"/>
<path d="M72.6594 102.795C72.6969 102.48 72.6719 102.161 72.586 101.856C72.5 101.55 72.3548 101.265 72.1585 101.016C71.9622 100.766 71.7187 100.558 71.442 100.403C71.1653 100.248 70.8607 100.149 70.5457 100.111C68.8345 99.9503 67.3314 103.225 71.3308 104.902C71.9079 105.144 72.3642 104.627 72.6594 102.795Z" fill="#E4897B"/>
<path d="M81.5708 107.063C81.111 107.558 80.6872 108.085 80.3025 108.64L79.9804 108.479C78.531 107.768 78.0948 106.963 78.0478 106.285C78.0361 105.95 78.1027 105.617 78.2424 105.312C78.3162 105.138 78.4133 104.976 78.531 104.829C79.2258 105.676 80.0957 106.363 81.0809 106.842C81.3829 106.976 81.5708 107.063 81.5708 107.063Z" fill="#263238"/>
<path d="M81.081 106.815L80.6985 107.271C79.3564 106.6 78.464 105.929 78.2425 105.312C78.3163 105.138 78.4134 104.976 78.5311 104.829C79.2287 105.666 80.0984 106.343 81.081 106.815Z" fill="white"/>
<path d="M79.9805 108.479C78.5311 107.768 78.0949 106.963 78.0479 106.285C78.5977 106.561 79.0914 106.936 79.5041 107.392C79.7742 107.695 79.941 108.075 79.9805 108.479Z" fill="#DE5753"/>
<path d="M79.5778 93.9445C79.5778 93.9445 75.5516 102.4 70.0089 101.145C64.4661 99.8899 75.3771 90.4082 75.3771 90.4082C75.3771 90.4082 85.2212 88.8044 88.7374 94.6156C92.2536 100.427 85.6775 102.869 85.6775 102.869C85.6775 102.869 87.4222 96.0113 79.5778 93.9445Z" fill="#263238"/>
<path d="M74.2095 100.917C74.1727 100.915 74.1372 100.902 74.1083 100.879C74.0793 100.856 74.0584 100.825 74.0485 100.789C74.0425 100.768 74.0409 100.746 74.0438 100.724C74.0467 100.702 74.054 100.681 74.0653 100.662C74.0767 100.644 74.0917 100.627 74.1096 100.614C74.1275 100.602 74.1478 100.593 74.1693 100.588C78.8665 99.4002 79.4839 93.3542 79.4906 93.2938C79.4956 93.2504 79.5174 93.2108 79.5512 93.1832C79.585 93.1557 79.6283 93.1424 79.6718 93.1461C79.6939 93.1468 79.7157 93.1522 79.7356 93.162C79.7555 93.1718 79.773 93.1857 79.787 93.2029C79.8011 93.2201 79.8112 93.2401 79.8168 93.2616C79.8224 93.2831 79.8232 93.3055 79.8194 93.3273C79.8194 93.3877 79.1483 99.6686 74.2498 100.91L74.2095 100.917Z" fill="#263238"/>
<path d="M78.9941 101.735C78.9941 102.165 78.7324 102.5 78.4505 102.493C78.1687 102.487 77.9405 102.124 77.9607 101.695C77.9808 101.265 78.2224 100.923 78.5109 100.937C78.7995 100.95 79.0142 101.326 78.9941 101.735Z" fill="#263238"/>
<path d="M78.3901 100.95L79.3363 100.621C79.3363 100.621 78.8397 101.393 78.3901 100.95Z" fill="#263238"/>
<path d="M84.3355 101.856C84.3355 102.286 84.0671 102.628 83.7853 102.614C83.5034 102.601 83.282 102.245 83.2954 101.816C83.3088 101.386 83.5571 101.051 83.8456 101.064C84.1342 101.078 84.3489 101.427 84.3355 101.856Z" fill="#263238"/>
<path d="M83.7248 101.078L84.671 100.749C84.671 100.749 84.1744 101.514 83.7248 101.078Z" fill="#263238"/>
<path d="M91.8511 124.329C91.8412 124.401 91.8472 124.474 91.8686 124.543C91.8899 124.612 91.9262 124.676 91.9748 124.729C92.0234 124.783 92.0831 124.826 92.1499 124.854C92.2166 124.882 92.2887 124.895 92.361 124.893H97.9709C98.1259 124.887 98.2741 124.827 98.3904 124.725C98.5066 124.622 98.5836 124.482 98.6083 124.329L99.8565 113.257C99.873 113.179 99.8726 113.099 99.8555 113.021C99.8384 112.944 99.8049 112.871 99.7572 112.807C99.7095 112.743 99.6488 112.691 99.5792 112.653C99.5095 112.615 99.4324 112.592 99.3532 112.586H93.7434C93.5755 112.606 93.42 112.684 93.3035 112.806C93.1871 112.929 93.1172 113.088 93.1059 113.257L91.8511 124.329Z" fill="#263238"/>
<path opacity="0.5" d="M93.7299 113.183L92.4549 124.362C92.439 124.428 92.4387 124.496 92.454 124.561C92.4692 124.627 92.4996 124.688 92.5426 124.739C92.5857 124.791 92.6403 124.832 92.702 124.858C92.7637 124.885 92.8307 124.897 92.8978 124.893H97.6554C97.9775 124.893 98.5613 124.718 98.5949 124.403L99.8698 113.183C99.8698 112.868 99.3598 112.613 99.0377 112.613H94.2801C94.1329 112.62 93.9939 112.682 93.8916 112.788C93.7893 112.895 93.7314 113.036 93.7299 113.183Z" fill="white"/>
<path d="M103.607 125.255L100.682 120.289C100.705 119.21 100.622 118.131 100.433 117.068C100.178 116.451 97.3132 115.055 96.7495 115.27C96.1858 115.485 95.9845 120.598 96.4945 121.309C97.0045 122.021 98.7962 122.765 98.7962 122.765L98.6754 123.738L100.387 128.905L103.607 125.255Z" fill="#E4897B"/>
<path d="M104.782 124.691L103.816 123.718L99.2056 128.885L99.8632 130.932L104.782 124.691Z" fill="#407BFF"/>
<path d="M81.4165 114.304L80.8327 116.451L82.0204 118.196L84.6508 142.729L91.851 141.668C91.3545 122.551 91.18 122.45 88.4019 115.572L81.9533 115.122L81.4165 114.304Z" fill="#407BFF"/>
<path opacity="0.6" d="M81.4165 114.304L80.8327 116.451L82.0204 118.196L84.6508 142.729L91.851 141.668C91.3545 122.551 91.18 122.45 88.4019 115.572L81.9533 115.122L81.4165 114.304Z" fill="white"/>
<path d="M69.66 114.304L76.0549 116.988L74.4847 119.672L76.0348 144.789L66.3451 147.627C66.3451 147.627 59.3127 129.174 62.9161 118.223L69.2641 116.391L69.66 114.304Z" fill="#407BFF"/>
<path opacity="0.6" d="M75.7865 140.789L76.0348 144.769L71.7133 146.03L66.3451 147.6C64.3616 142.143 62.9757 136.487 62.2115 130.731C61.6948 126.362 61.7082 121.86 62.9161 118.196L69.2641 116.364L69.66 114.304L76.0549 116.988L74.4847 119.672L75.102 129.644L75.7865 140.789Z" fill="white"/>
<path opacity="0.2" d="M81.4567 132.945C81.4567 132.945 79.0477 136.454 75.7864 140.789C74.5249 142.467 73.1023 144.265 71.7133 146.03L66.345 147.6C64.3616 142.143 62.9756 136.487 62.2114 130.731C64.8419 128.093 68.0628 124.899 68.0628 124.899C68.0628 124.899 69.5391 129.462 68.8882 133.428L75.102 129.623L77.0346 128.442L81.4567 132.945Z" fill="black"/>
<path d="M76.2092 130.113L82.8592 124.893C83.2444 123.763 83.7178 122.666 84.2751 121.611C84.6777 121.121 90.509 118.974 90.9854 118.927C91.4618 118.88 90.9854 123.705 90.254 124.524C89.5225 125.342 84.832 126.966 84.832 126.966L77.8801 133.535L76.2092 130.113Z" fill="#E4897B"/>
<path d="M62.9161 118.196C59.0107 120.155 57.2728 142.205 64.0569 146.01C70.841 149.815 80.9669 132.589 80.9669 132.589L77.028 128.409C77.028 128.409 68.7743 135.32 67.7811 134.683C66.788 134.045 67.9153 127.302 67.9153 127.302C67.9153 127.302 69.0762 125.289 66.6337 122.047C64.1911 118.806 62.9161 118.196 62.9161 118.196Z" fill="#407BFF"/>
<path opacity="0.6" d="M62.9161 118.196C59.0107 120.155 57.2728 142.205 64.0569 146.01C70.841 149.815 80.9669 132.589 80.9669 132.589L77.028 128.409C77.028 128.409 68.7743 135.32 67.7811 134.683C66.788 134.045 67.9153 127.302 67.9153 127.302C67.9153 127.302 69.0762 125.289 66.6337 122.047C64.1911 118.806 62.9161 118.196 62.9161 118.196Z" fill="white"/>
<path d="M81.0408 134.146L82.2218 133.435L77.7997 126.953L76.1758 127.859L81.0408 134.146Z" fill="#407BFF"/>
</svg>
