<svg width="200" height="194" viewBox="0 0 200 194" fill="none" xmlns="http://www.w3.org/2000/svg">
<path d="M100 193.867C155.228 193.867 200 168.018 200 136.132C200 104.245 155.228 78.3965 100 78.3965C44.7715 78.3965 0 104.245 0 136.132C0 168.018 44.7715 193.867 100 193.867Z" fill="#F0F0F0"/>
<path d="M162.162 161.352C171.529 161.352 179.123 156.968 179.123 151.56C179.123 146.152 171.529 141.769 162.162 141.769C152.795 141.769 145.202 146.152 145.202 151.56C145.202 156.968 152.795 161.352 162.162 161.352Z" fill="#E0E0E0"/>
<path d="M45.032 164.369L10.4367 144.396C9.35443 143.772 9.35443 142.762 10.4367 142.138L67.0387 109.457C67.6443 109.149 68.314 108.989 68.9932 108.989C69.6725 108.989 70.3421 109.149 70.9477 109.457L105.543 129.43C106.625 130.054 106.625 131.064 105.543 131.688L48.941 164.369C48.3354 164.677 47.6658 164.837 46.9865 164.837C46.3073 164.837 45.6376 164.677 45.032 164.369Z" fill="#E0E0E0"/>
<path d="M43.8515 138.742C43.8515 138.742 43.6053 130.513 40.0741 123.845C36.5428 117.177 31.3054 112.767 26.14 111.922C20.9747 111.078 16.3781 115.513 21.6666 119.261C26.955 123.009 36.5598 127.185 40.0826 139.85L43.8515 138.742Z" fill="#0C7FDA"/>
<g opacity="0.15">
<path d="M43.8515 138.742C43.8515 138.742 43.6053 130.513 40.0741 123.845C36.5428 117.177 31.3054 112.767 26.14 111.922C20.9747 111.078 16.3781 115.513 21.6666 119.261C26.955 123.009 36.5598 127.185 40.0826 139.85L43.8515 138.742Z" fill="black"/>
</g>
<path d="M42.5024 136.497C42.5205 136.501 42.5394 136.501 42.5575 136.497C42.6283 136.475 42.6877 136.427 42.7227 136.361C42.7577 136.296 42.7654 136.22 42.7443 136.149C38.3854 122.168 28.407 115.653 23.7426 114.163C23.708 114.152 23.6716 114.148 23.6353 114.151C23.5991 114.154 23.5638 114.164 23.5315 114.18C23.4992 114.197 23.4704 114.22 23.4469 114.247C23.4234 114.275 23.4056 114.307 23.3945 114.342C23.3717 114.412 23.3776 114.489 23.411 114.555C23.4444 114.621 23.5026 114.671 23.5728 114.694C28.1439 116.154 37.9185 122.554 42.2053 136.289C42.2228 136.353 42.2621 136.408 42.3164 136.446C42.3706 136.484 42.4364 136.502 42.5024 136.497Z" fill="white"/>
<path d="M17.0363 131.841C17.3844 132.881 18.4285 133.505 19.4046 134.01C20.3808 134.515 21.4419 135.058 21.9045 136.056C22.8298 138.067 20.7628 140.584 21.773 142.558C22.0158 142.956 22.3371 143.3 22.7172 143.57C23.0974 143.84 23.5284 144.03 23.9843 144.128C24.7349 144.308 25.4942 144.45 26.2592 144.553C26.6248 144.583 26.992 144.59 27.3585 144.574C28.4238 144.519 29.574 144.574 30.4865 145.206C31.9253 146.204 32.2097 148.177 32.9949 149.727C33.4815 150.654 34.164 151.464 34.9952 152.101C35.8263 152.738 36.7861 153.186 37.8079 153.415C39.5057 153.805 42.1244 153.661 42.6422 152.944C43.0327 152.396 42.1881 150.554 42.2178 149.884C42.3247 148.157 42.2678 146.425 42.048 144.71C41.9159 143.933 41.8788 143.144 41.9377 142.358C42.0254 141.481 42.1088 140.601 42.1881 139.718C42.2687 138.768 42.5616 138.021 42.3111 137.049C42.0199 136.111 41.5908 135.221 41.0379 134.409C40.5328 133.59 40.0235 132.779 39.5057 131.968C38.9319 130.99 38.2391 130.086 37.4429 129.278C36.7234 128.612 35.8758 128.101 34.952 127.774C34.0282 127.447 33.0475 127.311 32.0696 127.376C30.4441 127.491 28.793 128.246 27.1505 128.013C25.508 127.779 24.0224 127.211 22.3714 127.164C20.6482 127.121 18.8317 127.686 17.7027 129.065C17.3721 129.438 17.1384 129.886 17.0222 130.37C16.906 130.854 16.9108 131.359 17.0363 131.841Z" fill="#0C7FDA"/>
<path d="M41.628 148.538C41.66 148.533 41.6906 148.521 41.7181 148.504C41.7456 148.487 41.7693 148.464 41.7879 148.438C41.8065 148.411 41.8196 148.381 41.8264 148.35C41.8332 148.318 41.8336 148.285 41.8275 148.254C39.2469 132.915 23.6873 129.273 19.9736 129.192C19.9079 129.191 19.8443 129.216 19.7967 129.261C19.7491 129.307 19.7211 129.369 19.7189 129.434C19.7178 129.467 19.7232 129.499 19.7348 129.53C19.7465 129.56 19.7641 129.588 19.7867 129.611C19.8093 129.634 19.8363 129.653 19.8662 129.666C19.8962 129.678 19.9283 129.685 19.9608 129.685C23.5939 129.765 38.814 133.331 41.3394 148.334C41.3518 148.399 41.3888 148.456 41.4426 148.494C41.4964 148.532 41.5629 148.548 41.628 148.538Z" fill="white"/>
<path d="M24.8247 139.307C24.8747 139.303 24.9222 139.284 24.9606 139.251C25.003 139.218 29.3959 135.631 35.9745 137.24C36.0354 137.247 36.0966 137.231 36.1467 137.196C36.1968 137.161 36.2322 137.108 36.2464 137.049C36.2605 136.989 36.2523 136.926 36.2233 136.872C36.1943 136.818 36.1466 136.777 36.0891 136.756C34.1407 136.243 32.1029 136.167 30.1218 136.534C28.1406 136.901 26.2651 137.701 24.6295 138.878C24.593 138.913 24.5679 138.958 24.5578 139.007C24.5476 139.056 24.5529 139.108 24.5728 139.154C24.5926 139.2 24.6263 139.239 24.669 139.266C24.7118 139.292 24.7617 139.305 24.812 139.302L24.8247 139.307Z" fill="white"/>
<path d="M102.216 4.03232L48.1477 35.2449C47.5778 35.6182 47.1033 36.1197 46.762 36.7093C46.4208 37.2989 46.2224 37.9603 46.1826 38.6404V160.579C46.1826 161.831 47.0654 162.345 48.1477 161.712L102.212 130.504C102.782 130.131 103.256 129.629 103.597 129.04C103.939 128.45 104.137 127.789 104.177 127.109V5.16555C104.173 3.91348 103.298 3.40417 102.216 4.03232ZM101.367 115.861C101.367 116.935 100.616 117.618 99.6693 118.153L50.5076 146.535C49.5781 147.07 48.8098 146.637 48.8098 145.559V50.0618C48.8439 49.4754 49.0152 48.9052 49.3101 48.3973C49.605 47.8893 50.0152 47.4578 50.5076 47.1375L99.6651 18.7516C100.599 18.2083 101.363 18.6455 101.363 19.7193L101.367 115.861Z" fill="#37474F"/>
<path d="M47.9055 161.839C47.3184 162.087 46.6846 162.204 46.0479 162.183C45.4111 162.161 44.7865 162.002 44.2172 161.716L41.9677 160.418C41.3949 160.047 40.9176 159.546 40.5746 158.956C40.2317 158.366 40.0328 157.703 39.9941 157.022V35.0876C40.0057 34.5796 40.1228 34.0795 40.3379 33.6191C40.4055 33.4571 40.4834 33.2998 40.5714 33.1479L46.7553 36.7217C46.6236 36.9537 46.5088 37.1948 46.4115 37.4432C46.2629 37.8325 46.1824 38.2446 46.1738 38.6613V160.583C46.1866 161.755 46.9378 162.26 47.9055 161.839Z" fill="#263238"/>
<path d="M75.6504 135.393C77.3482 134.404 78.753 135.206 78.753 137.184C78.6955 138.262 78.3846 139.31 77.8454 140.244C77.3063 141.179 76.5543 141.973 75.6504 142.562C73.9527 143.551 72.5479 142.749 72.5479 140.771C72.606 139.694 72.9173 138.645 73.4563 137.711C73.9954 136.777 74.7471 135.983 75.6504 135.393Z" fill="#0C7FDA"/>
<path d="M75.1833 22.27C75.909 21.8455 76.499 22.1893 76.499 23.0297C76.4744 23.4869 76.3424 23.9318 76.1138 24.3285C75.8852 24.7252 75.5664 25.0625 75.1833 25.3131C74.4532 25.7375 73.8633 25.3938 73.8633 24.5491C73.888 24.0921 74.0205 23.6473 74.2499 23.2512C74.4793 22.8551 74.7991 22.5189 75.1833 22.27Z" fill="black"/>
<path d="M70.0944 30.2876L80.2807 24.4093C80.8877 24.0612 81.38 24.3074 81.38 24.9653C81.3534 25.3345 81.2399 25.6923 81.0489 26.0095C80.8579 26.3266 80.5947 26.5941 80.2807 26.7903L70.0944 32.6687C69.4875 33.0167 68.9951 32.7706 68.9951 32.1127C69.0217 31.7434 69.1352 31.3856 69.3262 31.0685C69.5172 30.7514 69.7804 30.4838 70.0944 30.2876Z" fill="black"/>
<path d="M101.35 115.861C101.35 116.935 100.599 117.618 99.6521 118.153L50.5073 146.534C49.5778 147.069 48.8096 146.636 48.8096 145.558V50.0615C48.8436 49.4751 49.015 48.9049 49.3099 48.3969C49.6048 47.889 50.0149 47.4574 50.5073 47.1371L99.6648 18.7513C100.599 18.208 101.363 18.6451 101.363 19.719L101.35 115.861Z" fill="#0C7FDA"/>
<path d="M104.172 4.85559C104.032 3.83272 103.213 3.46346 102.232 4.0322L48.147 35.2448C47.5673 35.6086 47.0896 36.1139 46.7591 36.7133L40.5752 33.1524C40.9074 32.5551 41.3866 32.0526 41.9673 31.6923L96.027 0.471227C96.6365 0.161457 97.3105 0 97.9942 0C98.6779 0 99.352 0.161457 99.9615 0.471227L102.219 1.74452C102.75 2.09189 103.199 2.54971 103.536 3.08666C103.873 3.62361 104.09 4.22702 104.172 4.85559Z" fill="#455A64"/>
<path d="M108.195 22.8642C108.004 22.7752 107.793 22.7393 107.583 22.7602C107.373 22.7811 107.173 22.8581 107.003 22.983L57.8453 51.3562C57.353 51.6765 56.9428 52.108 56.6479 52.616C56.353 53.1239 56.1816 53.6941 56.1476 54.2805V149.777C56.1293 149.979 56.1612 150.181 56.2405 150.367C56.3197 150.553 56.4439 150.716 56.6017 150.843C56.9116 151.046 58.1594 151.725 58.448 151.908C58.6405 152.006 58.8564 152.048 59.0715 152.03C59.2866 152.012 59.4925 151.934 59.6661 151.806L108.841 123.441C109.774 122.907 110.538 122.223 110.538 121.149V25.0075C110.56 24.7991 110.525 24.5886 110.439 24.3977C110.352 24.2069 110.217 24.0423 110.046 23.921L108.195 22.8642Z" fill="#E0E0E0"/>
<path d="M110.538 121.15C110.538 122.223 109.783 122.907 108.84 123.442L59.6743 151.823C58.7448 152.362 57.9766 151.925 57.9766 150.851V55.3545C58.0096 54.7685 58.1806 54.1985 58.4756 53.6911C58.7706 53.1836 59.1813 52.753 59.6743 52.4344L108.84 24.04C109.774 23.4968 110.538 23.9382 110.538 25.0077V121.15Z" fill="#FAFAFA"/>
<path d="M109.587 24.2391C110.046 24.2391 110.097 24.7823 110.097 25.0158V121.149C110.097 121.896 109.642 122.49 108.62 123.076L59.4621 151.458C59.2995 151.559 59.1141 151.617 58.923 151.628C58.4647 151.628 58.4137 151.084 58.4137 150.851V55.354C58.4482 54.8452 58.5989 54.3511 58.8542 53.9097C59.1096 53.4682 59.4627 53.0911 59.8865 52.8075L109.048 24.4046C109.21 24.3009 109.396 24.2409 109.587 24.2306M109.587 23.8062C109.319 23.8171 109.059 23.8976 108.832 24.0396L59.6743 52.417C59.1813 52.7356 58.7706 53.1662 58.4756 53.6736C58.1806 54.1811 58.0096 54.751 57.9766 55.3371V150.834C57.9766 151.598 58.3585 152.035 58.9103 152.035C59.1766 152.026 59.4358 151.947 59.6616 151.806L108.84 123.441C109.774 122.906 110.538 122.223 110.538 121.149V25.0073C110.538 24.2476 110.16 23.8062 109.604 23.8062H109.587Z" fill="#E0E0E0"/>
<path d="M85.4969 54.3397C92.5891 50.2482 98.3359 53.563 98.3359 61.7503C98.3359 69.9375 92.5849 79.8904 85.4969 83.9819C78.4089 88.0734 72.6621 84.7586 72.6621 76.5714C72.6621 68.3841 78.4047 58.4312 85.4969 54.3397Z" fill="#0C7FDA"/>
<path d="M86.5532 59.6409L88.3655 63.4862L92.4145 61.9328C92.9748 61.7206 93.1955 62.5058 92.7923 63.2613L89.8637 68.7789L90.5555 73.7575C90.6489 74.4408 90.0674 75.3448 89.5666 75.2812L85.9462 74.8567L82.3216 79.4873C81.825 80.1239 81.2393 79.9117 81.3369 79.101L82.0287 73.3203L79.0959 71.1981C78.6927 70.9053 78.9134 69.8612 79.4737 69.4325L83.5227 66.3087L85.335 60.3667C85.5855 59.5263 86.307 59.1104 86.5532 59.6409Z" fill="#FAFAFA"/>
<path d="M67.8916 105.79C67.8916 107.547 69.2073 108.209 70.8244 107.275L98.3317 91.3928C99.9488 90.4591 101.26 88.2818 101.26 86.5246C101.26 84.7675 99.9488 84.1096 98.3317 85.0433L70.8244 100.921C69.2073 101.859 67.8916 104.032 67.8916 105.79Z" fill="#0C7FDA"/>
<path opacity="0.6" d="M67.8916 105.79C67.8916 107.547 69.2073 108.209 70.8244 107.275L98.3317 91.3928C99.9488 90.4591 101.26 88.2818 101.26 86.5246C101.26 84.7675 99.9488 84.1096 98.3317 85.0433L70.8244 100.921C69.2073 101.859 67.8916 104.032 67.8916 105.79Z" fill="white"/>
<path d="M70.705 103.111L98.4501 87.0889C98.9891 86.779 99.4262 86.9997 99.4262 87.5855C99.402 87.9133 99.3011 88.2309 99.1315 88.5125C98.9619 88.7942 98.7285 89.032 98.4501 89.2068L70.705 105.229C70.166 105.539 69.7246 105.318 69.7246 104.732C69.7483 104.404 69.8495 104.086 70.0199 103.804C70.1903 103.522 70.4251 103.285 70.705 103.111Z" fill="#455A64"/>
<path d="M67.8916 116.374C67.8916 118.132 69.2073 118.794 70.8244 117.86L98.3317 101.978C99.9488 101.044 101.26 98.8667 101.26 97.1096C101.26 95.3524 99.9488 94.6946 98.3317 95.6283L70.8244 111.506C69.2073 112.444 67.8916 114.643 67.8916 116.374Z" fill="#0C7FDA"/>
<path opacity="0.6" d="M67.8916 116.374C67.8916 118.132 69.2073 118.794 70.8244 117.86L98.3317 101.978C99.9488 101.044 101.26 98.8667 101.26 97.1096C101.26 95.3524 99.9488 94.6946 98.3317 95.6283L70.8244 111.506C69.2073 112.444 67.8916 114.643 67.8916 116.374Z" fill="white"/>
<path d="M72.4754 112.674C72.9847 112.381 73.3921 112.619 73.3921 113.2C73.3756 113.519 73.284 113.829 73.1246 114.106C72.9653 114.382 72.7428 114.618 72.4754 114.792C71.9703 115.08 71.5586 114.847 71.5586 114.261C71.5761 113.943 71.6682 113.634 71.8275 113.358C71.9867 113.082 72.2087 112.848 72.4754 112.674Z" fill="#455A64"/>
<path d="M76.0182 112.438C76.3755 111.818 76.3756 111.149 76.0183 110.943C75.6609 110.737 75.0816 111.072 74.7242 111.691C74.3668 112.31 74.3668 112.979 74.7241 113.185C75.0815 113.392 75.6608 113.057 76.0182 112.438Z" fill="#455A64"/>
<path d="M78.281 109.333C78.7903 109.041 79.1978 109.278 79.1978 109.86C79.1813 110.179 79.0896 110.489 78.9303 110.766C78.771 111.042 78.5485 111.277 78.281 111.451C77.776 111.74 77.3643 111.507 77.3643 110.921C77.3818 110.603 77.4739 110.294 77.6331 110.018C77.7924 109.742 78.0144 109.508 78.281 109.333Z" fill="#455A64"/>
<path d="M81.1551 107.661C81.6601 107.368 82.0718 107.606 82.0718 108.192C82.0543 108.51 81.9622 108.819 81.8029 109.095C81.6437 109.37 81.4217 109.605 81.1551 109.779C80.65 110.072 80.2383 109.834 80.2383 109.248C80.2561 108.931 80.3484 108.621 80.5076 108.346C80.6668 108.07 80.8886 107.835 81.1551 107.661Z" fill="#455A64"/>
<path d="M84.0496 105.993C84.5547 105.7 84.9621 105.938 84.9621 106.519C84.9454 106.838 84.8541 107.148 84.6956 107.424C84.5371 107.701 84.3158 107.936 84.0496 108.111C83.5403 108.404 83.1328 108.166 83.1328 107.581C83.1493 107.262 83.241 106.953 83.4004 106.677C83.5597 106.401 83.7822 106.166 84.0496 105.993Z" fill="#455A64"/>
<path d="M87.5895 105.758C87.9468 105.139 87.9469 104.47 87.5895 104.263C87.2322 104.057 86.6529 104.392 86.2955 105.011C85.9381 105.63 85.9381 106.299 86.2954 106.506C86.6527 106.712 87.2321 106.377 87.5895 105.758Z" fill="#455A64"/>
<path d="M89.8347 102.653C90.3398 102.36 90.7515 102.598 90.7515 103.179C90.734 103.498 90.6419 103.808 90.4827 104.084C90.3234 104.361 90.1015 104.596 89.8347 104.771C89.3254 105.064 88.918 104.826 88.918 104.24C88.9345 103.922 89.0262 103.612 89.1855 103.336C89.3449 103.06 89.5674 102.826 89.8347 102.653Z" fill="#455A64"/>
<path d="M93.3727 102.418C93.73 101.799 93.7301 101.13 93.3727 100.923C93.0154 100.717 92.4361 101.052 92.0787 101.671C91.7213 102.291 91.7213 102.96 92.0786 103.166C92.4359 103.372 93.0153 103.037 93.3727 102.418Z" fill="#455A64"/>
<path d="M95.6189 99.3124C96.124 99.0195 96.5357 99.2572 96.5357 99.8429C96.5178 100.161 96.4256 100.47 96.2664 100.746C96.1071 101.022 95.8854 101.256 95.6189 101.43C95.1096 101.723 94.7021 101.485 94.7021 100.9C94.7186 100.582 94.8103 100.272 94.9697 99.9958C95.129 99.7199 95.3515 99.4857 95.6189 99.3124Z" fill="#455A64"/>
<path d="M98.5095 97.6405C99.0146 97.3477 99.4263 97.5853 99.4263 98.1711C99.4088 98.489 99.3167 98.7984 99.1574 99.0742C98.9982 99.35 98.7762 99.5844 98.5095 99.7584C98.0045 100.051 97.5928 99.8136 97.5928 99.2279C97.6106 98.91 97.7029 98.6007 97.8621 98.325C98.0213 98.0493 98.2431 97.8148 98.5095 97.6405Z" fill="#455A64"/>
<path d="M80.1145 119.906L92.7116 112.636C93.7896 112.012 94.664 112.517 94.664 113.765V115.602C94.6286 116.282 94.4334 116.944 94.0942 117.534C93.7549 118.124 93.2812 118.625 92.7116 118.998L80.1187 126.268C79.0364 126.892 78.1621 126.387 78.1621 125.139V123.301C78.1968 122.622 78.3917 121.96 78.731 121.37C79.0703 120.779 79.5444 120.278 80.1145 119.906Z" fill="#0C7FDA"/>
<path d="M79.9795 123.093V123.212C79.9795 123.836 80.4039 124.091 80.9599 123.777L91.8635 117.499C92.1482 117.313 92.385 117.062 92.5546 116.767C92.7242 116.472 92.8219 116.141 92.8397 115.802V115.679C92.8397 115.055 92.4153 114.8 91.8635 115.114L80.9854 121.396C80.6945 121.578 80.4513 121.827 80.2764 122.122C80.1014 122.418 79.9996 122.751 79.9795 123.093Z" fill="#FAFAFA"/>
<path opacity="0.7" d="M77.3151 81.703L128.531 52.1372C129.07 51.8273 129.507 52.0777 129.507 52.7016V93.4469C129.49 93.7868 129.392 94.1178 129.223 94.4128C129.053 94.7078 128.816 94.9586 128.531 95.1447L77.3151 124.702C76.776 125.016 76.3389 124.761 76.3389 124.137V83.3922C76.3577 83.0538 76.4558 82.7246 76.6254 82.4311C76.795 82.1377 77.0312 81.8882 77.3151 81.703Z" fill="#37474F"/>
<path opacity="0.7" d="M76.6227 82.4328L74.1313 80.9897C73.9543 81.2809 73.8549 81.6126 73.8427 81.9532V122.699C73.8318 122.818 73.8519 122.939 73.9009 123.049C73.95 123.159 74.0264 123.255 74.1228 123.327C74.3054 123.433 76.436 124.651 76.6058 124.761C76.5123 124.688 76.4387 124.593 76.392 124.484C76.3452 124.375 76.3268 124.255 76.3384 124.137V83.392C76.3511 83.0535 76.4489 82.7236 76.6227 82.4328Z" fill="#263238"/>
<path opacity="0.5" d="M129.185 52.0481C128.837 51.8359 126.897 50.7239 126.74 50.6305C126.629 50.5765 126.505 50.5535 126.382 50.564C126.258 50.5744 126.14 50.618 126.04 50.6899L74.8237 80.2642C74.535 80.4451 74.2969 80.6963 74.1318 80.9942L76.6232 82.4373C76.7883 82.1393 77.0264 81.8881 77.3151 81.7073L128.535 52.1372C128.629 52.0719 128.736 52.0297 128.849 52.0142C128.962 51.9987 129.077 52.0103 129.185 52.0481Z" fill="#455A64"/>
<path d="M84.2242 82.1021C84.2352 82.0938 84.2486 82.0894 84.2624 82.0894C84.2761 82.0894 84.2895 82.0938 84.3006 82.1021C84.3126 82.116 84.3219 82.1322 84.3277 82.1496C84.3335 82.1671 84.3358 82.1856 84.3345 82.204V82.8661C84.3333 82.9146 84.3218 82.9624 84.3006 83.0061C84.2845 83.0439 84.258 83.0762 84.2242 83.0995L83.5111 83.5239V86.7326C83.51 86.7812 83.4984 86.829 83.4772 86.8727C83.4611 86.9104 83.4346 86.9428 83.4008 86.9661L82.866 87.2716C82.8553 87.2806 82.8418 87.2855 82.8278 87.2855C82.8138 87.2855 82.8003 87.2806 82.7896 87.2716C82.7674 87.2442 82.7567 87.2092 82.7599 87.174V83.9611L82.0426 84.3855C82.0319 84.3945 82.0184 84.3994 82.0044 84.3994C81.9904 84.3994 81.9769 84.3945 81.9662 84.3855C81.9538 84.3727 81.9443 84.3573 81.9385 84.3404C81.9326 84.3236 81.9305 84.3057 81.9322 84.2879V83.6258C81.9334 83.5772 81.945 83.5294 81.9662 83.4857C81.9812 83.4473 82.0079 83.4146 82.0426 83.3924L84.2242 82.1021Z" fill="#FAFAFA"/>
<path d="M86.9283 83.9141C86.9397 83.9048 86.954 83.8997 86.9687 83.8997C86.9834 83.8997 86.9976 83.9048 87.009 83.9141C87.0319 83.9429 87.0425 83.9794 87.0387 84.016V84.6781C87.0395 84.7251 87.0293 84.7716 87.009 84.8139C86.9914 84.8531 86.9635 84.8869 86.9283 84.9115L85.0057 86.0235C84.995 86.0325 84.9814 86.0374 84.9675 86.0374C84.9535 86.0374 84.94 86.0325 84.9293 86.0235C84.9166 86.0109 84.907 85.9955 84.9011 85.9786C84.8952 85.9617 84.8933 85.9437 84.8953 85.9259V81.8853C84.8944 81.8365 84.9061 81.7883 84.9293 81.7453C84.9442 81.7069 84.971 81.6742 85.0057 81.6519L86.8986 80.5569C86.9093 80.5479 86.9229 80.543 86.9368 80.543C86.9508 80.543 86.9643 80.5479 86.975 80.5569C86.9872 80.5699 86.9965 80.5853 87.0024 80.6021C87.0082 80.6189 87.0105 80.6367 87.009 80.6545V81.3166C87.0078 81.3652 86.9962 81.4129 86.975 81.4567C86.9601 81.4951 86.9333 81.5278 86.8986 81.55L85.6253 82.2716V82.9464L86.7883 82.2758C86.799 82.2668 86.8125 82.2619 86.8265 82.2619C86.8404 82.2619 86.854 82.2668 86.8647 82.2758C86.8768 82.2888 86.8862 82.3042 86.892 82.321C86.8979 82.3378 86.9001 82.3557 86.8986 82.3734V83.0398C86.8974 83.087 86.8858 83.1334 86.8647 83.1756C86.8497 83.214 86.823 83.2467 86.7883 83.269L85.6253 83.9396V84.6399L86.9283 83.9141Z" fill="#FAFAFA"/>
<path d="M88.9189 79.3857C89.0662 79.2951 89.2287 79.2319 89.3985 79.199C89.5214 79.1717 89.6501 79.1914 89.7592 79.2541C89.8696 79.3292 89.9506 79.4402 89.9884 79.5682C90.0448 79.7596 90.0705 79.9587 90.0648 80.1582C90.0675 80.4458 90.026 80.732 89.9417 81.007C89.8635 81.2525 89.7429 81.4823 89.5852 81.6861L90.086 82.8872C90.0904 82.9068 90.0904 82.9271 90.086 82.9467C90.0857 82.9862 90.0771 83.0253 90.0606 83.0613C90.0465 83.0919 90.0245 83.1183 89.9969 83.1377L89.4452 83.456C89.39 83.4857 89.3518 83.4899 89.3306 83.456C89.3061 83.4338 89.2872 83.4062 89.2754 83.3753L88.8212 82.2973L88.4477 82.5138V83.8507C88.4482 83.899 88.438 83.9468 88.418 83.9908C88.4017 84.0296 88.3735 84.0623 88.3374 84.0841L87.8069 84.394C87.7962 84.403 87.7826 84.4079 87.7687 84.4079C87.7547 84.4079 87.7412 84.403 87.7305 84.394C87.7067 84.3672 87.6945 84.3321 87.6965 84.2964V80.2643C87.6977 80.2157 87.7092 80.1679 87.7305 80.1242C87.7454 80.0858 87.7722 80.0531 87.8069 80.0308L88.9189 79.3857ZM88.469 81.5376L88.9274 81.2744C89.0404 81.2087 89.1375 81.1189 89.2117 81.0113C89.2906 80.8842 89.3291 80.7362 89.3221 80.5868C89.3221 80.4128 89.2881 80.311 89.2117 80.2897C89.1625 80.2794 89.1117 80.2798 89.0626 80.2908C89.0136 80.3018 88.9675 80.3231 88.9274 80.3534L88.469 80.6166V81.5376Z" fill="#FAFAFA"/>
<path d="M91.9241 80.9261C91.9034 80.9039 91.8849 80.8797 91.8689 80.8539L91.487 80.0433V82.1145C91.4869 82.1614 91.4768 82.2077 91.4572 82.2503C91.4412 82.2905 91.413 82.3246 91.3766 82.3479L90.8461 82.6535C90.835 82.6618 90.8216 82.6663 90.8079 82.6663C90.7941 82.6663 90.7807 82.6618 90.7697 82.6535C90.7576 82.6396 90.7484 82.6235 90.7425 82.606C90.7367 82.5885 90.7344 82.57 90.7357 82.5517V78.5111C90.7369 78.4625 90.7485 78.4147 90.7697 78.371C90.7858 78.3333 90.8123 78.3009 90.8461 78.2777L91.3172 78.006C91.3724 77.9763 91.4148 77.9763 91.4403 78.006C91.4597 78.0267 91.4767 78.0495 91.4912 78.0739L92.1491 79.4279L92.8112 77.3057C92.8252 77.2608 92.8422 77.2168 92.8621 77.1741C92.8865 77.1162 92.9299 77.0682 92.9852 77.0383L93.4563 76.7624C93.467 76.7535 93.4805 76.7485 93.4945 76.7485C93.5085 76.7485 93.522 76.7535 93.5327 76.7624C93.5449 76.7754 93.5542 76.7908 93.56 76.8077C93.5659 76.8245 93.5681 76.8423 93.5667 76.8601V80.9006C93.5655 80.9492 93.5539 80.997 93.5327 81.0407C93.5177 81.0791 93.491 81.1118 93.4563 81.1341L92.9215 81.4397C92.9113 81.4495 92.8976 81.455 92.8833 81.455C92.8691 81.455 92.8554 81.4495 92.8451 81.4397C92.8214 81.4129 92.8092 81.3778 92.8112 81.342V79.2708L92.4292 80.5229C92.4146 80.569 92.3976 80.6143 92.3783 80.6587C92.3575 80.7033 92.3234 80.7404 92.2806 80.7648L92.0217 80.9176C91.9793 80.9473 91.9496 80.9473 91.9241 80.9261Z" fill="#FAFAFA"/>
<path d="M95.3911 75.5953C95.5361 75.5045 95.7004 75.4492 95.8707 75.434C96.0003 75.4259 96.1295 75.4538 96.2442 75.5146C96.3507 75.5752 96.4376 75.6651 96.4946 75.7735C96.5538 75.8862 96.5858 76.0112 96.588 76.1385C96.5882 76.1768 96.5795 76.2146 96.5625 76.2489C96.5493 76.2788 96.5289 76.3051 96.5031 76.3253L95.9683 76.6309C95.9425 76.6499 95.9113 76.6603 95.8792 76.6606C95.853 76.6546 95.8284 76.643 95.8071 76.6266L95.7689 76.5842C95.747 76.5634 95.721 76.5474 95.6925 76.5375C95.6522 76.526 95.6096 76.526 95.5694 76.5375C95.5058 76.5471 95.445 76.5703 95.3911 76.6054C95.339 76.6354 95.2893 76.6695 95.2426 76.7073C95.1964 76.7428 95.155 76.7842 95.1195 76.8303C95.081 76.874 95.0508 76.9244 95.0304 76.9789C95.0055 77.0335 94.9924 77.0929 94.9922 77.1529C94.9895 77.1773 94.9919 77.2019 94.9992 77.2252C95.0065 77.2486 95.0186 77.2702 95.0346 77.2887C95.0703 77.3178 95.1161 77.3316 95.1619 77.3269C95.2437 77.3259 95.325 77.3145 95.4039 77.293L95.7774 77.1954C95.9044 77.1599 96.0359 77.1428 96.1678 77.1444C96.2701 77.149 96.3683 77.1862 96.448 77.2505C96.5278 77.327 96.585 77.4239 96.6135 77.5307C96.655 77.6856 96.6736 77.8457 96.6687 78.006C96.6694 78.2175 96.638 78.4279 96.5753 78.6299C96.5123 78.834 96.4239 79.0294 96.3121 79.2114C96.1999 79.3938 96.0659 79.562 95.9132 79.7122C95.7648 79.8622 95.5962 79.9908 95.4123 80.0942C95.2591 80.19 95.0867 80.2509 94.9073 80.2725C94.7733 80.2887 94.6375 80.265 94.5168 80.2046C94.4056 80.1434 94.3154 80.0503 94.2579 79.9372C94.1914 79.8057 94.1579 79.66 94.1603 79.5127C94.16 79.4726 94.1702 79.4331 94.19 79.3982C94.2004 79.3689 94.2197 79.3437 94.2452 79.326L94.7799 79.0162C94.8068 78.9992 94.8374 78.989 94.8691 78.9865C94.8924 78.991 94.9143 79.0012 94.9327 79.0162C94.9508 79.032 94.9678 79.049 94.9837 79.0671C95.0083 79.094 95.0369 79.1169 95.0686 79.135C95.1145 79.1465 95.1626 79.1465 95.2086 79.135C95.2816 79.1289 95.3518 79.1041 95.4123 79.0628C95.5449 78.9865 95.6663 78.8923 95.7731 78.7827C95.8622 78.69 95.9137 78.5675 95.9174 78.4389C95.921 78.4147 95.9177 78.3899 95.908 78.3674C95.8982 78.3449 95.8824 78.3256 95.8622 78.3116C95.8138 78.2871 95.7584 78.2796 95.7052 78.2904C95.6132 78.2984 95.5222 78.3154 95.4336 78.3413L95.0473 78.4389C94.9458 78.4807 94.8346 78.493 94.7264 78.4742C94.6183 78.4554 94.5176 78.4064 94.4362 78.3328C94.2846 78.1148 94.2154 77.8501 94.2409 77.5858C94.2439 77.3964 94.271 77.2082 94.3216 77.0256C94.378 76.8299 94.4548 76.6407 94.5507 76.4611C94.651 76.2782 94.7736 76.1086 94.9158 75.956C95.0548 75.8122 95.2151 75.6905 95.3911 75.5953Z" fill="#FAFAFA"/>
<path d="M98.2305 75.6339C98.2394 75.3919 98.2735 75.1515 98.3323 74.9166C98.3868 74.6812 98.4695 74.4532 98.5785 74.2375C98.6831 74.0251 98.8143 73.8269 98.969 73.6476C99.1207 73.4773 99.3001 73.3338 99.4995 73.2231C99.657 73.1214 99.8385 73.0628 100.026 73.0534C100.169 73.0502 100.309 73.0983 100.421 73.1892C100.538 73.2953 100.623 73.432 100.667 73.5839C100.73 73.7788 100.764 73.9818 100.769 74.1866C100.769 74.3649 100.769 74.5516 100.769 74.7469C100.769 74.9421 100.769 75.1246 100.769 75.2986C100.76 75.5406 100.726 75.7811 100.667 76.0159C100.61 76.2533 100.527 76.4838 100.421 76.7035C100.315 76.9153 100.183 77.1123 100.026 77.2892C99.8749 77.4587 99.6971 77.6021 99.4995 77.7136C99.3414 77.8179 99.1582 77.878 98.969 77.8876C98.8261 77.8947 98.6861 77.846 98.5785 77.7518C98.4606 77.6446 98.3753 77.5063 98.3323 77.3529C98.2695 77.1579 98.2352 76.9549 98.2305 76.7502C98.2305 76.5846 98.2305 76.4021 98.2305 76.2069C98.2305 76.0117 98.2305 75.8164 98.2305 75.6339ZM100.013 75.6848C100.013 75.6084 100.013 75.5236 100.013 75.4302C100.013 75.3368 100.013 75.2434 100.013 75.1458C100.013 75.0482 100.013 74.9591 100.013 74.8699C100.013 74.7808 100.013 74.7044 100.013 74.6365C100.012 74.5472 99.9975 74.4585 99.9706 74.3733C99.9541 74.3077 99.9204 74.2477 99.873 74.1993C99.8314 74.1605 99.7771 74.1379 99.7202 74.1357C99.6418 74.1411 99.566 74.1659 99.4995 74.2078C99.4161 74.2557 99.3415 74.3174 99.2788 74.3903C99.2163 74.4639 99.1635 74.5452 99.1218 74.6323C99.0804 74.7238 99.0477 74.819 99.0242 74.9166C99.0035 75.0203 98.9893 75.1252 98.9817 75.2307C98.9817 75.3071 98.9817 75.3877 98.9817 75.4769C98.9817 75.566 98.9817 75.6594 98.9817 75.757C98.9817 75.8546 98.9817 75.948 98.9817 76.0371C98.9817 76.1262 98.9817 76.2111 98.9817 76.2833C98.9823 76.436 99.0313 76.5846 99.1218 76.7077C99.2067 76.7968 99.3297 76.7926 99.4995 76.7077C99.6658 76.6093 99.7966 76.4607 99.873 76.2833C99.9602 76.0946 100.013 75.892 100.03 75.6848H100.013Z" fill="#FAFAFA"/>
<path d="M103.43 71.0115C103.44 71.0025 103.454 70.9976 103.468 70.9976C103.482 70.9976 103.495 71.0025 103.506 71.0115C103.529 71.0402 103.54 71.0768 103.536 71.1133V71.7754C103.536 71.8224 103.526 71.8688 103.506 71.9113C103.49 71.9502 103.464 71.984 103.43 72.0089L102.212 72.7092V73.558L103.349 72.9002C103.36 72.8912 103.373 72.8863 103.387 72.8863C103.401 72.8863 103.415 72.8912 103.425 72.9002C103.448 72.9276 103.458 72.9626 103.455 72.9978V73.6642C103.455 73.711 103.445 73.7574 103.425 73.8C103.41 73.8384 103.384 73.8711 103.349 73.8933L102.212 74.547V75.9009C102.212 75.9478 102.202 75.9942 102.182 76.0367C102.167 76.0751 102.14 76.1078 102.105 76.1301L101.571 76.4399C101.56 76.4482 101.546 76.4527 101.532 76.4527C101.519 76.4527 101.505 76.4482 101.494 76.4399C101.482 76.426 101.473 76.4099 101.467 76.3924C101.461 76.3749 101.459 76.3564 101.46 76.3381V72.2975C101.461 72.2502 101.473 72.2037 101.494 72.1617C101.509 72.1221 101.536 72.0881 101.571 72.064L103.43 71.0115Z" fill="#FAFAFA"/>
<path d="M106.227 69.3311C106.373 69.2423 106.537 69.1872 106.707 69.1698C106.836 69.1618 106.965 69.1897 107.08 69.2505C107.186 69.3121 107.272 69.4017 107.331 69.5094C107.39 69.6221 107.422 69.7471 107.424 69.8744C107.423 69.9129 107.413 69.9507 107.394 69.9847C107.384 70.0163 107.363 70.0432 107.335 70.0611L106.804 70.3667C106.779 70.3876 106.748 70.3982 106.715 70.3964C106.688 70.3923 106.663 70.3805 106.643 70.3625L106.605 70.32C106.583 70.2992 106.557 70.2833 106.528 70.2733C106.488 70.2621 106.446 70.2621 106.405 70.2733C106.342 70.283 106.281 70.3061 106.227 70.3412C106.175 70.3713 106.125 70.4053 106.079 70.4431C106.032 70.4786 105.991 70.52 105.955 70.5662C105.917 70.6107 105.886 70.6608 105.862 70.7147C105.84 70.7702 105.829 70.8292 105.828 70.8888C105.824 70.9122 105.825 70.9363 105.832 70.9592C105.839 70.982 105.851 71.0028 105.868 71.0199C105.884 71.0369 105.905 71.0497 105.928 71.0572C105.95 71.0647 105.974 71.0666 105.998 71.0628C106.08 71.0612 106.161 71.0498 106.24 71.0288L106.613 70.9312C106.74 70.8957 106.872 70.8786 107.004 70.8803C107.106 70.8848 107.204 70.922 107.284 70.9864C107.364 71.0628 107.421 71.1597 107.449 71.2665C107.489 71.4218 107.507 71.5817 107.505 71.7419C107.504 71.9533 107.472 72.1634 107.411 72.3658C107.347 72.5695 107.259 72.7647 107.148 72.9472C107.037 73.1303 106.903 73.2986 106.749 73.4481C106.601 73.598 106.432 73.7266 106.248 73.8301C106.097 73.9296 105.924 73.9908 105.743 74.0083C105.609 74.025 105.473 74.0014 105.353 73.9404C105.242 73.8793 105.151 73.7861 105.094 73.673C105.027 73.5415 104.994 73.3959 104.996 73.2486C104.997 73.209 105.005 73.17 105.022 73.134C105.035 73.1051 105.055 73.0802 105.081 73.0618L105.616 72.752C105.643 72.735 105.673 72.7248 105.705 72.7223C105.728 72.7268 105.75 72.737 105.769 72.752C105.785 72.7682 105.801 72.7852 105.815 72.8029C105.842 72.8289 105.872 72.8517 105.904 72.8708C105.95 72.8823 105.999 72.8823 106.045 72.8708C106.118 72.8648 106.188 72.8399 106.248 72.7987C106.381 72.7224 106.502 72.6281 106.609 72.5186C106.699 72.4263 106.75 72.3035 106.753 72.1748C106.756 72.1506 106.752 72.1263 106.742 72.104C106.732 72.0818 106.717 72.0623 106.698 72.0474C106.647 72.03 106.592 72.03 106.541 72.0474C106.449 72.0554 106.358 72.0725 106.27 72.0984L105.871 72.2002C105.769 72.242 105.658 72.2543 105.55 72.2355C105.441 72.2167 105.341 72.1677 105.259 72.0941C105.106 71.8771 105.036 71.6116 105.064 71.3471C105.065 71.1576 105.092 70.969 105.145 70.7869C105.198 70.59 105.275 70.4004 105.374 70.2224C105.474 70.0395 105.597 69.8699 105.739 69.7173C105.88 69.5634 106.045 69.433 106.227 69.3311Z" fill="#FAFAFA"/>
<path d="M110.149 70.5022C110.16 70.4932 110.173 70.4883 110.187 70.4883C110.201 70.4883 110.215 70.4932 110.225 70.5022C110.249 70.5289 110.261 70.564 110.259 70.5998V71.2661C110.258 71.3133 110.246 71.3596 110.225 71.4019C110.21 71.4404 110.184 71.473 110.149 71.4953L108.222 72.6243C108.211 72.6333 108.198 72.6382 108.184 72.6382C108.17 72.6382 108.156 72.6333 108.146 72.6243C108.134 72.6104 108.124 72.5942 108.119 72.5768C108.113 72.5593 108.11 72.5408 108.112 72.5224V68.4819C108.113 68.4347 108.125 68.3884 108.146 68.346C108.161 68.3076 108.187 68.275 108.222 68.2527L110.115 67.1492C110.126 67.1402 110.139 67.1353 110.153 67.1353C110.167 67.1353 110.181 67.1402 110.191 67.1492C110.203 67.1631 110.213 67.1792 110.219 67.1967C110.224 67.2142 110.227 67.2326 110.225 67.251V67.9131C110.224 67.9617 110.213 68.0095 110.191 68.0532C110.175 68.0909 110.149 68.1233 110.115 68.1466L108.863 68.8681V69.5429L110.026 68.8723C110.037 68.8641 110.05 68.8596 110.064 68.8596C110.078 68.8596 110.091 68.8641 110.102 68.8723C110.114 68.8863 110.124 68.9024 110.129 68.9199C110.135 68.9374 110.138 68.9558 110.136 68.9742V69.6533C110.135 69.7019 110.123 69.7496 110.102 69.7934C110.087 69.8318 110.061 69.8645 110.026 69.8867L108.863 70.5573V71.2576L110.149 70.5022Z" fill="#FAFAFA"/>
<path d="M112.139 65.982C112.287 65.8922 112.449 65.8277 112.619 65.791C112.742 65.7666 112.869 65.7861 112.98 65.8462C113.09 65.9223 113.17 66.0351 113.204 66.1645C113.265 66.3538 113.292 66.5519 113.285 66.7503C113.288 67.0382 113.245 67.3248 113.158 67.5991C113.078 67.8438 112.957 68.0734 112.801 68.2782L113.306 69.4751C113.31 69.4961 113.31 69.5177 113.306 69.5388C113.304 69.5773 113.294 69.6149 113.277 69.6491C113.265 69.6811 113.242 69.7081 113.213 69.7255L112.661 70.0438C112.61 70.0778 112.568 70.082 112.547 70.0438C112.524 70.0198 112.506 69.9926 112.491 69.9632L112.042 68.8851L111.668 69.1016V70.4386C111.667 70.4859 111.656 70.5323 111.634 70.5744C111.619 70.6139 111.592 70.648 111.558 70.672L111.023 70.9776C111.012 70.9866 110.999 70.9915 110.985 70.9915C110.971 70.9915 110.957 70.9866 110.946 70.9776C110.924 70.9488 110.913 70.9123 110.917 70.8757V66.8352C110.917 66.7883 110.927 66.7419 110.946 66.6993C110.961 66.6609 110.988 66.6282 111.023 66.606L112.139 65.982ZM111.681 68.1424L112.139 67.875C112.253 67.8116 112.349 67.7212 112.419 67.6119C112.501 67.4859 112.541 67.3374 112.534 67.1874C112.534 67.0092 112.496 66.9115 112.419 66.8861C112.321 66.87 112.221 66.8929 112.139 66.9497L111.681 67.2171V68.1424Z" fill="#FAFAFA"/>
<path d="M114.724 68.8684C114.62 68.9278 114.548 68.8854 114.508 68.7411L113.659 65.3117C113.659 65.2862 113.659 65.2693 113.659 65.2608V65.2353C113.66 65.1971 113.669 65.1596 113.685 65.1249C113.696 65.0929 113.719 65.0659 113.748 65.0485L114.258 64.7514C114.313 64.7217 114.351 64.7175 114.376 64.7514C114.397 64.7728 114.412 64.7991 114.419 64.8278L114.983 67.2556L115.548 64.1785C115.554 64.1337 115.568 64.0904 115.59 64.0511C115.614 63.9987 115.654 63.9554 115.705 63.9281L116.218 63.6352C116.228 63.628 116.239 63.624 116.25 63.624C116.262 63.624 116.273 63.628 116.282 63.6352C116.292 63.6462 116.299 63.659 116.303 63.6729C116.308 63.6867 116.309 63.7014 116.308 63.7158C116.31 63.7242 116.31 63.7329 116.308 63.7413C116.308 63.7413 116.308 63.771 116.308 63.805L115.48 68.1936C115.473 68.2677 115.45 68.3393 115.412 68.4038C115.375 68.4682 115.324 68.5239 115.264 68.5671L114.724 68.8684Z" fill="#FAFAFA"/>
<path d="M117.003 67.5523C116.992 67.5613 116.979 67.5662 116.965 67.5662C116.951 67.5662 116.937 67.5613 116.927 67.5523C116.914 67.539 116.904 67.5229 116.898 67.5053C116.892 67.4876 116.89 67.4689 116.893 67.4504V63.4099C116.891 63.3623 116.903 63.3153 116.927 63.274C116.942 63.2345 116.968 63.2004 117.003 63.1764L117.534 62.8708C117.544 62.8619 117.558 62.8569 117.572 62.8569C117.586 62.8569 117.599 62.8619 117.61 62.8708C117.622 62.8847 117.631 62.9009 117.637 62.9184C117.643 62.9359 117.645 62.9543 117.644 62.9727V67.0133C117.643 67.0605 117.631 67.1069 117.61 67.1491C117.594 67.188 117.567 67.2218 117.534 67.2467L117.003 67.5523Z" fill="#FAFAFA"/>
<path d="M119.071 63.6438C119.071 63.6989 119.071 63.7753 119.071 63.873V64.4714C119.071 64.569 119.071 64.6412 119.071 64.6964C119.075 64.7806 119.086 64.8644 119.105 64.9468C119.119 65.0148 119.151 65.0778 119.198 65.1293C119.217 65.151 119.24 65.1683 119.267 65.18C119.293 65.1917 119.322 65.1976 119.351 65.1972C119.432 65.1957 119.512 65.1707 119.58 65.125C119.665 65.0768 119.743 65.0151 119.809 64.9425C119.866 64.8809 119.914 64.8125 119.953 64.7388C119.99 64.6713 120.02 64.6002 120.043 64.5266C120.063 64.4643 120.079 64.4004 120.089 64.3356C120.098 64.2788 120.114 64.2232 120.136 64.1701C120.157 64.1301 120.189 64.0976 120.229 64.0767L120.76 63.7711C120.769 63.7639 120.78 63.7599 120.792 63.7599C120.803 63.7599 120.814 63.7639 120.823 63.7711C120.842 63.7954 120.851 63.8256 120.849 63.856C120.843 64.0787 120.809 64.2998 120.747 64.5139C120.685 64.7376 120.595 64.9529 120.48 65.1547C120.368 65.3557 120.234 65.5436 120.081 65.715C119.937 65.8822 119.768 66.0255 119.58 66.1394C119.423 66.2388 119.243 66.2958 119.058 66.3049C118.915 66.3079 118.776 66.258 118.667 66.1649C118.55 66.0579 118.464 65.9217 118.417 65.7702C118.358 65.576 118.325 65.3747 118.319 65.1717C118.319 65.0062 118.319 64.8237 118.319 64.6285C118.319 64.4332 118.319 64.2422 118.319 64.0597C118.334 63.5747 118.453 63.0986 118.667 62.6633C118.772 62.4509 118.903 62.2527 119.058 62.0734C119.207 61.9039 119.384 61.7604 119.58 61.6489C119.73 61.5528 119.903 61.4959 120.081 61.4834C120.221 61.4725 120.361 61.5068 120.48 61.581C120.601 61.6612 120.694 61.7768 120.747 61.9121C120.815 62.0852 120.849 62.2695 120.849 62.4554C120.849 62.4936 120.84 62.5312 120.823 62.5657C120.812 62.5977 120.789 62.6247 120.76 62.6421L120.229 62.952C120.183 62.9774 120.153 62.9817 120.136 62.952C120.111 62.9184 120.095 62.8789 120.089 62.8374C120.079 62.7903 120.064 62.7447 120.043 62.7015C120.024 62.6572 119.993 62.619 119.953 62.5912C119.911 62.5636 119.86 62.5502 119.809 62.553C119.728 62.5638 119.65 62.5913 119.58 62.6336C119.493 62.6858 119.416 62.7518 119.351 62.8289C119.287 62.9038 119.235 62.9883 119.198 63.0793C119.156 63.1687 119.125 63.2627 119.105 63.3594C119.087 63.4534 119.076 63.5484 119.071 63.6438Z" fill="#FAFAFA"/>
<path d="M123.506 62.7949C123.517 62.7859 123.53 62.781 123.544 62.781C123.558 62.781 123.572 62.7859 123.582 62.7949C123.594 62.8079 123.604 62.8233 123.61 62.8401C123.615 62.8569 123.618 62.8748 123.616 62.8925V63.5546C123.615 63.6032 123.603 63.651 123.582 63.6947C123.567 63.7331 123.54 63.7658 123.506 63.7881L121.575 64.9086C121.564 64.9175 121.55 64.9225 121.536 64.9225C121.522 64.9225 121.509 64.9175 121.498 64.9086C121.475 64.8798 121.465 64.8432 121.469 64.8067V60.7661C121.468 60.7192 121.478 60.6728 121.498 60.6303C121.513 60.5919 121.54 60.5592 121.575 60.5369L123.468 59.4419C123.502 59.4419 123.527 59.4419 123.548 59.4419C123.571 59.4706 123.582 59.5072 123.578 59.5438V60.2059C123.579 60.2528 123.569 60.2993 123.548 60.3417C123.533 60.3824 123.505 60.4169 123.468 60.4393L122.22 61.1608V61.8357L123.378 61.1651C123.39 61.1558 123.404 61.1507 123.419 61.1507C123.433 61.1507 123.448 61.1558 123.459 61.1651C123.482 61.1938 123.493 61.2304 123.489 61.2669V61.9291C123.489 61.9774 123.479 62.0252 123.459 62.0691C123.44 62.1064 123.413 62.1384 123.378 62.1625L122.22 62.8331V63.5334L123.506 62.7949Z" fill="#FAFAFA"/>
<path d="M103.973 81.2785L109.028 78.3626C109.308 78.2014 109.533 78.3287 109.537 78.6555V78.7828C109.527 78.959 109.476 79.1302 109.388 79.2829C109.299 79.4355 109.176 79.5652 109.028 79.6614L103.973 82.5815C103.693 82.7428 103.464 82.6112 103.464 82.2886V82.1613C103.473 81.9844 103.524 81.8123 103.613 81.6589C103.701 81.5055 103.825 81.3751 103.973 81.2785Z" fill="#FAFAFA"/>
<path d="M81.966 93.9818L101.766 82.5561C102.046 82.3948 102.275 82.5264 102.275 82.8532V82.9805C102.266 83.1569 102.215 83.3286 102.126 83.4814C102.038 83.6341 101.914 83.7636 101.766 83.8591L81.966 95.2848C81.6859 95.4461 81.4609 95.3145 81.4609 94.9919V94.8646C81.4702 94.6882 81.5207 94.5164 81.6084 94.3631C81.6961 94.2098 81.8186 94.0792 81.966 93.9818Z" fill="#FAFAFA"/>
<path d="M111.307 77.0473L123.123 70.2224C123.408 70.0569 123.633 70.1885 123.633 70.5153V70.6426C123.623 70.8184 123.573 70.9896 123.485 71.1423C123.397 71.2949 123.275 71.4247 123.128 71.5212L111.307 78.346C111.027 78.5073 110.798 78.3757 110.798 78.0532V77.9258C110.808 77.7497 110.859 77.5784 110.948 77.4258C111.036 77.2732 111.159 77.1435 111.307 77.0473Z" fill="#FAFAFA"/>
<path d="M95.8579 89.3811L100.913 86.461C101.193 86.2997 101.422 86.4313 101.422 86.7539V86.8812C101.413 87.058 101.362 87.2302 101.273 87.3836C101.185 87.537 101.061 87.6673 100.913 87.764L95.8579 90.6798C95.5778 90.8411 95.3486 90.7096 95.3486 90.387V90.2597C95.3587 90.0835 95.41 89.9122 95.4985 89.7596C95.587 89.607 95.7101 89.4773 95.8579 89.3811Z" fill="#FAFAFA"/>
<path d="M103.324 85.0559L123.119 73.6345C123.404 73.469 123.629 73.6006 123.629 73.9274V74.0547C123.619 74.2305 123.569 74.4017 123.481 74.5544C123.393 74.707 123.271 74.8368 123.123 74.9333L103.324 86.3589C103.039 86.5202 102.814 86.3887 102.814 86.0661V85.9388C102.824 85.7618 102.874 85.5896 102.963 85.4361C103.051 85.2826 103.175 85.1524 103.324 85.0559Z" fill="#FAFAFA"/>
<path d="M81.9367 97.4198L93.7571 90.595C94.0372 90.4295 94.2664 90.561 94.2664 90.8878V91.0152C94.2564 91.1913 94.205 91.3626 94.1166 91.5152C94.0281 91.6678 93.9049 91.7975 93.7571 91.8937L81.9367 98.7186C81.6566 98.8841 81.4316 98.7525 81.4316 98.4257V98.2984C81.4409 98.1226 81.4914 97.9514 81.5792 97.7987C81.6669 97.6461 81.7894 97.5163 81.9367 97.4198Z" fill="#FAFAFA"/>
<path d="M81.966 90.5653L90.6286 85.5655C90.9087 85.4042 91.1337 85.5358 91.1337 85.8583V85.9857C91.1244 86.1621 91.0739 86.3339 90.9862 86.4872C90.8985 86.6405 90.776 86.7711 90.6286 86.8685L81.966 91.8683C81.6859 92.0296 81.4609 91.898 81.4609 91.5712V91.4481C81.4695 91.2715 81.5198 91.0995 81.6075 90.9461C81.6953 90.7927 81.8181 90.6622 81.966 90.5653Z" fill="#FAFAFA"/>
<path d="M115.399 71.266L123.225 66.7459C123.51 66.5803 123.735 66.7119 123.735 67.0387V67.166C123.726 67.3424 123.675 67.5141 123.586 67.6669C123.498 67.8196 123.374 67.9491 123.225 68.0446L115.399 72.5648C115.119 72.7261 114.89 72.5945 114.89 72.2719V72.1446C114.9 71.9685 114.951 71.7972 115.04 71.6446C115.128 71.492 115.251 71.3623 115.399 71.266Z" fill="#FAFAFA"/>
<path d="M92.8316 84.288L112.631 72.8624C112.911 72.7011 113.141 72.8327 113.141 73.1552V73.2826C113.131 73.4587 113.079 73.63 112.991 73.7826C112.902 73.9352 112.779 74.0649 112.631 74.1611L92.8316 85.5868C92.5515 85.7481 92.3223 85.6165 92.3223 85.2939V85.1666C92.3323 84.9905 92.3836 84.8192 92.4721 84.6666C92.5606 84.5139 92.6837 84.3843 92.8316 84.288Z" fill="#FAFAFA"/>
<path d="M103.973 91.8682L109.028 88.9524C109.308 88.7869 109.533 88.9184 109.537 89.2453V89.3726C109.527 89.5487 109.476 89.72 109.388 89.8726C109.299 90.0252 109.176 90.1549 109.028 90.2512L103.973 93.1712C103.693 93.3325 103.464 93.2009 103.464 92.8784V92.7511C103.473 92.5742 103.524 92.4021 103.613 92.2486C103.701 92.0952 103.825 91.9649 103.973 91.8682Z" fill="#FAFAFA"/>
<path d="M81.966 104.571L101.766 93.1455C102.046 92.9842 102.275 93.1158 102.275 93.4426V93.5699C102.266 93.7463 102.215 93.9179 102.126 94.0707C102.038 94.2235 101.914 94.353 101.766 94.4485L81.966 105.874C81.6859 106.035 81.4609 105.904 81.4609 105.581V105.454C81.4702 105.278 81.5207 105.106 81.6084 104.952C81.6961 104.799 81.8186 104.669 81.966 104.571Z" fill="#FAFAFA"/>
<path d="M111.307 87.6367L123.123 80.8076C123.408 80.6463 123.633 80.7779 123.633 81.1047V81.232C123.623 81.4078 123.573 81.579 123.485 81.7317C123.397 81.8843 123.275 82.0141 123.128 82.1106L111.307 88.9354C111.027 89.0967 110.798 88.9651 110.798 88.6426V88.5152C110.808 88.3391 110.859 88.1678 110.948 88.0152C111.036 87.8626 111.159 87.7329 111.307 87.6367Z" fill="#FAFAFA"/>
<path d="M95.8579 99.9704L100.913 97.0504C101.193 96.8891 101.422 97.0206 101.422 97.3432V97.4705C101.413 97.6474 101.362 97.8195 101.273 97.973C101.185 98.1264 101.061 98.2567 100.913 98.3534L95.8579 101.269C95.5778 101.43 95.3486 101.299 95.3486 100.976V100.849C95.3587 100.673 95.41 100.502 95.4985 100.349C95.587 100.196 95.7101 100.067 95.8579 99.9704Z" fill="#FAFAFA"/>
<path d="M103.324 95.6458L123.119 84.2244C123.404 84.0588 123.629 84.1904 123.629 84.5172V84.6446C123.619 84.8204 123.569 84.9916 123.481 85.1442C123.393 85.2969 123.271 85.4267 123.123 85.5231L103.324 96.9488C103.039 97.1101 102.814 96.9785 102.814 96.6559V96.5286C102.824 96.3517 102.874 96.1794 102.963 96.0259C103.051 95.8725 103.175 95.7422 103.324 95.6458Z" fill="#FAFAFA"/>
<path d="M81.9367 108.009L93.7571 101.184C94.0372 101.019 94.2664 101.15 94.2664 101.477V101.605C94.2564 101.781 94.205 101.952 94.1166 102.105C94.0281 102.257 93.9049 102.387 93.7571 102.483L81.9367 109.308C81.6566 109.473 81.4316 109.342 81.4316 109.015V108.888C81.4409 108.712 81.4914 108.541 81.5792 108.388C81.6669 108.235 81.7894 108.106 81.9367 108.009Z" fill="#FAFAFA"/>
<path d="M81.966 101.155L90.6286 96.1549C90.9087 95.9936 91.1337 96.1251 91.1337 96.4477V96.575C91.1244 96.7514 91.0739 96.9232 90.9862 97.0765C90.8985 97.2299 90.776 97.3605 90.6286 97.4578L81.966 102.458C81.6859 102.619 81.4609 102.487 81.4609 102.161V102.037C81.4695 101.861 81.5198 101.689 81.6075 101.535C81.6953 101.382 81.8181 101.252 81.966 101.155Z" fill="#FAFAFA"/>
<path d="M115.399 81.8517L123.225 77.3315C123.51 77.1702 123.735 77.3018 123.735 77.6286V77.7559C123.726 77.9323 123.675 78.104 123.586 78.2568C123.498 78.4095 123.374 78.539 123.225 78.6345L115.399 83.1547C115.119 83.316 114.89 83.1844 114.89 82.8618V82.7345C114.9 82.5579 114.951 82.3861 115.04 82.2329C115.128 82.0796 115.251 81.9491 115.399 81.8517Z" fill="#FAFAFA"/>
<path d="M92.8316 94.8774L112.631 83.4517C112.911 83.2904 113.141 83.422 113.141 83.7446V83.8719C113.131 84.048 113.079 84.2193 112.991 84.372C112.902 84.5246 112.779 84.6542 112.631 84.7505L92.8316 96.1761C92.5515 96.3374 92.3223 96.2059 92.3223 95.8833V95.756C92.3323 95.5798 92.3836 95.4085 92.4721 95.2559C92.5606 95.1033 92.6837 94.9736 92.8316 94.8774Z" fill="#FAFAFA"/>
<path d="M113.014 95.1914C114.287 94.4614 115.306 95.0513 115.306 96.5156C115.262 97.3106 115.032 98.0842 114.634 98.7737C114.236 99.4632 113.681 100.049 113.014 100.484C111.74 101.214 110.722 100.624 110.722 99.1598C110.765 98.3648 110.995 97.5912 111.393 96.9017C111.792 96.2122 112.347 95.6263 113.014 95.1914Z" fill="#0C7FDA"/>
<path d="M113.086 99.58C112.975 99.5795 112.868 99.5353 112.789 99.4569L111.783 98.4807C111.712 98.4006 111.674 98.2966 111.677 98.1896C111.679 98.0826 111.722 97.9806 111.797 97.9039C111.871 97.8271 111.972 97.7814 112.079 97.7758C112.186 97.7703 112.291 97.8053 112.373 97.8738L112.933 98.4213L114.937 93.655C114.955 93.5996 114.985 93.5487 115.024 93.5054C115.063 93.462 115.111 93.4272 115.164 93.4031C115.217 93.379 115.275 93.3661 115.333 93.3653C115.391 93.3644 115.449 93.3756 115.503 93.3981C115.557 93.4207 115.605 93.4541 115.646 93.4962C115.686 93.5384 115.717 93.5884 115.737 93.6432C115.758 93.698 115.766 93.7563 115.763 93.8146C115.759 93.8728 115.744 93.9297 115.718 93.9818L113.477 99.3211C113.45 99.3845 113.408 99.4404 113.355 99.484C113.301 99.5277 113.238 99.5577 113.171 99.5715L113.086 99.58Z" fill="#FAFAFA"/>
<path opacity="0.3" d="M117.449 93.0525L119.571 91.8386C119.995 91.5925 120.352 91.792 120.352 92.2928V94.7205C120.336 94.9915 120.258 95.255 120.122 95.4901C119.987 95.7252 119.798 95.9253 119.571 96.0745L117.449 97.2883C117.024 97.5387 116.668 97.335 116.668 96.8384V94.4107C116.682 94.1389 116.76 93.8742 116.896 93.6382C117.032 93.4023 117.221 93.2016 117.449 93.0525Z" fill="white"/>
<path d="M89.1611 108.858C90.4344 108.128 91.453 108.722 91.453 110.182C91.4106 110.978 91.1809 111.753 90.7826 112.443C90.3844 113.133 89.8288 113.72 89.1611 114.155C87.8878 114.885 86.8691 114.291 86.8691 112.831C86.9139 112.035 87.1446 111.262 87.5426 110.572C87.9407 109.882 88.495 109.295 89.1611 108.858Z" fill="#F28F8F"/>
<path opacity="0.3" d="M93.5622 106.872L95.6844 105.658C96.1088 105.408 96.4653 105.611 96.4653 106.108V108.536C96.4531 108.807 96.3758 109.072 96.2399 109.308C96.104 109.543 95.9135 109.743 95.6844 109.89L93.5622 111.108C93.1378 111.354 92.7812 111.154 92.7812 110.654V108.226C92.7962 107.955 92.8746 107.691 93.0103 107.456C93.1459 107.221 93.335 107.021 93.5622 106.872Z" fill="white"/>
<path d="M90.0179 112.754C89.9086 112.754 89.8037 112.711 89.725 112.636L88.0273 110.993C87.9799 110.957 87.9407 110.911 87.9123 110.858C87.8839 110.805 87.8669 110.747 87.8625 110.688C87.8581 110.628 87.8663 110.568 87.8866 110.512C87.9069 110.456 87.9388 110.405 87.9803 110.362C88.0218 110.319 88.072 110.285 88.1274 110.263C88.1829 110.24 88.2424 110.23 88.3021 110.232C88.3619 110.235 88.4204 110.249 88.474 110.276C88.5276 110.302 88.5749 110.34 88.613 110.386L90.3107 112.024C90.3898 112.104 90.4341 112.211 90.4341 112.324C90.4341 112.436 90.3898 112.543 90.3107 112.623C90.2341 112.703 90.1289 112.751 90.0179 112.754Z" fill="#FAFAFA"/>
<path d="M88.2355 113.888C88.1735 113.888 88.1124 113.873 88.0572 113.845C87.9572 113.797 87.8803 113.711 87.8429 113.606C87.8056 113.501 87.811 113.386 87.8577 113.285L89.704 109.367C89.7526 109.266 89.8393 109.189 89.9451 109.151C90.0509 109.114 90.1671 109.12 90.2685 109.168C90.3685 109.217 90.4455 109.303 90.4828 109.407C90.5201 109.512 90.5148 109.627 90.468 109.728L88.6217 113.646C88.587 113.719 88.5322 113.78 88.4638 113.823C88.3954 113.866 88.3162 113.888 88.2355 113.888Z" fill="#FAFAFA"/>
<path d="M159.199 41.573L157.807 38.95L158.924 35.6989V33.7168L155.494 35.6989V37.681L156.971 40.2276C156.994 40.2667 157.028 40.2979 157.069 40.3167L159.199 41.573Z" fill="#0C7FDA"/>
<path opacity="0.2" d="M159.199 41.573L157.807 38.95L158.924 35.6989V33.7168L155.494 35.6989V37.681L156.971 40.2276C156.994 40.2667 157.028 40.2979 157.069 40.3167L159.199 41.573Z" fill="black"/>
<path d="M167.412 17.9833C167.392 17.6261 167.288 17.2787 167.109 16.9691C166.93 16.6594 166.68 16.3962 166.381 16.2006L165.532 15.7168C165.213 15.5556 164.86 15.4717 164.503 15.4717C164.145 15.4717 163.793 15.5556 163.474 15.7168L150.622 23.1486C150.322 23.3436 150.073 23.6068 149.894 23.9166C149.716 24.2264 149.613 24.5741 149.595 24.9312V39.0647C149.613 39.4218 149.716 39.7694 149.894 40.0793C150.073 40.3891 150.322 40.6523 150.622 40.8473L151.471 41.3312C151.789 41.4923 152.141 41.5762 152.498 41.5762C152.855 41.5762 153.207 41.4923 153.525 41.3312L157.659 38.9459L159.132 41.4924C159.153 41.5289 159.184 41.5584 159.222 41.5777C159.259 41.5969 159.301 41.605 159.343 41.601C159.385 41.597 159.425 41.581 159.458 41.555C159.492 41.529 159.517 41.494 159.531 41.4542L161.076 36.9723L166.364 33.9079C166.668 33.7145 166.922 33.4517 167.104 33.141C167.286 32.8303 167.392 32.4807 167.412 32.121V17.9833Z" fill="#0C7FDA"/>
<path opacity="0.2" d="M149.586 39.0649C149.604 39.422 149.707 39.7697 149.886 40.0795C150.064 40.3893 150.313 40.6525 150.613 40.8475L151.462 41.3314C151.752 41.4773 152.069 41.5603 152.393 41.5749C152.717 41.5895 153.04 41.5355 153.342 41.4163C152.858 41.5988 152.493 41.3229 152.493 40.7372V26.6036C152.505 26.2452 152.609 25.8959 152.795 25.5892L149.9 23.917C149.716 24.2243 149.612 24.5732 149.599 24.9314L149.586 39.0649Z" fill="black"/>
<path opacity="0.5" d="M167.36 17.6905C167.242 17.2661 166.843 17.1176 166.367 17.3892L153.516 24.821C153.213 25.0106 152.964 25.2752 152.794 25.5892L149.899 23.9212C150.07 23.6072 150.318 23.3425 150.621 23.153L163.468 15.7212C163.788 15.56 164.14 15.4761 164.498 15.4761C164.855 15.4761 165.208 15.56 165.527 15.7212L166.376 16.205C166.632 16.3733 166.851 16.5916 167.02 16.8469C167.19 17.1023 167.305 17.3892 167.36 17.6905Z" fill="white"/>
<path d="M164.221 21.3406C163.932 21.2206 163.607 21.2198 163.318 21.3383C163.028 21.4567 162.797 21.6849 162.676 21.973L158.211 32.5838L157.15 31.5524C156.924 31.334 156.622 31.214 156.308 31.2188C155.995 31.2236 155.696 31.3527 155.477 31.5779C155.259 31.803 155.139 32.1056 155.144 32.4192C155.148 32.7329 155.278 33.0317 155.503 33.2501L157.807 35.4911C158.029 35.704 158.324 35.8227 158.631 35.8222C158.708 35.8284 158.787 35.8284 158.864 35.8222C159.052 35.7835 159.228 35.6995 159.376 35.5774C159.524 35.4554 159.639 35.299 159.713 35.1218L164.866 22.8898C164.925 22.7457 164.956 22.5913 164.956 22.4354C164.956 22.2795 164.925 22.1251 164.865 21.9812C164.805 21.8372 164.717 21.7066 164.607 21.5966C164.496 21.4867 164.365 21.3997 164.221 21.3406Z" fill="#FAFAFA"/>
<path d="M167.336 69.229C170.358 69.229 171.873 70.2307 173.134 72.9895C174.339 75.6252 177.268 84.9159 177.085 86.7749C176.903 88.634 170.426 96.6727 170.426 96.6727L167.714 93.3579L172.111 86.2147L167.99 77.62L167.336 69.229Z" fill="#FFA8A7"/>
<path d="M165.528 148.47L163.168 151.73C163.168 151.73 164.335 152.774 166.657 152.863C168.758 152.944 169.335 152.15 169.411 151.984C169.611 151.56 169.522 150.677 169.45 149.79C169.394 149.119 169.411 147.969 169.025 147.969L165.528 148.47Z" fill="#263238"/>
<path d="M162.052 149.353C162.052 149.353 157.476 150.028 156.402 149.913C155.295 150.019 153.622 150.028 152.769 150.274C151.36 150.677 152.234 152.821 154.891 153.529C156.589 153.988 159.373 154.018 161.118 154.54C162.862 155.062 164.089 155.847 166.135 155.27C167.518 154.875 167.573 153.763 167.442 152.944C167.217 151.581 167.179 150.261 166.44 150.117C165.528 149.934 162.052 149.353 162.052 149.353Z" fill="#263238"/>
<path d="M173.562 97.7251C173.168 94.3 171.304 91.6133 169.344 88.5659L164.28 103.48L163.007 108.149C163.007 108.149 163.096 118.866 163.261 121.43C163.427 123.993 165.146 144.841 165.146 144.841L165.456 148.958C168.372 149.765 168.983 149.001 169.013 148.364C169.042 147.727 169.361 145.189 169.361 145.189C169.361 145.189 172.128 129.944 172.238 127.737C172.374 125.158 172.008 122.578 171.16 120.139C171.725 114.791 174.403 104.962 173.562 97.7251Z" fill="#FFA8A7"/>
<path d="M165.129 144.845L165.439 148.962C168.355 149.769 168.966 149.005 168.996 148.368C168.996 148.224 169.025 147.973 169.055 147.681C168.584 148.733 167.62 148.428 167.069 146.925C166.517 145.423 164.098 132.325 164.098 132.325C164.603 138.462 165.129 144.845 165.129 144.845Z" fill="#F28F8F"/>
<path d="M169.344 88.5659L154.51 90.2636C154.51 90.2636 150.847 116.455 150.567 118.925C150.185 121.672 150.695 124.47 152.023 126.905C153.012 128.921 160.855 146.17 161.785 149.34C161.785 149.34 157.965 149.765 156.411 149.896C154.62 150.363 155.414 150.991 155.957 151.365C156.636 151.827 158.058 151.789 159.616 151.899C161.275 152.022 162.714 151.95 164.132 151.967C166.572 151.997 166.678 150.864 166.678 150.864C166.318 149.272 166.008 147.672 165.762 146.063C165.019 141.263 163.431 131.506 162.366 128.352C161.551 125.907 159.31 122.919 159.31 122.919L164.272 103.468C169.879 101.8 171.712 99.4059 172.357 95.9977C172.896 93.2007 170.384 90.2764 169.344 88.5659Z" fill="#FFA8A7"/>
<path d="M160.277 66.4785L160.889 72.8492L166.584 72.4969L166.126 65.4302L160.277 66.4785Z" fill="#FFA8A7"/>
<path d="M171.699 71.9453C171.121 70.2476 169.942 69.2714 167.336 69.2417L166.376 69.2714C166.194 70.2094 163.405 70.9691 160.617 70.0099C159.413 70.1311 158.22 70.341 157.047 70.6381C155.296 73.5084 154.29 76.7704 154.119 80.1283C154.047 81.9831 154.263 84.0416 154.654 87.8827C153.996 92.267 152.459 100.645 151.475 109.554C151.872 109.6 152.274 109.553 152.649 109.416C153.025 109.28 153.364 109.058 153.639 108.769C154.272 108.094 154.985 106.85 155.71 102.623C155.71 107.967 157.069 109.838 158.928 111.018C160.45 111.967 162.224 112.435 164.017 112.36C170.99 111.825 172.331 110.662 173.239 108.565C174.199 101.634 174.254 98.2515 173.744 96.1973C173.235 94.143 172.14 92.4368 170.706 89.8308C170.103 88.723 169.279 86.6688 169.432 86.0364C170.213 82.9848 171.478 80.035 171.835 77.3016C172.115 75.0182 172.081 73.0785 171.699 71.9453Z" fill="#0C7FDA"/>
<g opacity="0.6">
<path d="M171.699 71.9453C171.121 70.2476 169.942 69.2714 167.336 69.2417L166.376 69.2714C166.194 70.2094 163.405 70.9691 160.617 70.0099C159.413 70.1311 158.22 70.341 157.047 70.6381C155.296 73.5084 154.29 76.7704 154.119 80.1283C154.047 81.9831 154.263 84.0416 154.654 87.8827C153.996 92.267 152.459 100.645 151.475 109.554C151.872 109.6 152.274 109.553 152.649 109.416C153.025 109.28 153.364 109.058 153.639 108.769C154.272 108.094 154.985 106.85 155.71 102.623C155.71 107.967 157.069 109.838 158.928 111.018C160.45 111.967 162.224 112.435 164.017 112.36C170.99 111.825 172.331 110.662 173.239 108.565C174.199 101.634 174.254 98.2515 173.744 96.1973C173.235 94.143 172.14 92.4368 170.706 89.8308C170.103 88.723 169.279 86.6688 169.432 86.0364C170.213 82.9848 171.478 80.035 171.835 77.3016C172.115 75.0182 172.081 73.0785 171.699 71.9453Z" fill="black"/>
</g>
<path d="M157.048 70.6382C153.996 70.7825 152.651 73.6983 152.523 76.4359C152.286 81.4909 151.955 86.0407 151.25 88.1799C150.478 90.4718 145.533 95.1872 144.035 95.6117C142.537 96.0361 140.554 95.1872 140.024 95.9257C139.493 96.6642 141.637 96.9444 141.722 97.3306C141.807 97.7168 139.022 98.5445 137.443 98.2728C135.864 98.0012 136.268 100.701 138.636 101.766C141.004 102.831 144.077 101.987 146.942 99.9026C149.807 97.8187 155.04 93.6508 156.356 90.4888C157.677 87.4151 158.542 84.1651 158.924 80.8415C160.278 71.6653 157.048 70.6382 157.048 70.6382Z" fill="#FFA8A7"/>
<path d="M152.982 54.2296C152.933 53.9302 152.933 53.6249 152.982 53.3256C153.053 52.9383 153.208 52.5711 153.435 52.2495C153.662 51.9278 153.956 51.6594 154.297 51.4628C154.638 51.2662 155.018 51.1461 155.41 51.1108C155.802 51.0756 156.198 51.126 156.568 51.2586C156.459 50.6726 156.549 50.067 156.824 49.538C157.098 49.0089 157.542 48.5867 158.084 48.3385C158.505 48.1811 158.954 48.1091 159.403 48.1266C159.853 48.1441 160.294 48.2508 160.702 48.4404C161.191 48.6139 161.599 48.9635 161.844 49.4208C162.13 48.9315 162.554 48.5377 163.063 48.2892C163.572 48.0407 164.144 47.9485 164.705 48.0243C165.267 48.1001 165.794 48.3405 166.219 48.7152C166.644 49.0899 166.948 49.582 167.094 50.1296C167.943 49.9344 169.182 50.3206 169.573 51.1822C169.997 52.1626 169.471 53.3723 169.675 54.3994C169.806 55.0615 170.099 55.6727 170.214 56.3602C170.337 57.1127 170.408 57.8729 170.426 58.6352C170.549 61.7802 163.249 63.826 163.393 65.9821L159.501 61.2454C159.501 61.0502 158.949 60.5579 158.826 60.3966C158.593 60.0825 158.402 59.7472 158.173 59.4204C157.498 58.4726 156.568 57.7365 155.49 57.2982C154.727 56.9476 154.066 56.4069 153.572 55.7278C153.26 55.2819 153.058 54.7686 152.982 54.2296Z" fill="#263238"/>
<path d="M156.054 59.4883C156.054 59.4883 154.781 61.3643 154.955 61.5595C155.25 61.7563 155.578 61.9 155.923 61.9839L156.054 59.4883Z" fill="#F28F8F"/>
<path d="M159.908 53.5502C158.682 54.1741 156.564 55.3243 156.016 59.7639C155.46 64.318 156.492 65.9011 157.124 66.4996C157.549 66.924 159.751 67.0471 160.897 66.6991C162.336 66.2746 165.447 64.7467 166.907 62.3953C168.605 59.6281 168.979 55.944 166.996 54.4967C164.208 52.4637 160.944 53.0239 159.908 53.5502Z" fill="#FFA8A7"/>
<path d="M157.226 66.5806C157.743 66.865 159.208 67.0051 160.298 66.8226L160.265 66.0034C159.797 66.2077 159.311 66.3669 158.813 66.4788C158.292 66.5914 157.757 66.6257 157.226 66.5806Z" fill="#F28F8F"/>
<path d="M159.37 53.419C158.85 53.6067 158.368 53.8839 157.944 54.2382C157.732 54.4168 157.56 54.6381 157.439 54.8876C157.343 55.1198 157.308 55.3724 157.337 55.6218C157.373 55.9629 157.497 56.2885 157.698 56.5663C157.9 56.8441 158.17 57.0643 158.483 57.2049C158.318 57.4298 158.205 57.6883 158.151 57.9619C158.098 58.2356 158.105 58.5176 158.173 58.7881C158.398 59.4172 158.784 59.9763 159.293 60.4094C159.32 60.4371 159.352 60.46 159.387 60.4773C159.423 60.4827 159.461 60.4797 159.496 60.4687C159.531 60.4577 159.563 60.4389 159.59 60.4136C160.359 59.9001 160.834 59.013 161.925 59.3695C163.351 59.8364 163.283 61.602 162.163 62.7013C161.762 63.1033 161.233 63.3525 160.669 63.4059C160.381 63.4111 160.102 63.3116 159.883 63.1257C159.883 63.1257 159.922 65.4262 161.921 66.3387C161.921 66.3387 164.145 67.0475 166.19 66.3896C166.942 65.4304 168.206 64.208 169.246 63.113C172.676 59.5138 172.871 54.2764 167.816 52.6253C167.642 52.5659 167.468 52.515 167.29 52.4683C165.664 52.0451 163.962 52.0088 162.32 52.3622C161.502 52.5363 160.707 52.8041 159.951 53.1601C159.773 53.2535 159.561 53.3341 159.37 53.419Z" fill="#263238"/>
<path d="M159.208 62.0137C159.076 61.968 158.954 61.8965 158.849 61.8032C158.745 61.71 158.66 61.5969 158.599 61.4705C158.539 61.3441 158.504 61.207 158.497 61.0671C158.49 60.9272 158.511 60.7873 158.559 60.6555C158.66 60.3902 158.861 60.175 159.119 60.0561C159.377 59.9371 159.671 59.9237 159.938 60.0189L159.208 62.0137Z" fill="#263238"/>
</svg>
